<ttFont>
<head>
    <!-- Most of this table will be recalculated by the compiler -->
    <tableVersion value="1.0"/>
    <fontRevision value="1.0"/>
    <checkSumAdjustment value="0x6cd6a30a"/>
    <magicNumber value="0x5f0f3cf5"/>
    <flags value="00000000 00011111"/>
    <unitsPerEm value="1000"/>
    <created value="Mon Jun 29 22:52:20 2015"/>
    <modified value="Mon Jun 29 22:52:20 2015"/>
    <xMin value="-734"/>
    <yMin value="-267"/>
    <xMax value="2061"/>
    <yMax value="951"/>
    <macStyle value="00000000 00000001"/>
    <lowestRecPPEM value="8"/>
    <fontDirectionHint value="2"/>
    <indexToLocFormat value="0"/>
    <glyphDataFormat value="0"/>
  </head>
    <TTGlyph name=".notdef" xMin="50" yMin="0" xMax="200" yMax="533">
      <contour>
        <pt x="50" y="0" on="1"/>
        <pt x="50" y="533" on="1"/>
        <pt x="200" y="533" on="1"/>
        <pt x="200" y="0" on="1"/>
      </contour>
      <contour>
        <pt x="100" y="50" on="1"/>
        <pt x="150" y="50" on="1"/>
        <pt x="150" y="483" on="1"/>
        <pt x="100" y="483" on="1"/>
      </contour>
    </TTGlyph>
    <TTGlyph name="A" xMin="40" yMin="0" xMax="828" yMax="698">
      <contour>
        <pt x="296" y="0" on="1"/>
        <pt x="283" y="3" on="0"/>
        <pt x="164" y="3" on="1"/>
        <pt x="63" y="3" on="0"/>
        <pt x="49" y="0" on="1"/>
        <pt x="40" y="0" on="1"/>
        <pt x="40" y="62" on="1"/>
        <pt x="92" y="62" on="1"/>
        <pt x="144" y="62" on="0"/>
        <pt x="144" y="64" on="1"/>
        <pt x="144" y="65" on="0"/>
        <pt x="392" y="685" on="0"/>
        <pt x="397" y="689" on="1"/>
        <pt x="400" y="694" on="0"/>
        <pt x="406" y="696" on="1"/>
        <pt x="411" y="698" on="0"/>
        <pt x="434" y="698" on="1"/>
        <pt x="463" y="698" on="0"/>
        <pt x="471" y="689" on="1"/>
        <pt x="476" y="685" on="0"/>
        <pt x="724" y="65" on="0"/>
        <pt x="724" y="64" on="1"/>
        <pt x="724" y="62" on="0"/>
        <pt x="776" y="62" on="1"/>
        <pt x="828" y="62" on="1"/>
        <pt x="828" y="0" on="1"/>
        <pt x="817" y="0" on="1"/>
        <pt x="799" y="3" on="0"/>
        <pt x="658" y="3" on="1"/>
        <pt x="503" y="3" on="0"/>
        <pt x="485" y="0" on="1"/>
        <pt x="472" y="0" on="1"/>
        <pt x="472" y="62" on="1"/>
        <pt x="517" y="62" on="1"/>
        <pt x="561" y="62" on="0"/>
        <pt x="561" y="63" on="1"/>
        <pt x="551" y="89" on="0"/>
        <pt x="539" y="119" on="1"/>
        <pt x="517" y="175" on="1"/>
        <pt x="262" y="175" on="1"/>
        <pt x="240" y="120" on="1"/>
        <pt x="218" y="65" on="0"/>
        <pt x="217" y="64" on="1"/>
        <pt x="217" y="62" on="0"/>
        <pt x="261" y="62" on="1"/>
        <pt x="306" y="62" on="1"/>
        <pt x="306" y="0" on="1"/>
      </contour>
      <contour>
        <pt x="390" y="237" on="1"/>
        <pt x="492" y="238" on="1"/>
        <pt x="440" y="365" on="1"/>
        <pt x="390" y="491" on="0"/>
        <pt x="388" y="491" on="1"/>
        <pt x="287" y="239" on="0"/>
        <pt x="287" y="237" on="1"/>
      </contour>
    </TTGlyph>
    <TTGlyph name="B" xMin="39" yMin="0" xMax="752" yMax="686">
      <contour>
        <pt x="39" y="624" on="1"/>
        <pt x="39" y="686" on="1"/>
        <pt x="264" y="686" on="1"/>
        <pt x="494" y="686" on="0"/>
        <pt x="503" y="685" on="1"/>
        <pt x="588" y="680" on="0"/>
        <pt x="704" y="604" on="0"/>
        <pt x="718" y="540" on="1"/>
        <pt x="720" y="532" on="0"/>
        <pt x="720" y="510" on="1"/>
        <pt x="720" y="493" on="0"/>
        <pt x="719" y="487" on="1"/>
        <pt x="708" y="438" on="0"/>
        <pt x="670" y="408" on="1"/>
        <pt x="634" y="376" on="0"/>
        <pt x="564" y="359" on="1"/>
        <pt x="565" y="358" on="0"/>
        <pt x="579" y="356" on="1"/>
        <pt x="642" y="345" on="0"/>
        <pt x="690" y="312" on="1"/>
        <pt x="712" y="292" on="0"/>
        <pt x="725" y="276" on="1"/>
        <pt x="752" y="235" on="0"/>
        <pt x="752" y="189" on="1"/>
        <pt x="752" y="160" on="0"/>
        <pt x="741" y="125" on="1"/>
        <pt x="698" y="19" on="0"/>
        <pt x="547" y="2" on="1"/>
        <pt x="543" y="1" on="0"/>
        <pt x="288" y="0" on="1"/>
        <pt x="39" y="0" on="1"/>
        <pt x="39" y="62" on="1"/>
        <pt x="147" y="62" on="1"/>
        <pt x="147" y="624" on="1"/>
      </contour>
      <contour>
        <pt x="563" y="513" on="1"/>
        <pt x="563" y="560" on="0"/>
        <pt x="522" y="617" on="0"/>
        <pt x="486" y="622" on="1"/>
        <pt x="479" y="624" on="0"/>
        <pt x="385" y="624" on="1"/>
        <pt x="293" y="624" on="1"/>
        <pt x="293" y="382" on="1"/>
        <pt x="375" y="382" on="1"/>
        <pt x="458" y="383" on="0"/>
        <pt x="467" y="385" on="1"/>
        <pt x="563" y="405" on="0"/>
      </contour>
      <contour>
        <pt x="590" y="192" on="1"/>
        <pt x="590" y="308" on="0"/>
        <pt x="503" y="330" on="1"/>
        <pt x="398" y="331" on="1"/>
        <pt x="293" y="331" on="1"/>
        <pt x="293" y="62" on="1"/>
        <pt x="391" y="62" on="1"/>
        <pt x="490" y="63" on="0"/>
        <pt x="499" y="65" on="1"/>
        <pt x="590" y="86" on="0"/>
      </contour>
    </TTGlyph>
    <TTGlyph name="C" xMin="64" yMin="-11" xMax="766" yMax="697">
      <contour>
        <pt x="66" y="387" on="1"/>
        <pt x="85" y="534" on="0"/>
        <pt x="298" y="697" on="0"/>
        <pt x="468" y="697" on="1"/>
        <pt x="547" y="697" on="0"/>
        <pt x="613" y="661" on="1"/>
        <pt x="626" y="653" on="0"/>
        <pt x="650" y="637" on="1"/>
        <pt x="655" y="632" on="0"/>
        <pt x="657" y="632" on="1"/>
        <pt x="733" y="695" on="1"/>
        <pt x="735" y="697" on="0"/>
        <pt x="757" y="697" on="0"/>
        <pt x="759" y="695" on="1"/>
        <pt x="764" y="692" on="0"/>
        <pt x="765" y="685" on="1"/>
        <pt x="766" y="675" on="0"/>
        <pt x="766" y="627" on="1"/>
        <pt x="766" y="489" on="1"/>
        <pt x="766" y="424" on="0"/>
        <pt x="760" y="422" on="1"/>
        <pt x="759" y="421" on="1"/>
        <pt x="755" y="419" on="0"/>
        <pt x="709" y="419" on="0"/>
        <pt x="705" y="421" on="1"/>
        <pt x="698" y="426" on="0"/>
        <pt x="697" y="436" on="1"/>
        <pt x="690" y="498" on="0"/>
        <pt x="657" y="545" on="1"/>
        <pt x="613" y="616" on="0"/>
        <pt x="532" y="632" on="1"/>
        <pt x="522" y="634" on="0"/>
        <pt x="496" y="634" on="1"/>
        <pt x="356" y="634" on="0"/>
        <pt x="286" y="553" on="1"/>
        <pt x="232" y="488" on="0"/>
        <pt x="232" y="198" on="0"/>
        <pt x="286" y="133" on="1"/>
        <pt x="356" y="52" on="0"/>
        <pt x="497" y="52" on="1"/>
        <pt x="525" y="52" on="0"/>
        <pt x="533" y="53" on="1"/>
        <pt x="626" y="69" on="0"/>
        <pt x="674" y="141" on="1"/>
        <pt x="704" y="188" on="0"/>
        <pt x="704" y="237" on="1"/>
        <pt x="704" y="248" on="0"/>
        <pt x="711" y="252" on="1"/>
        <pt x="714" y="254" on="0"/>
        <pt x="756" y="254" on="0"/>
        <pt x="759" y="252" on="1"/>
        <pt x="766" y="248" on="0"/>
        <pt x="766" y="234" on="1"/>
        <pt x="766" y="147" on="0"/>
        <pt x="698" y="79" on="1"/>
        <pt x="608" y="-11" on="0"/>
        <pt x="469" y="-11" on="1"/>
        <pt x="300" y="-11" on="0"/>
        <pt x="85" y="154" on="0"/>
        <pt x="66" y="300" on="1"/>
        <pt x="64" y="320" on="0"/>
        <pt x="64" y="343" on="1"/>
        <pt x="64" y="367" on="0"/>
      </contour>
    </TTGlyph>
    <TTGlyph name="D" xMin="39" yMin="0" xMax="817" yMax="686">
      <contour>
        <pt x="39" y="624" on="1"/>
        <pt x="39" y="686" on="1"/>
        <pt x="270" y="686" on="1"/>
        <pt x="506" y="685" on="0"/>
        <pt x="510" y="684" on="1"/>
        <pt x="750" y="654" on="0"/>
        <pt x="805" y="438" on="1"/>
        <pt x="817" y="387" on="0"/>
        <pt x="817" y="338" on="1"/>
        <pt x="817" y="208" on="0"/>
        <pt x="745" y="118" on="1"/>
        <pt x="731" y="99" on="0"/>
        <pt x="702" y="75" on="1"/>
        <pt x="628" y="17" on="0"/>
        <pt x="515" y="2" on="1"/>
        <pt x="504" y="1" on="0"/>
        <pt x="270" y="0" on="1"/>
        <pt x="39" y="0" on="1"/>
        <pt x="39" y="62" on="1"/>
        <pt x="147" y="62" on="1"/>
        <pt x="147" y="624" on="1"/>
      </contour>
      <contour>
        <pt x="451" y="623" on="1"/>
        <pt x="443" y="624" on="0"/>
        <pt x="368" y="624" on="1"/>
        <pt x="298" y="624" on="1"/>
        <pt x="298" y="62" on="1"/>
        <pt x="377" y="62" on="1"/>
        <pt x="467" y="63" on="0"/>
        <pt x="496" y="69" on="1"/>
        <pt x="566" y="84" on="0"/>
        <pt x="606" y="129" on="1"/>
        <pt x="655" y="187" on="0"/>
        <pt x="655" y="337" on="1"/>
        <pt x="655" y="400" on="0"/>
        <pt x="652" y="428" on="1"/>
        <pt x="640" y="520" on="0"/>
        <pt x="544" y="616" on="0"/>
      </contour>
    </TTGlyph>
    <TTGlyph name="Delta" xMin="56" yMin="0" xMax="901" yMax="698">
      <contour>
        <pt x="901" y="12" on="1"/>
        <pt x="901" y="7" on="0"/>
        <pt x="892" y="0" on="1"/>
        <pt x="479" y="0" on="1"/>
        <pt x="65" y="0" on="0"/>
        <pt x="62" y="2" on="1"/>
        <pt x="56" y="6" on="0"/>
        <pt x="56" y="11" on="1"/>
        <pt x="56" y="14" on="0"/>
        <pt x="429" y="680" on="0"/>
        <pt x="433" y="685" on="1"/>
        <pt x="438" y="694" on="0"/>
        <pt x="450" y="696" on="1"/>
        <pt x="454" y="698" on="0"/>
        <pt x="480" y="698" on="1"/>
        <pt x="506" y="698" on="1"/>
        <pt x="510" y="695" on="0"/>
        <pt x="523" y="687" on="1"/>
        <pt x="526" y="683" on="0"/>
        <pt x="896" y="24" on="0"/>
        <pt x="899" y="17" on="1"/>
        <pt x="901" y="13" on="0"/>
      </contour>
      <contour>
        <pt x="583" y="261" on="1"/>
        <pt x="561" y="299" on="0"/>
        <pt x="479" y="446" on="0"/>
        <pt x="470" y="462" on="1"/>
        <pt x="427" y="538" on="1"/>
        <pt x="308" y="322" on="0"/>
        <pt x="202" y="137" on="1"/>
        <pt x="315" y="136" on="1"/>
        <pt x="540" y="136" on="1"/>
        <pt x="653" y="137" on="1"/>
      </contour>
    </TTGlyph>
    <TTGlyph name="E" xMin="39" yMin="0" xMax="723" yMax="680">
      <contour>
        <pt x="336" y="384" on="1"/>
        <pt x="397" y="386" on="0"/>
        <pt x="441" y="424" on="0"/>
        <pt x="443" y="482" on="1"/>
        <pt x="443" y="501" on="1"/>
        <pt x="505" y="501" on="1"/>
        <pt x="505" y="205" on="1"/>
        <pt x="443" y="205" on="1"/>
        <pt x="443" y="224" on="1"/>
        <pt x="441" y="265" on="0"/>
        <pt x="420" y="307" on="0"/>
        <pt x="392" y="316" on="1"/>
        <pt x="375" y="321" on="0"/>
        <pt x="336" y="322" on="1"/>
        <pt x="304" y="322" on="1"/>
        <pt x="304" y="62" on="1"/>
        <pt x="375" y="62" on="1"/>
        <pt x="474" y="62" on="0"/>
        <pt x="569" y="81" on="0"/>
        <pt x="603" y="119" on="1"/>
        <pt x="634" y="155" on="0"/>
        <pt x="651" y="232" on="1"/>
        <pt x="661" y="287" on="0"/>
        <pt x="661" y="289" on="1"/>
        <pt x="723" y="289" on="1"/>
        <pt x="723" y="286" on="1"/>
        <pt x="721" y="284" on="0"/>
        <pt x="678" y="5" on="0"/>
        <pt x="677" y="3" on="1"/>
        <pt x="677" y="0" on="1"/>
        <pt x="39" y="0" on="1"/>
        <pt x="39" y="62" on="1"/>
        <pt x="147" y="62" on="1"/>
        <pt x="147" y="618" on="1"/>
        <pt x="39" y="618" on="1"/>
        <pt x="39" y="680" on="1"/>
        <pt x="660" y="680" on="1"/>
        <pt x="660" y="676" on="1"/>
        <pt x="662" y="670" on="0"/>
        <pt x="688" y="434" on="0"/>
        <pt x="691" y="428" on="1"/>
        <pt x="691" y="424" on="1"/>
        <pt x="629" y="424" on="1"/>
        <pt x="629" y="428" on="1"/>
        <pt x="628" y="430" on="0"/>
        <pt x="626" y="444" on="1"/>
        <pt x="616" y="524" on="0"/>
        <pt x="555" y="605" on="0"/>
        <pt x="487" y="614" on="1"/>
        <pt x="459" y="618" on="0"/>
        <pt x="374" y="618" on="1"/>
        <pt x="304" y="618" on="1"/>
        <pt x="304" y="384" on="1"/>
      </contour>
    </TTGlyph>
    <TTGlyph name="F" xMin="39" yMin="0" xMax="675" yMax="680">
      <contour>
        <pt x="425" y="0" on="1"/>
        <pt x="405" y="3" on="0"/>
        <pt x="228" y="3" on="1"/>
        <pt x="72" y="3" on="0"/>
        <pt x="51" y="0" on="1"/>
        <pt x="39" y="0" on="1"/>
        <pt x="39" y="62" on="1"/>
        <pt x="147" y="62" on="1"/>
        <pt x="147" y="618" on="1"/>
        <pt x="39" y="618" on="1"/>
        <pt x="39" y="680" on="1"/>
        <pt x="644" y="680" on="1"/>
        <pt x="644" y="676" on="1"/>
        <pt x="647" y="670" on="0"/>
        <pt x="672" y="434" on="0"/>
        <pt x="675" y="428" on="1"/>
        <pt x="675" y="424" on="1"/>
        <pt x="613" y="424" on="1"/>
        <pt x="613" y="433" on="0"/>
        <pt x="605" y="477" on="1"/>
        <pt x="595" y="536" on="0"/>
        <pt x="544" y="599" on="0"/>
        <pt x="497" y="610" on="1"/>
        <pt x="465" y="618" on="0"/>
        <pt x="368" y="618" on="1"/>
        <pt x="304" y="618" on="1"/>
        <pt x="304" y="371" on="1"/>
        <pt x="333" y="371" on="1"/>
        <pt x="392" y="373" on="0"/>
        <pt x="434" y="412" on="0"/>
        <pt x="437" y="468" on="1"/>
        <pt x="437" y="488" on="1"/>
        <pt x="499" y="488" on="1"/>
        <pt x="499" y="192" on="1"/>
        <pt x="437" y="192" on="1"/>
        <pt x="437" y="212" on="1"/>
        <pt x="434" y="268" on="0"/>
        <pt x="392" y="307" on="0"/>
        <pt x="333" y="309" on="1"/>
        <pt x="304" y="309" on="1"/>
        <pt x="304" y="62" on="1"/>
        <pt x="439" y="62" on="1"/>
        <pt x="439" y="0" on="1"/>
      </contour>
    </TTGlyph>
    <TTGlyph name="G" xMin="64" yMin="-10" xMax="845" yMax="697">
      <contour>
        <pt x="648" y="46" on="1"/>
        <pt x="592" y="-10" on="0"/>
        <pt x="465" y="-10" on="1"/>
        <pt x="306" y="-10" on="0"/>
        <pt x="203" y="64" on="1"/>
        <pt x="89" y="146" on="0"/>
        <pt x="66" y="300" on="1"/>
        <pt x="64" y="320" on="0"/>
        <pt x="64" y="343" on="1"/>
        <pt x="64" y="447" on="0"/>
        <pt x="116" y="531" on="1"/>
        <pt x="178" y="631" on="0"/>
        <pt x="298" y="670" on="1"/>
        <pt x="372" y="697" on="0"/>
        <pt x="449" y="697" on="1"/>
        <pt x="452" y="697" on="0"/>
        <pt x="466" y="696" on="0"/>
        <pt x="470" y="696" on="1"/>
        <pt x="553" y="696" on="0"/>
        <pt x="617" y="658" on="1"/>
        <pt x="643" y="643" on="0"/>
        <pt x="652" y="634" on="1"/>
        <pt x="656" y="632" on="1"/>
        <pt x="732" y="695" on="1"/>
        <pt x="734" y="697" on="0"/>
        <pt x="756" y="697" on="0"/>
        <pt x="758" y="695" on="1"/>
        <pt x="763" y="692" on="0"/>
        <pt x="764" y="685" on="1"/>
        <pt x="765" y="675" on="0"/>
        <pt x="765" y="627" on="1"/>
        <pt x="765" y="489" on="1"/>
        <pt x="765" y="424" on="0"/>
        <pt x="759" y="422" on="1"/>
        <pt x="758" y="421" on="1"/>
        <pt x="754" y="419" on="0"/>
        <pt x="708" y="419" on="0"/>
        <pt x="704" y="421" on="1"/>
        <pt x="698" y="424" on="0"/>
        <pt x="695" y="444" on="1"/>
        <pt x="686" y="501" on="0"/>
        <pt x="623" y="593" on="0"/>
        <pt x="579" y="616" on="1"/>
        <pt x="540" y="635" on="0"/>
        <pt x="495" y="635" on="1"/>
        <pt x="365" y="635" on="0"/>
        <pt x="295" y="563" on="1"/>
        <pt x="261" y="528" on="0"/>
        <pt x="232" y="425" on="0"/>
        <pt x="232" y="261" on="0"/>
        <pt x="261" y="158" on="0"/>
        <pt x="295" y="123" on="1"/>
        <pt x="365" y="51" on="0"/>
        <pt x="498" y="51" on="1"/>
        <pt x="538" y="51" on="0"/>
        <pt x="601" y="81" on="0"/>
        <pt x="607" y="108" on="1"/>
        <pt x="608" y="111" on="0"/>
        <pt x="608" y="164" on="1"/>
        <pt x="608" y="214" on="1"/>
        <pt x="464" y="214" on="1"/>
        <pt x="464" y="276" on="1"/>
        <pt x="479" y="276" on="1"/>
        <pt x="507" y="273" on="0"/>
        <pt x="680" y="273" on="1"/>
        <pt x="692" y="273" on="0"/>
        <pt x="741" y="274" on="0"/>
        <pt x="769" y="274" on="0"/>
        <pt x="810" y="275" on="0"/>
        <pt x="831" y="276" on="0"/>
        <pt x="834" y="276" on="1"/>
        <pt x="845" y="276" on="1"/>
        <pt x="845" y="214" on="1"/>
        <pt x="765" y="214" on="1"/>
        <pt x="765" y="113" on="1"/>
        <pt x="765" y="29" on="0"/>
        <pt x="763" y="5" on="0"/>
        <pt x="758" y="2" on="1"/>
        <pt x="755" y="0" on="0"/>
        <pt x="750" y="0" on="1"/>
        <pt x="739" y="2" on="0"/>
        <pt x="673" y="31" on="0"/>
        <pt x="658" y="40" on="1"/>
      </contour>
    </TTGlyph>
    <TTGlyph name="Gamma" xMin="39" yMin="0" xMax="643" yMax="680">
      <contour>
        <pt x="425" y="0" on="1"/>
        <pt x="405" y="3" on="0"/>
        <pt x="228" y="3" on="1"/>
        <pt x="72" y="3" on="0"/>
        <pt x="51" y="0" on="1"/>
        <pt x="39" y="0" on="1"/>
        <pt x="39" y="62" on="1"/>
        <pt x="147" y="62" on="1"/>
        <pt x="147" y="618" on="1"/>
        <pt x="39" y="618" on="1"/>
        <pt x="39" y="680" on="1"/>
        <pt x="612" y="680" on="1"/>
        <pt x="612" y="676" on="1"/>
        <pt x="614" y="670" on="0"/>
        <pt x="640" y="434" on="0"/>
        <pt x="643" y="428" on="1"/>
        <pt x="643" y="424" on="1"/>
        <pt x="581" y="424" on="1"/>
        <pt x="581" y="428" on="1"/>
        <pt x="581" y="429" on="0"/>
        <pt x="579" y="436" on="0"/>
        <pt x="578" y="448" on="0"/>
        <pt x="577" y="452" on="1"/>
        <pt x="566" y="541" on="0"/>
        <pt x="532" y="576" on="1"/>
        <pt x="501" y="607" on="0"/>
        <pt x="448" y="614" on="1"/>
        <pt x="423" y="618" on="0"/>
        <pt x="357" y="618" on="1"/>
        <pt x="304" y="618" on="1"/>
        <pt x="304" y="62" on="1"/>
        <pt x="439" y="62" on="1"/>
        <pt x="439" y="0" on="1"/>
      </contour>
    </TTGlyph>
    <TTGlyph name="H" xMin="39" yMin="0" xMax="860" yMax="686">
      <contour>
        <pt x="400" y="0" on="1"/>
        <pt x="380" y="3" on="0"/>
        <pt x="226" y="3" on="1"/>
        <pt x="70" y="3" on="0"/>
        <pt x="51" y="0" on="1"/>
        <pt x="39" y="0" on="1"/>
        <pt x="39" y="62" on="1"/>
        <pt x="147" y="62" on="1"/>
        <pt x="147" y="624" on="1"/>
        <pt x="39" y="624" on="1"/>
        <pt x="39" y="686" on="1"/>
        <pt x="51" y="686" on="1"/>
        <pt x="70" y="683" on="0"/>
        <pt x="226" y="683" on="1"/>
        <pt x="380" y="683" on="0"/>
        <pt x="400" y="686" on="1"/>
        <pt x="412" y="686" on="1"/>
        <pt x="412" y="624" on="1"/>
        <pt x="304" y="624" on="1"/>
        <pt x="304" y="388" on="1"/>
        <pt x="595" y="388" on="1"/>
        <pt x="595" y="624" on="1"/>
        <pt x="487" y="624" on="1"/>
        <pt x="487" y="686" on="1"/>
        <pt x="499" y="686" on="1"/>
        <pt x="519" y="683" on="0"/>
        <pt x="673" y="683" on="1"/>
        <pt x="829" y="683" on="0"/>
        <pt x="848" y="686" on="1"/>
        <pt x="860" y="686" on="1"/>
        <pt x="860" y="624" on="1"/>
        <pt x="752" y="624" on="1"/>
        <pt x="752" y="62" on="1"/>
        <pt x="860" y="62" on="1"/>
        <pt x="860" y="0" on="1"/>
        <pt x="848" y="0" on="1"/>
        <pt x="828" y="3" on="0"/>
        <pt x="674" y="3" on="1"/>
        <pt x="518" y="3" on="0"/>
        <pt x="499" y="0" on="1"/>
        <pt x="487" y="0" on="1"/>
        <pt x="487" y="62" on="1"/>
        <pt x="595" y="62" on="1"/>
        <pt x="595" y="326" on="1"/>
        <pt x="304" y="326" on="1"/>
        <pt x="304" y="62" on="1"/>
        <pt x="412" y="62" on="1"/>
        <pt x="412" y="0" on="1"/>
      </contour>
    </TTGlyph>
    <TTGlyph name="I" xMin="25" yMin="0" xMax="410" yMax="686">
      <contour>
        <pt x="397" y="0" on="1"/>
        <pt x="378" y="3" on="0"/>
        <pt x="58" y="3" on="0"/>
        <pt x="38" y="0" on="1"/>
        <pt x="25" y="0" on="1"/>
        <pt x="25" y="62" on="1"/>
        <pt x="139" y="62" on="1"/>
        <pt x="139" y="624" on="1"/>
        <pt x="25" y="624" on="1"/>
        <pt x="25" y="686" on="1"/>
        <pt x="38" y="686" on="1"/>
        <pt x="58" y="683" on="0"/>
        <pt x="218" y="683" on="1"/>
        <pt x="377" y="683" on="0"/>
        <pt x="397" y="686" on="1"/>
        <pt x="410" y="686" on="1"/>
        <pt x="410" y="624" on="1"/>
        <pt x="296" y="624" on="1"/>
        <pt x="296" y="62" on="1"/>
        <pt x="410" y="62" on="1"/>
        <pt x="410" y="0" on="1"/>
      </contour>
    </TTGlyph>
    <TTGlyph name="Ifraktur" xMin="64" yMin="-8" xMax="798" yMax="702">
      <contour>
        <pt x="250" y="701" on="1"/>
        <pt x="251" y="701" on="0"/>
        <pt x="264" y="702" on="0"/>
        <pt x="269" y="702" on="1"/>
        <pt x="273" y="702" on="0"/>
        <pt x="288" y="701" on="0"/>
        <pt x="291" y="701" on="1"/>
        <pt x="364" y="693" on="0"/>
        <pt x="442" y="647" on="1"/>
        <pt x="486" y="620" on="0"/>
        <pt x="550" y="572" on="1"/>
        <pt x="584" y="547" on="0"/>
        <pt x="592" y="542" on="1"/>
        <pt x="602" y="538" on="1"/>
        <pt x="621" y="537" on="1"/>
        <pt x="684" y="537" on="0"/>
        <pt x="706" y="544" on="1"/>
        <pt x="727" y="549" on="0"/>
        <pt x="730" y="560" on="1"/>
        <pt x="732" y="570" on="0"/>
        <pt x="737" y="573" on="1"/>
        <pt x="741" y="575" on="0"/>
        <pt x="787" y="575" on="0"/>
        <pt x="791" y="573" on="1"/>
        <pt x="798" y="569" on="0"/>
        <pt x="798" y="559" on="1"/>
        <pt x="798" y="534" on="0"/>
        <pt x="780" y="519" on="1"/>
        <pt x="754" y="491" on="0"/>
        <pt x="673" y="487" on="1"/>
        <pt x="668" y="487" on="0"/>
        <pt x="632" y="486" on="0"/>
        <pt x="622" y="486" on="1"/>
        <pt x="500" y="486" on="0"/>
        <pt x="436" y="528" on="1"/>
        <pt x="413" y="544" on="0"/>
        <pt x="386" y="572" on="1"/>
        <pt x="338" y="620" on="0"/>
        <pt x="327" y="628" on="1"/>
        <pt x="297" y="651" on="0"/>
        <pt x="264" y="651" on="1"/>
        <pt x="214" y="651" on="0"/>
        <pt x="144" y="578" on="0"/>
        <pt x="134" y="528" on="1"/>
        <pt x="132" y="516" on="0"/>
        <pt x="132" y="501" on="1"/>
        <pt x="132" y="488" on="0"/>
        <pt x="134" y="476" on="1"/>
        <pt x="144" y="422" on="0"/>
        <pt x="244" y="351" on="0"/>
        <pt x="312" y="347" on="1"/>
        <pt x="327" y="346" on="0"/>
        <pt x="333" y="339" on="0"/>
        <pt x="333" y="322" on="1"/>
        <pt x="333" y="303" on="0"/>
        <pt x="327" y="299" on="1"/>
        <pt x="324" y="296" on="0"/>
        <pt x="312" y="296" on="1"/>
        <pt x="220" y="296" on="0"/>
        <pt x="81" y="394" on="0"/>
        <pt x="67" y="467" on="1"/>
        <pt x="65" y="475" on="0"/>
        <pt x="65" y="502" on="1"/>
        <pt x="65" y="561" on="0"/>
        <pt x="98" y="611" on="1"/>
        <pt x="145" y="684" on="0"/>
        <pt x="239" y="700" on="1"/>
        <pt x="243" y="701" on="0"/>
      </contour>
      <contour>
        <pt x="438" y="389" on="1"/>
        <pt x="492" y="443" on="0"/>
        <pt x="598" y="443" on="1"/>
        <pt x="645" y="443" on="0"/>
        <pt x="655" y="442" on="1"/>
        <pt x="755" y="431" on="0"/>
        <pt x="785" y="381" on="1"/>
        <pt x="798" y="360" on="0"/>
        <pt x="798" y="338" on="1"/>
        <pt x="798" y="332" on="0"/>
        <pt x="796" y="328" on="1"/>
        <pt x="794" y="323" on="0"/>
        <pt x="784" y="321" on="0"/>
        <pt x="764" y="321" on="1"/>
        <pt x="741" y="321" on="0"/>
        <pt x="732" y="326" on="0"/>
        <pt x="730" y="338" on="1"/>
        <pt x="729" y="353" on="0"/>
        <pt x="717" y="365" on="1"/>
        <pt x="690" y="392" on="0"/>
        <pt x="618" y="392" on="1"/>
        <pt x="600" y="392" on="0"/>
        <pt x="595" y="390" on="1"/>
        <pt x="561" y="373" on="0"/>
        <pt x="561" y="315" on="1"/>
        <pt x="561" y="291" on="0"/>
        <pt x="577" y="275" on="1"/>
        <pt x="595" y="260" on="0"/>
        <pt x="645" y="240" on="1"/>
        <pt x="691" y="221" on="0"/>
        <pt x="706" y="211" on="1"/>
        <pt x="747" y="185" on="0"/>
        <pt x="747" y="140" on="1"/>
        <pt x="747" y="78" on="0"/>
        <pt x="696" y="39" on="1"/>
        <pt x="667" y="15" on="0"/>
        <pt x="617" y="1" on="1"/>
        <pt x="578" y="-8" on="0"/>
        <pt x="480" y="-8" on="1"/>
        <pt x="393" y="-8" on="0"/>
        <pt x="372" y="-3" on="1"/>
        <pt x="323" y="9" on="0"/>
        <pt x="228" y="74" on="1"/>
        <pt x="175" y="110" on="0"/>
        <pt x="146" y="122" on="1"/>
        <pt x="115" y="134" on="0"/>
        <pt x="86" y="137" on="1"/>
        <pt x="71" y="138" on="0"/>
        <pt x="64" y="146" on="0"/>
        <pt x="64" y="164" on="1"/>
        <pt x="65" y="183" on="0"/>
        <pt x="72" y="186" on="1"/>
        <pt x="75" y="188" on="0"/>
        <pt x="151" y="188" on="1"/>
        <pt x="226" y="187" on="1"/>
        <pt x="238" y="185" on="1"/>
        <pt x="267" y="178" on="0"/>
        <pt x="318" y="152" on="0"/>
        <pt x="350" y="127" on="0"/>
        <pt x="384" y="99" on="1"/>
        <pt x="421" y="69" on="0"/>
        <pt x="443" y="54" on="1"/>
        <pt x="478" y="31" on="0"/>
        <pt x="489" y="31" on="1"/>
        <pt x="490" y="31" on="1"/>
        <pt x="507" y="31" on="0"/>
        <pt x="543" y="54" on="1"/>
        <pt x="589" y="84" on="0"/>
        <pt x="593" y="135" on="1"/>
        <pt x="593" y="155" on="0"/>
        <pt x="580" y="176" on="0"/>
        <pt x="564" y="188" on="1"/>
        <pt x="551" y="197" on="0"/>
        <pt x="507" y="214" on="1"/>
        <pt x="451" y="236" on="0"/>
        <pt x="432" y="255" on="1"/>
        <pt x="406" y="278" on="0"/>
        <pt x="406" y="314" on="1"/>
        <pt x="406" y="357" on="0"/>
      </contour>
    </TTGlyph>
    <TTGlyph name="J" xMin="8" yMin="-11" xMax="527" yMax="686">
      <contour>
        <pt x="174" y="114" on="1"/>
        <pt x="174" y="77" on="0"/>
        <pt x="144" y="47" on="1"/>
        <pt x="155" y="45" on="1"/>
        <pt x="183" y="40" on="0"/>
        <pt x="203" y="40" on="1"/>
        <pt x="271" y="40" on="0"/>
        <pt x="290" y="104" on="1"/>
        <pt x="294" y="118" on="0"/>
        <pt x="295" y="183" on="0"/>
        <pt x="295" y="380" on="1"/>
        <pt x="295" y="624" on="1"/>
        <pt x="154" y="624" on="1"/>
        <pt x="154" y="686" on="1"/>
        <pt x="169" y="686" on="1"/>
        <pt x="196" y="683" on="0"/>
        <pt x="365" y="683" on="1"/>
        <pt x="377" y="683" on="0"/>
        <pt x="425" y="684" on="0"/>
        <pt x="438" y="684" on="1"/>
        <pt x="452" y="684" on="0"/>
        <pt x="493" y="685" on="0"/>
        <pt x="514" y="686" on="0"/>
        <pt x="517" y="686" on="1"/>
        <pt x="527" y="686" on="1"/>
        <pt x="527" y="624" on="1"/>
        <pt x="446" y="624" on="1"/>
        <pt x="446" y="379" on="1"/>
        <pt x="446" y="183" on="0"/>
        <pt x="445" y="123" on="0"/>
        <pt x="441" y="108" on="1"/>
        <pt x="412" y="32" on="0"/>
        <pt x="315" y="2" on="1"/>
        <pt x="266" y="-11" on="0"/>
        <pt x="208" y="-11" on="1"/>
        <pt x="77" y="-11" on="0"/>
        <pt x="29" y="50" on="1"/>
        <pt x="8" y="75" on="0"/>
        <pt x="8" y="114" on="1"/>
        <pt x="8" y="122" on="1"/>
        <pt x="8" y="155" on="0"/>
        <pt x="58" y="198" on="0"/>
        <pt x="124" y="198" on="0"/>
        <pt x="174" y="155" on="0"/>
        <pt x="174" y="122" on="1"/>
      </contour>
    </TTGlyph>
    <TTGlyph name="K" xMin="39" yMin="0" xMax="852" yMax="686">
      <contour>
        <pt x="400" y="0" on="1"/>
        <pt x="380" y="3" on="0"/>
        <pt x="226" y="3" on="1"/>
        <pt x="70" y="3" on="0"/>
        <pt x="51" y="0" on="1"/>
        <pt x="39" y="0" on="1"/>
        <pt x="39" y="62" on="1"/>
        <pt x="147" y="62" on="1"/>
        <pt x="147" y="624" on="1"/>
        <pt x="39" y="624" on="1"/>
        <pt x="39" y="686" on="1"/>
        <pt x="51" y="686" on="1"/>
        <pt x="70" y="683" on="0"/>
        <pt x="226" y="683" on="1"/>
        <pt x="380" y="683" on="0"/>
        <pt x="400" y="686" on="1"/>
        <pt x="412" y="686" on="1"/>
        <pt x="412" y="624" on="1"/>
        <pt x="304" y="624" on="1"/>
        <pt x="304" y="338" on="1"/>
        <pt x="308" y="340" on="0"/>
        <pt x="472" y="483" on="1"/>
        <pt x="634" y="624" on="1"/>
        <pt x="565" y="624" on="1"/>
        <pt x="565" y="686" on="1"/>
        <pt x="576" y="686" on="1"/>
        <pt x="594" y="683" on="0"/>
        <pt x="728" y="683" on="1"/>
        <pt x="737" y="683" on="0"/>
        <pt x="769" y="684" on="0"/>
        <pt x="787" y="684" on="0"/>
        <pt x="813" y="685" on="0"/>
        <pt x="827" y="686" on="0"/>
        <pt x="829" y="686" on="1"/>
        <pt x="836" y="686" on="1"/>
        <pt x="836" y="624" on="1"/>
        <pt x="730" y="624" on="1"/>
        <pt x="614" y="524" on="1"/>
        <pt x="507" y="432" on="0"/>
        <pt x="497" y="422" on="1"/>
        <pt x="496" y="422" on="0"/>
        <pt x="501" y="414" on="0"/>
        <pt x="528" y="376" on="0"/>
        <pt x="579" y="307" on="0"/>
        <pt x="627" y="241" on="1"/>
        <pt x="759" y="63" on="1"/>
        <pt x="805" y="62" on="1"/>
        <pt x="852" y="62" on="1"/>
        <pt x="852" y="0" on="1"/>
        <pt x="842" y="0" on="1"/>
        <pt x="824" y="3" on="0"/>
        <pt x="701" y="3" on="1"/>
        <pt x="552" y="3" on="0"/>
        <pt x="526" y="0" on="1"/>
        <pt x="513" y="0" on="1"/>
        <pt x="513" y="62" on="1"/>
        <pt x="549" y="62" on="1"/>
        <pt x="584" y="62" on="0"/>
        <pt x="584" y="63" on="1"/>
        <pt x="583" y="65" on="0"/>
        <pt x="389" y="328" on="0"/>
        <pt x="388" y="328" on="1"/>
        <pt x="368" y="311" on="0"/>
        <pt x="346" y="292" on="1"/>
        <pt x="304" y="256" on="1"/>
        <pt x="304" y="62" on="1"/>
        <pt x="412" y="62" on="1"/>
        <pt x="412" y="0" on="1"/>
      </contour>
    </TTGlyph>
    <TTGlyph name="L" xMin="39" yMin="0" xMax="643" yMax="686">
      <contour>
        <pt x="643" y="285" on="1"/>
        <pt x="612" y="4" on="1"/>
        <pt x="612" y="0" on="1"/>
        <pt x="39" y="0" on="1"/>
        <pt x="39" y="62" on="1"/>
        <pt x="147" y="62" on="1"/>
        <pt x="147" y="624" on="1"/>
        <pt x="39" y="624" on="1"/>
        <pt x="39" y="686" on="1"/>
        <pt x="51" y="686" on="1"/>
        <pt x="72" y="683" on="0"/>
        <pt x="228" y="683" on="1"/>
        <pt x="404" y="683" on="0"/>
        <pt x="425" y="686" on="1"/>
        <pt x="439" y="686" on="1"/>
        <pt x="439" y="624" on="1"/>
        <pt x="304" y="624" on="1"/>
        <pt x="304" y="62" on="1"/>
        <pt x="352" y="62" on="1"/>
        <pt x="405" y="62" on="0"/>
        <pt x="411" y="63" on="1"/>
        <pt x="498" y="72" on="0"/>
        <pt x="539" y="138" on="1"/>
        <pt x="569" y="183" on="0"/>
        <pt x="580" y="283" on="1"/>
        <pt x="581" y="289" on="1"/>
        <pt x="643" y="289" on="1"/>
      </contour>
    </TTGlyph>
    <TTGlyph name="Lambda" xMin="40" yMin="0" xMax="765" yMax="698">
      <contour>
        <pt x="285" y="0" on="1"/>
        <pt x="267" y="3" on="0"/>
        <pt x="154" y="3" on="1"/>
        <pt x="59" y="3" on="0"/>
        <pt x="47" y="0" on="1"/>
        <pt x="40" y="0" on="1"/>
        <pt x="40" y="62" on="1"/>
        <pt x="131" y="62" on="1"/>
        <pt x="132" y="65" on="0"/>
        <pt x="356" y="672" on="0"/>
        <pt x="359" y="678" on="1"/>
        <pt x="364" y="692" on="0"/>
        <pt x="378" y="697" on="1"/>
        <pt x="379" y="698" on="0"/>
        <pt x="404" y="698" on="1"/>
        <pt x="426" y="698" on="0"/>
        <pt x="432" y="695" on="1"/>
        <pt x="441" y="690" on="0"/>
        <pt x="446" y="678" on="1"/>
        <pt x="449" y="670" on="0"/>
        <pt x="673" y="65" on="0"/>
        <pt x="674" y="62" on="1"/>
        <pt x="765" y="62" on="1"/>
        <pt x="765" y="0" on="1"/>
        <pt x="754" y="0" on="1"/>
        <pt x="736" y="3" on="0"/>
        <pt x="604" y="3" on="1"/>
        <pt x="447" y="3" on="0"/>
        <pt x="429" y="0" on="1"/>
        <pt x="416" y="0" on="1"/>
        <pt x="416" y="62" on="1"/>
        <pt x="461" y="62" on="1"/>
        <pt x="507" y="63" on="1"/>
        <pt x="431" y="267" on="1"/>
        <pt x="355" y="470" on="1"/>
        <pt x="353" y="468" on="0"/>
        <pt x="279" y="265" on="1"/>
        <pt x="203" y="63" on="1"/>
        <pt x="249" y="62" on="1"/>
        <pt x="294" y="62" on="1"/>
        <pt x="294" y="0" on="1"/>
      </contour>
    </TTGlyph>
    <TTGlyph name="M" xMin="39" yMin="0" xMax="1052" yMax="686">
      <contour>
        <pt x="314" y="0" on="1"/>
        <pt x="300" y="3" on="0"/>
        <pt x="62" y="3" on="0"/>
        <pt x="48" y="0" on="1"/>
        <pt x="39" y="0" on="1"/>
        <pt x="39" y="62" on="1"/>
        <pt x="147" y="62" on="1"/>
        <pt x="147" y="624" on="1"/>
        <pt x="39" y="624" on="1"/>
        <pt x="39" y="686" on="1"/>
        <pt x="305" y="686" on="1"/>
        <pt x="310" y="683" on="1"/>
        <pt x="318" y="678" on="0"/>
        <pt x="345" y="620" on="0"/>
        <pt x="434" y="414" on="1"/>
        <pt x="546" y="157" on="1"/>
        <pt x="597" y="273" on="0"/>
        <pt x="658" y="414" on="1"/>
        <pt x="747" y="620" on="0"/>
        <pt x="774" y="678" on="0"/>
        <pt x="782" y="683" on="1"/>
        <pt x="788" y="686" on="1"/>
        <pt x="1052" y="686" on="1"/>
        <pt x="1052" y="624" on="1"/>
        <pt x="944" y="624" on="1"/>
        <pt x="944" y="62" on="1"/>
        <pt x="1052" y="62" on="1"/>
        <pt x="1052" y="0" on="1"/>
        <pt x="1040" y="0" on="1"/>
        <pt x="1023" y="3" on="0"/>
        <pt x="725" y="3" on="0"/>
        <pt x="708" y="0" on="1"/>
        <pt x="696" y="0" on="1"/>
        <pt x="696" y="62" on="1"/>
        <pt x="804" y="62" on="1"/>
        <pt x="804" y="341" on="1"/>
        <pt x="803" y="618" on="1"/>
        <pt x="786" y="580" on="1"/>
        <pt x="770" y="543" on="0"/>
        <pt x="700" y="381" on="0"/>
        <pt x="671" y="315" on="1"/>
        <pt x="540" y="13" on="0"/>
        <pt x="536" y="9" on="1"/>
        <pt x="528" y="1" on="0"/>
        <pt x="507" y="1" on="1"/>
        <pt x="485" y="1" on="0"/>
        <pt x="477" y="9" on="1"/>
        <pt x="228" y="603" on="0"/>
        <pt x="217" y="603" on="1"/>
        <pt x="215" y="603" on="0"/>
        <pt x="215" y="334" on="1"/>
        <pt x="215" y="62" on="1"/>
        <pt x="323" y="62" on="1"/>
        <pt x="323" y="0" on="1"/>
      </contour>
    </TTGlyph>
    <TTGlyph name="N" xMin="39" yMin="0" xMax="860" yMax="686">
      <contour>
        <pt x="314" y="0" on="1"/>
        <pt x="300" y="3" on="0"/>
        <pt x="62" y="3" on="0"/>
        <pt x="48" y="0" on="1"/>
        <pt x="39" y="0" on="1"/>
        <pt x="39" y="62" on="1"/>
        <pt x="147" y="62" on="1"/>
        <pt x="147" y="624" on="1"/>
        <pt x="39" y="624" on="1"/>
        <pt x="39" y="686" on="1"/>
        <pt x="171" y="686" on="1"/>
        <pt x="304" y="686" on="0"/>
        <pt x="312" y="682" on="0"/>
        <pt x="315" y="679" on="1"/>
        <pt x="317" y="676" on="0"/>
        <pt x="683" y="234" on="0"/>
        <pt x="684" y="233" on="1"/>
        <pt x="684" y="624" on="1"/>
        <pt x="576" y="624" on="1"/>
        <pt x="576" y="686" on="1"/>
        <pt x="585" y="686" on="1"/>
        <pt x="599" y="683" on="0"/>
        <pt x="837" y="683" on="0"/>
        <pt x="851" y="686" on="1"/>
        <pt x="860" y="686" on="1"/>
        <pt x="860" y="624" on="1"/>
        <pt x="752" y="624" on="1"/>
        <pt x="752" y="319" on="1"/>
        <pt x="752" y="15" on="0"/>
        <pt x="750" y="11" on="1"/>
        <pt x="747" y="4" on="0"/>
        <pt x="737" y="0" on="0"/>
        <pt x="718" y="0" on="1"/>
        <pt x="698" y="0" on="0"/>
        <pt x="694" y="2" on="1"/>
        <pt x="691" y="3" on="0"/>
        <pt x="674" y="23" on="1"/>
        <pt x="671" y="27" on="0"/>
        <pt x="437" y="311" on="1"/>
        <pt x="215" y="579" on="1"/>
        <pt x="215" y="62" on="1"/>
        <pt x="323" y="62" on="1"/>
        <pt x="323" y="0" on="1"/>
      </contour>
    </TTGlyph>
    <TTGlyph name="O" xMin="64" yMin="-10" xMax="798" yMax="696">
      <contour>
        <pt x="242" y="654" on="1"/>
        <pt x="324" y="696" on="0"/>
        <pt x="420" y="696" on="1"/>
        <pt x="469" y="696" on="0"/>
        <pt x="481" y="695" on="1"/>
        <pt x="616" y="680" on="0"/>
        <pt x="780" y="519" on="0"/>
        <pt x="797" y="385" on="1"/>
        <pt x="798" y="375" on="0"/>
        <pt x="798" y="339" on="1"/>
        <pt x="798" y="304" on="0"/>
        <pt x="797" y="294" on="1"/>
        <pt x="782" y="169" on="0"/>
        <pt x="705" y="90" on="1"/>
        <pt x="602" y="-10" on="0"/>
        <pt x="432" y="-10" on="1"/>
        <pt x="393" y="-10" on="0"/>
        <pt x="382" y="-9" on="1"/>
        <pt x="247" y="7" on="0"/>
        <pt x="82" y="163" on="0"/>
        <pt x="66" y="294" on="1"/>
        <pt x="64" y="314" on="0"/>
        <pt x="64" y="339" on="1"/>
        <pt x="64" y="420" on="0"/>
        <pt x="91" y="487" on="1"/>
        <pt x="136" y="602" on="0"/>
      </contour>
      <contour>
        <pt x="587" y="563" on="1"/>
        <pt x="533" y="642" on="0"/>
        <pt x="431" y="642" on="1"/>
        <pt x="330" y="642" on="0"/>
        <pt x="276" y="563" on="1"/>
        <pt x="232" y="494" on="0"/>
        <pt x="232" y="353" on="1"/>
        <pt x="232" y="299" on="0"/>
        <pt x="236" y="267" on="1"/>
        <pt x="253" y="95" on="0"/>
        <pt x="372" y="56" on="1"/>
        <pt x="405" y="46" on="0"/>
        <pt x="432" y="46" on="1"/>
        <pt x="458" y="46" on="0"/>
        <pt x="491" y="56" on="1"/>
        <pt x="610" y="95" on="0"/>
        <pt x="627" y="267" on="1"/>
        <pt x="631" y="299" on="0"/>
        <pt x="631" y="353" on="1"/>
        <pt x="631" y="494" on="0"/>
      </contour>
    </TTGlyph>
    <TTGlyph name="Omega" xMin="51" yMin="0" xMax="779" yMax="696">
      <contour>
        <pt x="253" y="675" on="1"/>
        <pt x="319" y="696" on="0"/>
        <pt x="403" y="696" on="1"/>
        <pt x="489" y="696" on="0"/>
        <pt x="606" y="669" on="0"/>
        <pt x="661" y="638" on="1"/>
        <pt x="754" y="578" on="0"/>
        <pt x="765" y="477" on="1"/>
        <pt x="766" y="472" on="0"/>
        <pt x="766" y="458" on="1"/>
        <pt x="766" y="436" on="0"/>
        <pt x="763" y="421" on="1"/>
        <pt x="752" y="355" on="0"/>
        <pt x="698" y="277" on="1"/>
        <pt x="658" y="227" on="0"/>
        <pt x="614" y="161" on="1"/>
        <pt x="589" y="126" on="0"/>
        <pt x="589" y="119" on="1"/>
        <pt x="589" y="118" on="0"/>
        <pt x="628" y="118" on="1"/>
        <pt x="677" y="119" on="0"/>
        <pt x="690" y="125" on="1"/>
        <pt x="696" y="128" on="0"/>
        <pt x="698" y="133" on="1"/>
        <pt x="704" y="144" on="0"/>
        <pt x="714" y="195" on="1"/>
        <pt x="716" y="211" on="0"/>
        <pt x="717" y="212" on="1"/>
        <pt x="717" y="215" on="1"/>
        <pt x="779" y="215" on="1"/>
        <pt x="779" y="212" on="1"/>
        <pt x="778" y="211" on="0"/>
        <pt x="760" y="108" on="1"/>
        <pt x="744" y="5" on="0"/>
        <pt x="742" y="3" on="1"/>
        <pt x="742" y="0" on="1"/>
        <pt x="634" y="0" on="1"/>
        <pt x="526" y="0" on="0"/>
        <pt x="523" y="2" on="1"/>
        <pt x="512" y="6" on="0"/>
        <pt x="512" y="26" on="1"/>
        <pt x="512" y="40" on="0"/>
        <pt x="513" y="49" on="1"/>
        <pt x="518" y="114" on="0"/>
        <pt x="555" y="242" on="1"/>
        <pt x="583" y="335" on="0"/>
        <pt x="590" y="375" on="1"/>
        <pt x="598" y="421" on="0"/>
        <pt x="598" y="458" on="1"/>
        <pt x="598" y="645" on="0"/>
        <pt x="232" y="645" on="0"/>
        <pt x="232" y="458" on="1"/>
        <pt x="232" y="421" on="0"/>
        <pt x="240" y="375" on="1"/>
        <pt x="247" y="335" on="0"/>
        <pt x="275" y="242" on="1"/>
        <pt x="312" y="114" on="0"/>
        <pt x="317" y="49" on="1"/>
        <pt x="318" y="40" on="0"/>
        <pt x="318" y="26" on="1"/>
        <pt x="318" y="6" on="0"/>
        <pt x="307" y="2" on="1"/>
        <pt x="304" y="0" on="0"/>
        <pt x="196" y="0" on="1"/>
        <pt x="88" y="0" on="1"/>
        <pt x="88" y="3" on="1"/>
        <pt x="86" y="5" on="0"/>
        <pt x="70" y="108" on="1"/>
        <pt x="52" y="211" on="0"/>
        <pt x="51" y="212" on="1"/>
        <pt x="51" y="215" on="1"/>
        <pt x="113" y="215" on="1"/>
        <pt x="113" y="212" on="1"/>
        <pt x="114" y="211" on="0"/>
        <pt x="116" y="195" on="1"/>
        <pt x="126" y="144" on="0"/>
        <pt x="132" y="133" on="1"/>
        <pt x="134" y="128" on="0"/>
        <pt x="140" y="125" on="1"/>
        <pt x="153" y="119" on="0"/>
        <pt x="202" y="118" on="1"/>
        <pt x="241" y="118" on="0"/>
        <pt x="241" y="119" on="1"/>
        <pt x="241" y="126" on="0"/>
        <pt x="216" y="161" on="1"/>
        <pt x="211" y="170" on="0"/>
        <pt x="144" y="263" on="0"/>
        <pt x="132" y="277" on="1"/>
        <pt x="64" y="378" on="0"/>
        <pt x="64" y="457" on="1"/>
        <pt x="64" y="569" on="0"/>
        <pt x="169" y="638" on="1"/>
        <pt x="209" y="664" on="0"/>
      </contour>
    </TTGlyph>
    <TTGlyph name="P" xMin="39" yMin="0" xMax="721" yMax="686">
      <contour>
        <pt x="400" y="0" on="1"/>
        <pt x="380" y="3" on="0"/>
        <pt x="226" y="3" on="1"/>
        <pt x="71" y="3" on="0"/>
        <pt x="51" y="0" on="1"/>
        <pt x="39" y="0" on="1"/>
        <pt x="39" y="62" on="1"/>
        <pt x="147" y="62" on="1"/>
        <pt x="147" y="624" on="1"/>
        <pt x="39" y="624" on="1"/>
        <pt x="39" y="686" on="1"/>
        <pt x="253" y="686" on="1"/>
        <pt x="435" y="686" on="0"/>
        <pt x="506" y="684" on="0"/>
        <pt x="536" y="678" on="1"/>
        <pt x="675" y="650" on="0"/>
        <pt x="711" y="542" on="1"/>
        <pt x="721" y="510" on="0"/>
        <pt x="721" y="483" on="1"/>
        <pt x="721" y="430" on="0"/>
        <pt x="690" y="385" on="1"/>
        <pt x="641" y="313" on="0"/>
        <pt x="530" y="293" on="1"/>
        <pt x="500" y="288" on="0"/>
        <pt x="399" y="287" on="1"/>
        <pt x="304" y="287" on="1"/>
        <pt x="304" y="62" on="1"/>
        <pt x="412" y="62" on="1"/>
        <pt x="412" y="0" on="1"/>
      </contour>
      <contour>
        <pt x="459" y="622" on="1"/>
        <pt x="451" y="623" on="0"/>
        <pt x="373" y="624" on="1"/>
        <pt x="298" y="624" on="1"/>
        <pt x="298" y="343" on="1"/>
        <pt x="372" y="343" on="1"/>
        <pt x="457" y="344" on="0"/>
        <pt x="480" y="350" on="1"/>
        <pt x="526" y="361" on="0"/>
        <pt x="540" y="390" on="1"/>
        <pt x="553" y="415" on="0"/>
        <pt x="553" y="475" on="1"/>
        <pt x="553" y="536" on="0"/>
        <pt x="546" y="561" on="1"/>
        <pt x="540" y="589" on="0"/>
        <pt x="497" y="615" on="0"/>
      </contour>
    </TTGlyph>
    <TTGlyph name="Phi" xMin="64" yMin="0" xMax="766" yMax="686">
      <contour>
        <pt x="609" y="0" on="1"/>
        <pt x="589" y="3" on="0"/>
        <pt x="415" y="3" on="1"/>
        <pt x="242" y="3" on="0"/>
        <pt x="221" y="0" on="1"/>
        <pt x="207" y="0" on="1"/>
        <pt x="207" y="62" on="1"/>
        <pt x="342" y="62" on="1"/>
        <pt x="342" y="168" on="1"/>
        <pt x="328" y="169" on="1"/>
        <pt x="193" y="180" on="0"/>
        <pt x="117" y="241" on="1"/>
        <pt x="64" y="286" on="0"/>
        <pt x="64" y="400" on="0"/>
        <pt x="117" y="445" on="1"/>
        <pt x="193" y="506" on="0"/>
        <pt x="328" y="517" on="1"/>
        <pt x="342" y="518" on="1"/>
        <pt x="342" y="624" on="1"/>
        <pt x="207" y="624" on="1"/>
        <pt x="207" y="686" on="1"/>
        <pt x="221" y="686" on="1"/>
        <pt x="241" y="683" on="0"/>
        <pt x="415" y="683" on="1"/>
        <pt x="588" y="683" on="0"/>
        <pt x="609" y="686" on="1"/>
        <pt x="623" y="686" on="1"/>
        <pt x="623" y="624" on="1"/>
        <pt x="488" y="624" on="1"/>
        <pt x="488" y="518" on="1"/>
        <pt x="502" y="517" on="1"/>
        <pt x="637" y="506" on="0"/>
        <pt x="713" y="445" on="1"/>
        <pt x="766" y="400" on="0"/>
        <pt x="766" y="286" on="0"/>
        <pt x="713" y="241" on="1"/>
        <pt x="637" y="180" on="0"/>
        <pt x="502" y="169" on="1"/>
        <pt x="488" y="168" on="1"/>
        <pt x="488" y="62" on="1"/>
        <pt x="623" y="62" on="1"/>
        <pt x="623" y="0" on="1"/>
      </contour>
      <contour>
        <pt x="342" y="219" on="0"/>
        <pt x="342" y="467" on="0"/>
        <pt x="340" y="467" on="1"/>
        <pt x="328" y="467" on="0"/>
        <pt x="304" y="459" on="1"/>
        <pt x="260" y="445" on="0"/>
        <pt x="226" y="395" on="0"/>
        <pt x="226" y="343" on="1"/>
        <pt x="226" y="292" on="0"/>
        <pt x="259" y="242" on="0"/>
        <pt x="301" y="228" on="1"/>
        <pt x="331" y="219" on="0"/>
        <pt x="341" y="219" on="1"/>
      </contour>
      <contour>
        <pt x="604" y="343" on="1"/>
        <pt x="604" y="401" on="0"/>
        <pt x="556" y="456" on="0"/>
        <pt x="503" y="464" on="1"/>
        <pt x="489" y="467" on="1"/>
        <pt x="488" y="467" on="0"/>
        <pt x="488" y="219" on="0"/>
        <pt x="489" y="219" on="1"/>
        <pt x="499" y="219" on="0"/>
        <pt x="529" y="228" on="1"/>
        <pt x="571" y="242" on="0"/>
        <pt x="604" y="292" on="0"/>
      </contour>
    </TTGlyph>
    <TTGlyph name="Pi" xMin="39" yMin="0" xMax="860" yMax="680">
      <contour>
        <pt x="400" y="0" on="1"/>
        <pt x="380" y="3" on="0"/>
        <pt x="226" y="3" on="1"/>
        <pt x="70" y="3" on="0"/>
        <pt x="51" y="0" on="1"/>
        <pt x="39" y="0" on="1"/>
        <pt x="39" y="62" on="1"/>
        <pt x="147" y="62" on="1"/>
        <pt x="147" y="618" on="1"/>
        <pt x="39" y="618" on="1"/>
        <pt x="39" y="680" on="1"/>
        <pt x="860" y="680" on="1"/>
        <pt x="860" y="618" on="1"/>
        <pt x="752" y="618" on="1"/>
        <pt x="752" y="62" on="1"/>
        <pt x="860" y="62" on="1"/>
        <pt x="860" y="0" on="1"/>
        <pt x="848" y="0" on="1"/>
        <pt x="828" y="3" on="0"/>
        <pt x="674" y="3" on="1"/>
        <pt x="518" y="3" on="0"/>
        <pt x="499" y="0" on="1"/>
        <pt x="487" y="0" on="1"/>
        <pt x="487" y="62" on="1"/>
        <pt x="595" y="62" on="1"/>
        <pt x="595" y="618" on="1"/>
        <pt x="304" y="618" on="1"/>
        <pt x="304" y="62" on="1"/>
        <pt x="412" y="62" on="1"/>
        <pt x="412" y="0" on="1"/>
      </contour>
    </TTGlyph>
    <TTGlyph name="Psi" xMin="64" yMin="0" xMax="829" yMax="686">
      <contour>
        <pt x="641" y="0" on="1"/>
        <pt x="621" y="3" on="0"/>
        <pt x="447" y="3" on="1"/>
        <pt x="274" y="3" on="0"/>
        <pt x="253" y="0" on="1"/>
        <pt x="239" y="0" on="1"/>
        <pt x="239" y="62" on="1"/>
        <pt x="374" y="62" on="1"/>
        <pt x="374" y="168" on="1"/>
        <pt x="364" y="169" on="1"/>
        <pt x="290" y="178" on="0"/>
        <pt x="243" y="203" on="1"/>
        <pt x="125" y="261" on="0"/>
        <pt x="118" y="409" on="1"/>
        <pt x="117" y="463" on="0"/>
        <pt x="100" y="481" on="1"/>
        <pt x="93" y="488" on="0"/>
        <pt x="83" y="489" on="1"/>
        <pt x="72" y="491" on="0"/>
        <pt x="64" y="501" on="0"/>
        <pt x="64" y="515" on="1"/>
        <pt x="64" y="533" on="0"/>
        <pt x="75" y="538" on="1"/>
        <pt x="78" y="540" on="0"/>
        <pt x="200" y="540" on="0"/>
        <pt x="207" y="538" on="1"/>
        <pt x="252" y="526" on="0"/>
        <pt x="261" y="456" on="1"/>
        <pt x="262" y="450" on="0"/>
        <pt x="264" y="414" on="1"/>
        <pt x="264" y="310" on="0"/>
        <pt x="312" y="262" on="1"/>
        <pt x="330" y="244" on="0"/>
        <pt x="347" y="237" on="1"/>
        <pt x="369" y="226" on="0"/>
        <pt x="373" y="226" on="1"/>
        <pt x="374" y="226" on="0"/>
        <pt x="374" y="425" on="1"/>
        <pt x="374" y="624" on="1"/>
        <pt x="239" y="624" on="1"/>
        <pt x="239" y="686" on="1"/>
        <pt x="253" y="686" on="1"/>
        <pt x="273" y="683" on="0"/>
        <pt x="447" y="683" on="1"/>
        <pt x="620" y="683" on="0"/>
        <pt x="641" y="686" on="1"/>
        <pt x="655" y="686" on="1"/>
        <pt x="655" y="624" on="1"/>
        <pt x="520" y="624" on="1"/>
        <pt x="520" y="226" on="1"/>
        <pt x="522" y="227" on="1"/>
        <pt x="525" y="227" on="0"/>
        <pt x="535" y="232" on="1"/>
        <pt x="583" y="251" on="0"/>
        <pt x="627" y="339" on="0"/>
        <pt x="629" y="413" on="1"/>
        <pt x="631" y="449" on="0"/>
        <pt x="632" y="456" on="1"/>
        <pt x="641" y="526" on="0"/>
        <pt x="686" y="538" on="1"/>
        <pt x="693" y="540" on="0"/>
        <pt x="815" y="540" on="0"/>
        <pt x="819" y="538" on="1"/>
        <pt x="829" y="533" on="0"/>
        <pt x="829" y="515" on="1"/>
        <pt x="829" y="501" on="0"/>
        <pt x="821" y="491" on="0"/>
        <pt x="810" y="489" on="1"/>
        <pt x="800" y="488" on="0"/>
        <pt x="793" y="481" on="1"/>
        <pt x="776" y="463" on="0"/>
        <pt x="775" y="408" on="1"/>
        <pt x="770" y="263" on="0"/>
        <pt x="650" y="202" on="1"/>
        <pt x="608" y="182" on="0"/>
        <pt x="568" y="175" on="1"/>
        <pt x="526" y="168" on="0"/>
        <pt x="521" y="168" on="1"/>
        <pt x="520" y="168" on="0"/>
        <pt x="520" y="115" on="1"/>
        <pt x="520" y="62" on="1"/>
        <pt x="655" y="62" on="1"/>
        <pt x="655" y="0" on="1"/>
      </contour>
    </TTGlyph>
    <TTGlyph name="Q" xMin="64" yMin="-193" xMax="805" yMax="696">
      <contour>
        <pt x="787" y="18" on="1"/>
        <pt x="798" y="18" on="0"/>
        <pt x="805" y="4" on="0"/>
        <pt x="805" y="-13" on="1"/>
        <pt x="803" y="-64" on="0"/>
        <pt x="766" y="-149" on="0"/>
        <pt x="737" y="-171" on="1"/>
        <pt x="720" y="-183" on="0"/>
        <pt x="697" y="-191" on="1"/>
        <pt x="687" y="-193" on="0"/>
        <pt x="668" y="-193" on="1"/>
        <pt x="599" y="-193" on="0"/>
        <pt x="564" y="-124" on="1"/>
        <pt x="551" y="-98" on="0"/>
        <pt x="532" y="-27" on="1"/>
        <pt x="531" y="-23" on="0"/>
        <pt x="528" y="-10" on="0"/>
        <pt x="527" y="-6" on="1"/>
        <pt x="526" y="-3" on="1"/>
        <pt x="526" y="-3" on="0"/>
        <pt x="511" y="-4" on="1"/>
        <pt x="477" y="-10" on="0"/>
        <pt x="431" y="-10" on="1"/>
        <pt x="393" y="-10" on="0"/>
        <pt x="382" y="-9" on="1"/>
        <pt x="247" y="7" on="0"/>
        <pt x="82" y="163" on="0"/>
        <pt x="66" y="294" on="1"/>
        <pt x="64" y="314" on="0"/>
        <pt x="64" y="339" on="1"/>
        <pt x="64" y="420" on="0"/>
        <pt x="91" y="487" on="1"/>
        <pt x="127" y="578" on="0"/>
        <pt x="284" y="686" on="0"/>
        <pt x="398" y="696" on="1"/>
        <pt x="420" y="696" on="1"/>
        <pt x="469" y="696" on="0"/>
        <pt x="481" y="695" on="1"/>
        <pt x="616" y="680" on="0"/>
        <pt x="780" y="519" on="0"/>
        <pt x="797" y="385" on="1"/>
        <pt x="798" y="375" on="0"/>
        <pt x="798" y="339" on="1"/>
        <pt x="798" y="257" on="0"/>
        <pt x="768" y="184" on="1"/>
        <pt x="720" y="77" on="0"/>
        <pt x="611" y="26" on="1"/>
        <pt x="600" y="21" on="1"/>
        <pt x="622" y="-7" on="0"/>
        <pt x="644" y="-18" on="1"/>
        <pt x="659" y="-26" on="0"/>
        <pt x="696" y="-26" on="1"/>
        <pt x="769" y="-26" on="0"/>
        <pt x="769" y="0" on="1"/>
        <pt x="769" y="8" on="0"/>
        <pt x="780" y="18" on="0"/>
      </contour>
      <contour>
        <pt x="548" y="604" on="1"/>
        <pt x="500" y="641" on="0"/>
        <pt x="425" y="641" on="1"/>
        <pt x="376" y="641" on="0"/>
        <pt x="333" y="616" on="1"/>
        <pt x="285" y="587" on="0"/>
        <pt x="259" y="535" on="1"/>
        <pt x="226" y="469" on="0"/>
        <pt x="226" y="338" on="1"/>
        <pt x="226" y="239" on="0"/>
        <pt x="267" y="114" on="0"/>
        <pt x="318" y="79" on="1"/>
        <pt x="325" y="74" on="1"/>
        <pt x="326" y="74" on="0"/>
        <pt x="326" y="80" on="1"/>
        <pt x="326" y="93" on="0"/>
        <pt x="333" y="109" on="1"/>
        <pt x="344" y="133" on="0"/>
        <pt x="396" y="163" on="0"/>
        <pt x="430" y="163" on="1"/>
        <pt x="492" y="163" on="0"/>
        <pt x="542" y="100" on="1"/>
        <pt x="553" y="86" on="1"/>
        <pt x="554" y="85" on="0"/>
        <pt x="568" y="98" on="0"/>
        <pt x="578" y="108" on="1"/>
        <pt x="637" y="180" on="0"/>
        <pt x="637" y="330" on="1"/>
        <pt x="637" y="379" on="0"/>
        <pt x="633" y="423" on="1"/>
        <pt x="621" y="551" on="0"/>
      </contour>
      <contour>
        <pt x="506" y="58" on="1"/>
        <pt x="493" y="85" on="0"/>
        <pt x="461" y="112" on="0"/>
        <pt x="433" y="112" on="1"/>
        <pt x="378" y="112" on="0"/>
        <pt x="378" y="77" on="1"/>
        <pt x="378" y="44" on="0"/>
        <pt x="431" y="44" on="1"/>
        <pt x="476" y="44" on="0"/>
      </contour>
    </TTGlyph>
    <TTGlyph name="R" xMin="39" yMin="-11" xMax="858" yMax="686">
      <contour>
        <pt x="394" y="0" on="1"/>
        <pt x="375" y="3" on="0"/>
        <pt x="222" y="3" on="1"/>
        <pt x="70" y="3" on="0"/>
        <pt x="51" y="0" on="1"/>
        <pt x="39" y="0" on="1"/>
        <pt x="39" y="62" on="1"/>
        <pt x="147" y="62" on="1"/>
        <pt x="147" y="624" on="1"/>
        <pt x="39" y="624" on="1"/>
        <pt x="39" y="686" on="1"/>
        <pt x="234" y="686" on="1"/>
        <pt x="450" y="686" on="0"/>
        <pt x="483" y="682" on="1"/>
        <pt x="613" y="668" on="0"/>
        <pt x="681" y="593" on="1"/>
        <pt x="716" y="550" on="0"/>
        <pt x="716" y="497" on="1"/>
        <pt x="716" y="478" on="0"/>
        <pt x="715" y="472" on="1"/>
        <pt x="704" y="423" on="0"/>
        <pt x="661" y="386" on="1"/>
        <pt x="626" y="358" on="0"/>
        <pt x="568" y="338" on="1"/>
        <pt x="569" y="337" on="0"/>
        <pt x="575" y="334" on="0"/>
        <pt x="577" y="332" on="1"/>
        <pt x="644" y="297" on="0"/>
        <pt x="659" y="233" on="1"/>
        <pt x="663" y="220" on="0"/>
        <pt x="668" y="172" on="1"/>
        <pt x="676" y="109" on="0"/>
        <pt x="682" y="92" on="1"/>
        <pt x="700" y="40" on="0"/>
        <pt x="748" y="40" on="1"/>
        <pt x="768" y="40" on="0"/>
        <pt x="793" y="70" on="0"/>
        <pt x="795" y="91" on="1"/>
        <pt x="796" y="104" on="0"/>
        <pt x="801" y="111" on="1"/>
        <pt x="805" y="117" on="0"/>
        <pt x="849" y="117" on="0"/>
        <pt x="853" y="111" on="1"/>
        <pt x="858" y="105" on="0"/>
        <pt x="858" y="92" on="1"/>
        <pt x="856" y="53" on="0"/>
        <pt x="803" y="-3" on="0"/>
        <pt x="764" y="-10" on="1"/>
        <pt x="760" y="-11" on="0"/>
        <pt x="739" y="-11" on="1"/>
        <pt x="575" y="-11" on="0"/>
        <pt x="528" y="53" on="1"/>
        <pt x="518" y="68" on="0"/>
        <pt x="511" y="87" on="1"/>
        <pt x="506" y="104" on="0"/>
        <pt x="506" y="168" on="1"/>
        <pt x="506" y="230" on="0"/>
        <pt x="500" y="248" on="1"/>
        <pt x="484" y="297" on="0"/>
        <pt x="438" y="313" on="1"/>
        <pt x="424" y="318" on="0"/>
        <pt x="356" y="318" on="1"/>
        <pt x="298" y="318" on="1"/>
        <pt x="298" y="62" on="1"/>
        <pt x="406" y="62" on="1"/>
        <pt x="406" y="0" on="1"/>
      </contour>
      <contour>
        <pt x="513" y="600" on="1"/>
        <pt x="479" y="624" on="0"/>
        <pt x="396" y="624" on="1"/>
        <pt x="358" y="624" on="1"/>
        <pt x="298" y="624" on="1"/>
        <pt x="298" y="369" on="1"/>
        <pt x="366" y="369" on="1"/>
        <pt x="444" y="370" on="0"/>
        <pt x="465" y="375" on="1"/>
        <pt x="548" y="389" on="0"/>
        <pt x="548" y="476" on="1"/>
        <pt x="548" y="498" on="1"/>
        <pt x="548" y="546" on="0"/>
        <pt x="542" y="563" on="1"/>
        <pt x="533" y="587" on="0"/>
      </contour>
    </TTGlyph>
    <TTGlyph name="Rfraktur" xMin="42" yMin="-16" xMax="824" yMax="711">
      <contour>
        <pt x="59" y="124" on="1"/>
        <pt x="59" y="130" on="0"/>
        <pt x="90" y="162" on="0"/>
        <pt x="98" y="162" on="1"/>
        <pt x="103" y="162" on="0"/>
        <pt x="109" y="155" on="1"/>
        <pt x="109" y="153" on="0"/>
        <pt x="118" y="133" on="0"/>
        <pt x="119" y="133" on="1"/>
        <pt x="123" y="133" on="0"/>
        <pt x="124" y="132" on="1"/>
        <pt x="127" y="132" on="0"/>
        <pt x="148" y="110" on="0"/>
        <pt x="149" y="107" on="1"/>
        <pt x="155" y="94" on="0"/>
        <pt x="133" y="87" on="1"/>
        <pt x="136" y="82" on="1"/>
        <pt x="155" y="43" on="0"/>
        <pt x="206" y="35" on="1"/>
        <pt x="223" y="32" on="0"/>
        <pt x="230" y="36" on="1"/>
        <pt x="238" y="41" on="0"/>
        <pt x="248" y="97" on="0"/>
        <pt x="248" y="127" on="1"/>
        <pt x="248" y="168" on="0"/>
        <pt x="245" y="193" on="1"/>
        <pt x="243" y="218" on="0"/>
        <pt x="243" y="302" on="1"/>
        <pt x="243" y="422" on="1"/>
        <pt x="243" y="590" on="0"/>
        <pt x="234" y="612" on="1"/>
        <pt x="219" y="651" on="0"/>
        <pt x="190" y="651" on="1"/>
        <pt x="165" y="651" on="0"/>
        <pt x="134" y="609" on="0"/>
        <pt x="134" y="580" on="1"/>
        <pt x="134" y="566" on="0"/>
        <pt x="144" y="551" on="0"/>
        <pt x="163" y="532" on="1"/>
        <pt x="192" y="501" on="0"/>
        <pt x="206" y="474" on="1"/>
        <pt x="223" y="443" on="0"/>
        <pt x="223" y="394" on="1"/>
        <pt x="218" y="243" on="0"/>
        <pt x="131" y="243" on="1"/>
        <pt x="102" y="243" on="0"/>
        <pt x="66" y="288" on="0"/>
        <pt x="64" y="319" on="1"/>
        <pt x="64" y="333" on="0"/>
        <pt x="70" y="338" on="1"/>
        <pt x="74" y="340" on="0"/>
        <pt x="116" y="340" on="0"/>
        <pt x="120" y="338" on="1"/>
        <pt x="126" y="333" on="0"/>
        <pt x="126" y="317" on="1"/>
        <pt x="128" y="297" on="0"/>
        <pt x="131" y="295" on="1"/>
        <pt x="135" y="293" on="0"/>
        <pt x="144" y="307" on="0"/>
        <pt x="146" y="318" on="1"/>
        <pt x="150" y="339" on="0"/>
        <pt x="150" y="382" on="1"/>
        <pt x="151" y="413" on="1"/>
        <pt x="139" y="441" on="0"/>
        <pt x="110" y="476" on="1"/>
        <pt x="64" y="527" on="0"/>
        <pt x="64" y="572" on="1"/>
        <pt x="64" y="626" on="0"/>
        <pt x="139" y="702" on="0"/>
        <pt x="197" y="702" on="1"/>
        <pt x="283" y="702" on="0"/>
        <pt x="339" y="634" on="1"/>
        <pt x="363" y="658" on="0"/>
        <pt x="402" y="673" on="1"/>
        <pt x="475" y="704" on="0"/>
        <pt x="610" y="710" on="1"/>
        <pt x="615" y="710" on="0"/>
        <pt x="645" y="711" on="0"/>
        <pt x="651" y="711" on="1"/>
        <pt x="673" y="711" on="0"/>
        <pt x="677" y="709" on="1"/>
        <pt x="682" y="706" on="0"/>
        <pt x="736" y="607" on="1"/>
        <pt x="824" y="448" on="0"/>
        <pt x="824" y="444" on="1"/>
        <pt x="824" y="437" on="0"/>
        <pt x="817" y="432" on="1"/>
        <pt x="811" y="428" on="0"/>
        <pt x="696" y="365" on="0"/>
        <pt x="686" y="360" on="1"/>
        <pt x="685" y="359" on="0"/>
        <pt x="667" y="352" on="0"/>
        <pt x="654" y="345" on="0"/>
        <pt x="654" y="343" on="0"/>
        <pt x="661" y="234" on="0"/>
        <pt x="669" y="120" on="0"/>
        <pt x="670" y="115" on="1"/>
        <pt x="676" y="78" on="0"/>
        <pt x="708" y="46" on="1"/>
        <pt x="735" y="69" on="1"/>
        <pt x="762" y="93" on="0"/>
        <pt x="776" y="93" on="0"/>
        <pt x="812" y="72" on="0"/>
        <pt x="812" y="62" on="1"/>
        <pt x="812" y="57" on="0"/>
        <pt x="798" y="45" on="0"/>
        <pt x="759" y="18" on="1"/>
        <pt x="710" y="-16" on="1"/>
        <pt x="680" y="-16" on="1"/>
        <pt x="649" y="-16" on="0"/>
        <pt x="640" y="-14" on="1"/>
        <pt x="591" y="-3" on="0"/>
        <pt x="525" y="65" on="0"/>
        <pt x="515" y="114" on="1"/>
        <pt x="514" y="118" on="0"/>
        <pt x="501" y="319" on="0"/>
        <pt x="501" y="326" on="1"/>
        <pt x="501" y="330" on="1"/>
        <pt x="397" y="330" on="1"/>
        <pt x="397" y="281" on="1"/>
        <pt x="397" y="225" on="0"/>
        <pt x="396" y="217" on="1"/>
        <pt x="389" y="91" on="0"/>
        <pt x="327" y="28" on="1"/>
        <pt x="303" y="5" on="0"/>
        <pt x="256" y="-16" on="0"/>
        <pt x="220" y="-16" on="1"/>
        <pt x="146" y="-16" on="0"/>
        <pt x="105" y="20" on="1"/>
        <pt x="82" y="41" on="0"/>
        <pt x="78" y="68" on="1"/>
        <pt x="74" y="67" on="1"/>
        <pt x="66" y="67" on="0"/>
        <pt x="56" y="76" on="1"/>
        <pt x="42" y="90" on="0"/>
        <pt x="42" y="97" on="1"/>
        <pt x="42" y="108" on="0"/>
        <pt x="55" y="111" on="1"/>
        <pt x="60" y="113" on="0"/>
        <pt x="60" y="114" on="1"/>
        <pt x="60" y="119" on="1"/>
        <pt x="60" y="120" on="0"/>
        <pt x="60" y="122" on="1"/>
      </contour>
      <contour>
        <pt x="602" y="532" on="1"/>
        <pt x="540" y="644" on="1"/>
        <pt x="535" y="644" on="1"/>
        <pt x="517" y="644" on="0"/>
        <pt x="487" y="637" on="1"/>
        <pt x="402" y="624" on="0"/>
        <pt x="371" y="582" on="1"/>
        <pt x="376" y="571" on="1"/>
        <pt x="396" y="511" on="0"/>
        <pt x="397" y="435" on="1"/>
        <pt x="397" y="392" on="1"/>
        <pt x="494" y="392" on="1"/>
        <pt x="598" y="393" on="0"/>
        <pt x="610" y="396" on="1"/>
        <pt x="611" y="397" on="0"/>
        <pt x="615" y="398" on="1"/>
        <pt x="626" y="401" on="0"/>
        <pt x="664" y="417" on="0"/>
        <pt x="664" y="419" on="1"/>
        <pt x="636" y="470" on="0"/>
      </contour>
    </TTGlyph>
    <TTGlyph name="S" xMin="64" yMin="-11" xMax="574" yMax="697">
      <contour>
        <pt x="345" y="51" on="1"/>
        <pt x="400" y="51" on="0"/>
        <pt x="460" y="105" on="0"/>
        <pt x="460" y="157" on="1"/>
        <pt x="460" y="231" on="0"/>
        <pt x="388" y="257" on="1"/>
        <pt x="384" y="259" on="0"/>
        <pt x="224" y="294" on="0"/>
        <pt x="221" y="295" on="1"/>
        <pt x="155" y="313" on="0"/>
        <pt x="64" y="420" on="0"/>
        <pt x="64" y="493" on="1"/>
        <pt x="64" y="526" on="0"/>
        <pt x="75" y="562" on="1"/>
        <pt x="95" y="621" on="0"/>
        <pt x="194" y="691" on="0"/>
        <pt x="264" y="696" on="1"/>
        <pt x="272" y="696" on="1"/>
        <pt x="280" y="697" on="0"/>
        <pt x="285" y="697" on="1"/>
        <pt x="383" y="697" on="0"/>
        <pt x="447" y="650" on="1"/>
        <pt x="454" y="645" on="1"/>
        <pt x="480" y="669" on="1"/>
        <pt x="507" y="694" on="0"/>
        <pt x="509" y="695" on="1"/>
        <pt x="511" y="697" on="0"/>
        <pt x="533" y="697" on="0"/>
        <pt x="535" y="695" on="1"/>
        <pt x="540" y="692" on="0"/>
        <pt x="542" y="666" on="0"/>
        <pt x="542" y="488" on="0"/>
        <pt x="540" y="463" on="0"/>
        <pt x="535" y="460" on="1"/>
        <pt x="532" y="458" on="0"/>
        <pt x="511" y="458" on="1"/>
        <pt x="491" y="458" on="0"/>
        <pt x="487" y="460" on="1"/>
        <pt x="480" y="464" on="0"/>
        <pt x="479" y="478" on="1"/>
        <pt x="469" y="553" on="0"/>
        <pt x="369" y="639" on="0"/>
        <pt x="287" y="639" on="1"/>
        <pt x="237" y="639" on="0"/>
        <pt x="177" y="590" on="0"/>
        <pt x="177" y="544" on="1"/>
        <pt x="177" y="513" on="0"/>
        <pt x="216" y="468" on="0"/>
        <pt x="247" y="457" on="1"/>
        <pt x="252" y="455" on="0"/>
        <pt x="408" y="421" on="0"/>
        <pt x="411" y="420" on="1"/>
        <pt x="475" y="402" on="0"/>
        <pt x="561" y="307" on="0"/>
        <pt x="572" y="241" on="1"/>
        <pt x="574" y="227" on="0"/>
        <pt x="574" y="207" on="1"/>
        <pt x="574" y="167" on="0"/>
        <pt x="559" y="120" on="1"/>
        <pt x="516" y="12" on="0"/>
        <pt x="389" y="-9" on="1"/>
        <pt x="380" y="-10" on="0"/>
        <pt x="346" y="-10" on="1"/>
        <pt x="231" y="-10" on="0"/>
        <pt x="160" y="35" on="1"/>
        <pt x="153" y="40" on="0"/>
        <pt x="151" y="40" on="1"/>
        <pt x="97" y="-9" on="1"/>
        <pt x="95" y="-11" on="0"/>
        <pt x="73" y="-11" on="0"/>
        <pt x="71" y="-9" on="1"/>
        <pt x="66" y="-6" on="0"/>
        <pt x="64" y="19" on="0"/>
        <pt x="64" y="108" on="1"/>
        <pt x="64" y="217" on="0"/>
        <pt x="66" y="220" on="1"/>
        <pt x="68" y="225" on="0"/>
        <pt x="76" y="227" on="0"/>
        <pt x="94" y="228" on="1"/>
        <pt x="115" y="228" on="0"/>
        <pt x="119" y="226" on="1"/>
        <pt x="126" y="222" on="0"/>
        <pt x="126" y="205" on="1"/>
        <pt x="130" y="129" on="0"/>
        <pt x="250" y="51" on="0"/>
      </contour>
    </TTGlyph>
    <TTGlyph name="Sigma" xMin="64" yMin="0" xMax="766" yMax="686">
      <contour>
        <pt x="766" y="271" on="1"/>
        <pt x="735" y="4" on="1"/>
        <pt x="735" y="0" on="1"/>
        <pt x="407" y="0" on="1"/>
        <pt x="74" y="0" on="0"/>
        <pt x="71" y="4" on="1"/>
        <pt x="70" y="5" on="1"/>
        <pt x="64" y="9" on="0"/>
        <pt x="64" y="18" on="1"/>
        <pt x="64" y="24" on="0"/>
        <pt x="100" y="58" on="0"/>
        <pt x="213" y="158" on="1"/>
        <pt x="359" y="288" on="1"/>
        <pt x="360" y="288" on="0"/>
        <pt x="279" y="384" on="0"/>
        <pt x="214" y="460" on="1"/>
        <pt x="67" y="633" on="0"/>
        <pt x="66" y="635" on="1"/>
        <pt x="64" y="638" on="0"/>
        <pt x="64" y="655" on="1"/>
        <pt x="64" y="679" on="0"/>
        <pt x="75" y="684" on="1"/>
        <pt x="78" y="686" on="0"/>
        <pt x="407" y="686" on="1"/>
        <pt x="735" y="686" on="1"/>
        <pt x="735" y="682" on="1"/>
        <pt x="738" y="676" on="0"/>
        <pt x="764" y="439" on="0"/>
        <pt x="766" y="434" on="1"/>
        <pt x="766" y="430" on="1"/>
        <pt x="735" y="430" on="1"/>
        <pt x="704" y="430" on="0"/>
        <pt x="704" y="431" on="1"/>
        <pt x="703" y="437" on="0"/>
        <pt x="702" y="444" on="1"/>
        <pt x="689" y="530" on="0"/>
        <pt x="609" y="613" on="0"/>
        <pt x="525" y="620" on="1"/>
        <pt x="488" y="624" on="0"/>
        <pt x="371" y="624" on="1"/>
        <pt x="281" y="624" on="1"/>
        <pt x="396" y="489" on="1"/>
        <pt x="506" y="358" on="0"/>
        <pt x="513" y="351" on="1"/>
        <pt x="517" y="342" on="0"/>
        <pt x="512" y="334" on="1"/>
        <pt x="503" y="325" on="0"/>
        <pt x="371" y="208" on="1"/>
        <pt x="338" y="179" on="0"/>
        <pt x="267" y="115" on="0"/>
        <pt x="249" y="99" on="1"/>
        <pt x="231" y="83" on="1"/>
        <pt x="243" y="81" on="1"/>
        <pt x="258" y="81" on="0"/>
        <pt x="364" y="81" on="1"/>
        <pt x="508" y="83" on="0"/>
        <pt x="511" y="83" on="1"/>
        <pt x="606" y="91" on="0"/>
        <pt x="645" y="129" on="1"/>
        <pt x="689" y="173" on="0"/>
        <pt x="702" y="260" on="1"/>
        <pt x="704" y="274" on="1"/>
        <pt x="704" y="275" on="0"/>
        <pt x="735" y="275" on="1"/>
        <pt x="766" y="275" on="1"/>
      </contour>
    </TTGlyph>
    <TTGlyph name="T" xMin="41" yMin="0" xMax="758" yMax="675">
      <contour>
        <pt x="41" y="425" on="1"/>
        <pt x="62" y="669" on="1"/>
        <pt x="62" y="675" on="1"/>
        <pt x="737" y="675" on="1"/>
        <pt x="737" y="669" on="1"/>
        <pt x="758" y="426" on="0"/>
        <pt x="758" y="425" on="1"/>
        <pt x="758" y="419" on="1"/>
        <pt x="696" y="419" on="1"/>
        <pt x="696" y="425" on="1"/>
        <pt x="686" y="527" on="0"/>
        <pt x="665" y="561" on="1"/>
        <pt x="645" y="594" on="0"/>
        <pt x="595" y="607" on="1"/>
        <pt x="578" y="612" on="0"/>
        <pt x="522" y="613" on="1"/>
        <pt x="478" y="613" on="1"/>
        <pt x="478" y="62" on="1"/>
        <pt x="631" y="62" on="1"/>
        <pt x="631" y="0" on="1"/>
        <pt x="615" y="0" on="1"/>
        <pt x="591" y="3" on="0"/>
        <pt x="399" y="3" on="1"/>
        <pt x="208" y="3" on="0"/>
        <pt x="184" y="0" on="1"/>
        <pt x="168" y="0" on="1"/>
        <pt x="168" y="62" on="1"/>
        <pt x="321" y="62" on="1"/>
        <pt x="321" y="613" on="1"/>
        <pt x="277" y="613" on="1"/>
        <pt x="221" y="612" on="0"/>
        <pt x="204" y="607" on="1"/>
        <pt x="154" y="594" on="0"/>
        <pt x="134" y="561" on="1"/>
        <pt x="113" y="527" on="0"/>
        <pt x="103" y="425" on="1"/>
        <pt x="103" y="419" on="1"/>
        <pt x="41" y="419" on="1"/>
      </contour>
    </TTGlyph>
    <TTGlyph name="Theta" xMin="64" yMin="-10" xMax="829" yMax="696">
      <contour>
        <pt x="112" y="529" on="1"/>
        <pt x="157" y="606" on="0"/>
        <pt x="325" y="696" on="0"/>
        <pt x="438" y="696" on="1"/>
        <pt x="488" y="696" on="0"/>
        <pt x="499" y="695" on="1"/>
        <pt x="627" y="681" on="0"/>
        <pt x="794" y="542" on="0"/>
        <pt x="819" y="427" on="1"/>
        <pt x="829" y="386" on="0"/>
        <pt x="829" y="338" on="1"/>
        <pt x="829" y="208" on="0"/>
        <pt x="755" y="117" on="1"/>
        <pt x="739" y="96" on="0"/>
        <pt x="707" y="69" on="1"/>
        <pt x="604" y="-10" on="0"/>
        <pt x="446" y="-10" on="1"/>
        <pt x="289" y="-10" on="0"/>
        <pt x="186" y="69" on="1"/>
        <pt x="127" y="118" on="0"/>
        <pt x="96" y="184" on="1"/>
        <pt x="64" y="254" on="0"/>
        <pt x="64" y="340" on="1"/>
        <pt x="64" y="445" on="0"/>
      </contour>
      <contour>
        <pt x="638" y="530" on="1"/>
        <pt x="583" y="645" on="0"/>
        <pt x="439" y="645" on="1"/>
        <pt x="414" y="645" on="0"/>
        <pt x="398" y="641" on="1"/>
        <pt x="303" y="619" on="0"/>
        <pt x="221" y="469" on="0"/>
        <pt x="221" y="341" on="1"/>
        <pt x="221" y="273" on="0"/>
        <pt x="230" y="228" on="1"/>
        <pt x="259" y="82" on="0"/>
        <pt x="386" y="50" on="1"/>
        <pt x="412" y="43" on="0"/>
        <pt x="447" y="43" on="1"/>
        <pt x="481" y="43" on="0"/>
        <pt x="507" y="50" on="1"/>
        <pt x="634" y="82" on="0"/>
        <pt x="663" y="228" on="1"/>
        <pt x="672" y="273" on="0"/>
        <pt x="672" y="341" on="1"/>
        <pt x="672" y="458" on="0"/>
      </contour>
      <contour>
        <pt x="286" y="242" on="1"/>
        <pt x="286" y="446" on="1"/>
        <pt x="348" y="446" on="1"/>
        <pt x="348" y="412" on="1"/>
        <pt x="545" y="412" on="1"/>
        <pt x="545" y="446" on="1"/>
        <pt x="607" y="446" on="1"/>
        <pt x="607" y="242" on="1"/>
        <pt x="545" y="242" on="1"/>
        <pt x="545" y="276" on="1"/>
        <pt x="348" y="276" on="1"/>
        <pt x="348" y="242" on="1"/>
      </contour>
    </TTGlyph>
    <TTGlyph name="U" xMin="39" yMin="-11" xMax="845" yMax="686">
      <contour>
        <pt x="570" y="686" on="1"/>
        <pt x="584" y="683" on="0"/>
        <pt x="822" y="683" on="0"/>
        <pt x="836" y="686" on="1"/>
        <pt x="845" y="686" on="1"/>
        <pt x="845" y="624" on="1"/>
        <pt x="737" y="624" on="1"/>
        <pt x="737" y="420" on="1"/>
        <pt x="737" y="212" on="0"/>
        <pt x="736" y="204" on="1"/>
        <pt x="727" y="104" on="0"/>
        <pt x="579" y="-11" on="0"/>
        <pt x="465" y="-11" on="1"/>
        <pt x="274" y="-11" on="0"/>
        <pt x="193" y="95" on="1"/>
        <pt x="154" y="146" on="0"/>
        <pt x="148" y="207" on="1"/>
        <pt x="147" y="214" on="0"/>
        <pt x="147" y="421" on="1"/>
        <pt x="147" y="624" on="1"/>
        <pt x="39" y="624" on="1"/>
        <pt x="39" y="686" on="1"/>
        <pt x="51" y="686" on="1"/>
        <pt x="70" y="683" on="0"/>
        <pt x="226" y="683" on="1"/>
        <pt x="380" y="683" on="0"/>
        <pt x="400" y="686" on="1"/>
        <pt x="412" y="686" on="1"/>
        <pt x="412" y="624" on="1"/>
        <pt x="304" y="624" on="1"/>
        <pt x="304" y="405" on="1"/>
        <pt x="305" y="184" on="0"/>
        <pt x="306" y="174" on="1"/>
        <pt x="315" y="109" on="0"/>
        <pt x="391" y="52" on="0"/>
        <pt x="466" y="52" on="1"/>
        <pt x="642" y="52" on="0"/>
        <pt x="667" y="195" on="1"/>
        <pt x="668" y="204" on="0"/>
        <pt x="669" y="415" on="1"/>
        <pt x="669" y="624" on="1"/>
        <pt x="561" y="624" on="1"/>
        <pt x="561" y="686" on="1"/>
      </contour>
    </TTGlyph>
    <TTGlyph name="Upsilon" xMin="64" yMin="0" xMax="829" yMax="697">
      <contour>
        <pt x="64" y="556" on="1"/>
        <pt x="69" y="619" on="0"/>
        <pt x="159" y="697" on="0"/>
        <pt x="224" y="697" on="1"/>
        <pt x="300" y="697" on="0"/>
        <pt x="418" y="583" on="0"/>
        <pt x="444" y="484" on="1"/>
        <pt x="447" y="477" on="1"/>
        <pt x="447" y="479" on="1"/>
        <pt x="454" y="507" on="0"/>
        <pt x="465" y="532" on="1"/>
        <pt x="514" y="657" on="0"/>
        <pt x="610" y="687" on="1"/>
        <pt x="637" y="697" on="0"/>
        <pt x="670" y="697" on="1"/>
        <pt x="737" y="697" on="0"/>
        <pt x="825" y="614" on="0"/>
        <pt x="829" y="556" on="1"/>
        <pt x="829" y="540" on="0"/>
        <pt x="818" y="532" on="1"/>
        <pt x="772" y="532" on="1"/>
        <pt x="761" y="539" on="0"/>
        <pt x="761" y="548" on="1"/>
        <pt x="761" y="571" on="0"/>
        <pt x="681" y="571" on="1"/>
        <pt x="661" y="571" on="0"/>
        <pt x="656" y="570" on="1"/>
        <pt x="592" y="563" on="0"/>
        <pt x="555" y="490" on="1"/>
        <pt x="530" y="436" on="0"/>
        <pt x="526" y="371" on="1"/>
        <pt x="525" y="363" on="0"/>
        <pt x="525" y="210" on="1"/>
        <pt x="525" y="62" on="1"/>
        <pt x="660" y="62" on="1"/>
        <pt x="660" y="0" on="1"/>
        <pt x="646" y="0" on="1"/>
        <pt x="624" y="3" on="0"/>
        <pt x="270" y="3" on="0"/>
        <pt x="247" y="0" on="1"/>
        <pt x="233" y="0" on="1"/>
        <pt x="233" y="62" on="1"/>
        <pt x="368" y="62" on="1"/>
        <pt x="368" y="210" on="1"/>
        <pt x="368" y="363" on="0"/>
        <pt x="367" y="371" on="1"/>
        <pt x="363" y="436" on="0"/>
        <pt x="338" y="490" on="1"/>
        <pt x="301" y="563" on="0"/>
        <pt x="237" y="570" on="1"/>
        <pt x="232" y="571" on="0"/>
        <pt x="212" y="571" on="1"/>
        <pt x="132" y="571" on="0"/>
        <pt x="132" y="548" on="1"/>
        <pt x="132" y="539" on="0"/>
        <pt x="121" y="532" on="1"/>
        <pt x="75" y="532" on="1"/>
        <pt x="64" y="540" on="0"/>
      </contour>
    </TTGlyph>
    <TTGlyph name="V" xMin="25" yMin="-7" xMax="843" yMax="686">
      <contour>
        <pt x="592" y="686" on="1"/>
        <pt x="613" y="683" on="0"/>
        <pt x="724" y="683" on="1"/>
        <pt x="823" y="683" on="0"/>
        <pt x="835" y="686" on="1"/>
        <pt x="843" y="686" on="1"/>
        <pt x="843" y="624" on="1"/>
        <pt x="744" y="624" on="1"/>
        <pt x="611" y="315" on="1"/>
        <pt x="503" y="66" on="0"/>
        <pt x="473" y="0" on="0"/>
        <pt x="465" y="-5" on="1"/>
        <pt x="460" y="-7" on="1"/>
        <pt x="409" y="-7" on="1"/>
        <pt x="403" y="-5" on="1"/>
        <pt x="395" y="0" on="0"/>
        <pt x="365" y="66" on="0"/>
        <pt x="257" y="315" on="1"/>
        <pt x="124" y="624" on="1"/>
        <pt x="25" y="624" on="1"/>
        <pt x="25" y="686" on="1"/>
        <pt x="36" y="686" on="1"/>
        <pt x="55" y="683" on="0"/>
        <pt x="190" y="683" on="1"/>
        <pt x="346" y="683" on="0"/>
        <pt x="364" y="686" on="1"/>
        <pt x="377" y="686" on="1"/>
        <pt x="377" y="624" on="1"/>
        <pt x="289" y="624" on="1"/>
        <pt x="384" y="403" on="1"/>
        <pt x="480" y="185" on="1"/>
        <pt x="492" y="212" on="1"/>
        <pt x="504" y="240" on="0"/>
        <pt x="554" y="356" on="0"/>
        <pt x="575" y="405" on="1"/>
        <pt x="670" y="624" on="1"/>
        <pt x="582" y="624" on="1"/>
        <pt x="582" y="686" on="1"/>
      </contour>
    </TTGlyph>
    <TTGlyph name="W" xMin="24" yMin="-7" xMax="1164" yMax="686">
      <contour>
        <pt x="915" y="686" on="1"/>
        <pt x="934" y="683" on="0"/>
        <pt x="1052" y="683" on="1"/>
        <pt x="1060" y="683" on="0"/>
        <pt x="1094" y="684" on="0"/>
        <pt x="1112" y="684" on="0"/>
        <pt x="1140" y="685" on="0"/>
        <pt x="1155" y="686" on="0"/>
        <pt x="1157" y="686" on="1"/>
        <pt x="1164" y="686" on="1"/>
        <pt x="1164" y="624" on="1"/>
        <pt x="1073" y="624" on="1"/>
        <pt x="957" y="320" on="1"/>
        <pt x="930" y="249" on="0"/>
        <pt x="870" y="91" on="0"/>
        <pt x="839" y="12" on="0"/>
        <pt x="839" y="10" on="1"/>
        <pt x="834" y="0" on="0"/>
        <pt x="826" y="-5" on="1"/>
        <pt x="821" y="-7" on="0"/>
        <pt x="799" y="-7" on="1"/>
        <pt x="776" y="-7" on="0"/>
        <pt x="767" y="-3" on="0"/>
        <pt x="759" y="10" on="1"/>
        <pt x="759" y="11" on="0"/>
        <pt x="757" y="15" on="1"/>
        <pt x="728" y="91" on="0"/>
        <pt x="594" y="442" on="1"/>
        <pt x="482" y="151" on="0"/>
        <pt x="437" y="30" on="1"/>
        <pt x="431" y="13" on="0"/>
        <pt x="429" y="10" on="1"/>
        <pt x="424" y="2" on="0"/>
        <pt x="422" y="-2" on="0"/>
        <pt x="412" y="-7" on="0"/>
        <pt x="403" y="-7" on="0"/>
        <pt x="389" y="-7" on="1"/>
        <pt x="367" y="-7" on="0"/>
        <pt x="363" y="-5" on="1"/>
        <pt x="354" y="0" on="0"/>
        <pt x="349" y="10" on="1"/>
        <pt x="349" y="12" on="0"/>
        <pt x="318" y="91" on="0"/>
        <pt x="258" y="249" on="0"/>
        <pt x="231" y="320" on="1"/>
        <pt x="116" y="624" on="1"/>
        <pt x="24" y="624" on="1"/>
        <pt x="24" y="686" on="1"/>
        <pt x="35" y="686" on="1"/>
        <pt x="53" y="683" on="0"/>
        <pt x="183" y="683" on="1"/>
        <pt x="330" y="683" on="0"/>
        <pt x="355" y="686" on="1"/>
        <pt x="368" y="686" on="1"/>
        <pt x="368" y="624" on="1"/>
        <pt x="323" y="624" on="1"/>
        <pt x="278" y="624" on="0"/>
        <pt x="278" y="623" on="1"/>
        <pt x="437" y="207" on="1"/>
        <pt x="499" y="369" on="1"/>
        <pt x="561" y="531" on="1"/>
        <pt x="539" y="585" on="0"/>
        <pt x="526" y="624" on="1"/>
        <pt x="434" y="624" on="1"/>
        <pt x="434" y="686" on="1"/>
        <pt x="445" y="686" on="1"/>
        <pt x="463" y="683" on="0"/>
        <pt x="593" y="683" on="1"/>
        <pt x="740" y="683" on="0"/>
        <pt x="765" y="686" on="1"/>
        <pt x="778" y="686" on="1"/>
        <pt x="778" y="624" on="1"/>
        <pt x="733" y="624" on="1"/>
        <pt x="688" y="624" on="0"/>
        <pt x="688" y="623" on="1"/>
        <pt x="847" y="207" on="1"/>
        <pt x="848" y="207" on="0"/>
        <pt x="1006" y="623" on="0"/>
        <pt x="1006" y="624" on="1"/>
        <pt x="905" y="624" on="1"/>
        <pt x="905" y="686" on="1"/>
      </contour>
    </TTGlyph>
    <TTGlyph name="X" xMin="33" yMin="0" xMax="835" yMax="686">
      <contour>
        <pt x="327" y="0" on="1"/>
        <pt x="304" y="3" on="0"/>
        <pt x="174" y="3" on="1"/>
        <pt x="58" y="3" on="0"/>
        <pt x="43" y="0" on="1"/>
        <pt x="33" y="0" on="1"/>
        <pt x="33" y="62" on="1"/>
        <pt x="98" y="62" on="1"/>
        <pt x="162" y="63" on="1"/>
        <pt x="261" y="197" on="1"/>
        <pt x="360" y="333" on="1"/>
        <pt x="314" y="399" on="0"/>
        <pt x="258" y="479" on="1"/>
        <pt x="157" y="624" on="1"/>
        <pt x="48" y="624" on="1"/>
        <pt x="48" y="686" on="1"/>
        <pt x="59" y="686" on="1"/>
        <pt x="77" y="683" on="0"/>
        <pt x="217" y="683" on="1"/>
        <pt x="377" y="683" on="0"/>
        <pt x="395" y="686" on="1"/>
        <pt x="408" y="686" on="1"/>
        <pt x="408" y="624" on="1"/>
        <pt x="335" y="624" on="1"/>
        <pt x="393" y="540" on="1"/>
        <pt x="452" y="458" on="1"/>
        <pt x="573" y="623" on="1"/>
        <pt x="573" y="624" on="0"/>
        <pt x="528" y="624" on="1"/>
        <pt x="483" y="624" on="1"/>
        <pt x="483" y="686" on="1"/>
        <pt x="494" y="686" on="1"/>
        <pt x="509" y="683" on="0"/>
        <pt x="646" y="683" on="1"/>
        <pt x="762" y="683" on="0"/>
        <pt x="778" y="686" on="1"/>
        <pt x="787" y="686" on="1"/>
        <pt x="787" y="624" on="1"/>
        <pt x="658" y="624" on="1"/>
        <pt x="575" y="511" on="1"/>
        <pt x="493" y="398" on="0"/>
        <pt x="493" y="397" on="1"/>
        <pt x="508" y="376" on="1"/>
        <pt x="522" y="356" on="0"/>
        <pt x="584" y="267" on="0"/>
        <pt x="611" y="229" on="1"/>
        <pt x="727" y="62" on="1"/>
        <pt x="835" y="62" on="1"/>
        <pt x="835" y="0" on="1"/>
        <pt x="824" y="0" on="1"/>
        <pt x="806" y="3" on="0"/>
        <pt x="667" y="3" on="1"/>
        <pt x="507" y="3" on="0"/>
        <pt x="489" y="0" on="1"/>
        <pt x="476" y="0" on="1"/>
        <pt x="476" y="62" on="1"/>
        <pt x="513" y="62" on="1"/>
        <pt x="549" y="63" on="1"/>
        <pt x="479" y="162" on="0"/>
        <pt x="401" y="274" on="1"/>
        <pt x="324" y="169" on="1"/>
        <pt x="247" y="63" on="1"/>
        <pt x="247" y="62" on="0"/>
        <pt x="292" y="62" on="1"/>
        <pt x="338" y="62" on="1"/>
        <pt x="338" y="0" on="1"/>
      </contour>
    </TTGlyph>
    <TTGlyph name="Xi" xMin="48" yMin="0" xMax="718" yMax="675">
      <contour>
        <pt x="54" y="465" on="1"/>
        <pt x="63" y="674" on="1"/>
        <pt x="63" y="675" on="0"/>
        <pt x="703" y="675" on="0"/>
        <pt x="703" y="674" on="1"/>
        <pt x="703" y="677" on="0"/>
        <pt x="707" y="572" on="0"/>
        <pt x="710" y="518" on="1"/>
        <pt x="712" y="465" on="1"/>
        <pt x="712" y="464" on="0"/>
        <pt x="681" y="464" on="1"/>
        <pt x="650" y="464" on="1"/>
        <pt x="650" y="467" on="1"/>
        <pt x="650" y="476" on="0"/>
        <pt x="649" y="485" on="1"/>
        <pt x="644" y="542" on="0"/>
        <pt x="632" y="545" on="1"/>
        <pt x="612" y="550" on="0"/>
        <pt x="154" y="550" on="0"/>
        <pt x="134" y="545" on="1"/>
        <pt x="116" y="541" on="0"/>
        <pt x="116" y="467" on="1"/>
        <pt x="116" y="464" on="1"/>
        <pt x="85" y="464" on="1"/>
        <pt x="54" y="464" on="0"/>
      </contour>
      <contour>
        <pt x="160" y="256" on="1"/>
        <pt x="160" y="447" on="1"/>
        <pt x="222" y="447" on="1"/>
        <pt x="222" y="414" on="1"/>
        <pt x="544" y="414" on="1"/>
        <pt x="544" y="447" on="1"/>
        <pt x="606" y="447" on="1"/>
        <pt x="606" y="256" on="1"/>
        <pt x="544" y="256" on="1"/>
        <pt x="544" y="289" on="1"/>
        <pt x="222" y="289" on="1"/>
        <pt x="222" y="256" on="1"/>
      </contour>
      <contour>
        <pt x="57" y="0" on="1"/>
        <pt x="48" y="222" on="1"/>
        <pt x="110" y="222" on="1"/>
        <pt x="110" y="219" on="1"/>
        <pt x="110" y="209" on="0"/>
        <pt x="111" y="200" on="1"/>
        <pt x="114" y="142" on="0"/>
        <pt x="125" y="133" on="1"/>
        <pt x="128" y="129" on="0"/>
        <pt x="156" y="127" on="1"/>
        <pt x="166" y="126" on="0"/>
        <pt x="600" y="126" on="0"/>
        <pt x="611" y="127" on="1"/>
        <pt x="638" y="129" on="0"/>
        <pt x="641" y="133" on="1"/>
        <pt x="652" y="142" on="0"/>
        <pt x="655" y="200" on="1"/>
        <pt x="656" y="209" on="0"/>
        <pt x="656" y="219" on="1"/>
        <pt x="656" y="222" on="1"/>
        <pt x="718" y="222" on="1"/>
        <pt x="709" y="0" on="1"/>
      </contour>
    </TTGlyph>
    <TTGlyph name="Y" xMin="19" yMin="0" xMax="849" yMax="686">
      <contour>
        <pt x="605" y="0" on="1"/>
        <pt x="586" y="3" on="0"/>
        <pt x="434" y="3" on="1"/>
        <pt x="281" y="3" on="0"/>
        <pt x="262" y="0" on="1"/>
        <pt x="250" y="0" on="1"/>
        <pt x="250" y="62" on="1"/>
        <pt x="358" y="62" on="1"/>
        <pt x="358" y="275" on="1"/>
        <pt x="249" y="437" on="0"/>
        <pt x="126" y="624" on="1"/>
        <pt x="19" y="624" on="1"/>
        <pt x="19" y="686" on="1"/>
        <pt x="30" y="686" on="1"/>
        <pt x="49" y="683" on="0"/>
        <pt x="189" y="683" on="1"/>
        <pt x="350" y="683" on="0"/>
        <pt x="370" y="686" on="1"/>
        <pt x="383" y="686" on="1"/>
        <pt x="383" y="624" on="1"/>
        <pt x="308" y="624" on="1"/>
        <pt x="319" y="608" on="1"/>
        <pt x="330" y="591" on="0"/>
        <pt x="376" y="521" on="0"/>
        <pt x="396" y="491" on="1"/>
        <pt x="484" y="359" on="1"/>
        <pt x="572" y="491" on="1"/>
        <pt x="660" y="623" on="1"/>
        <pt x="660" y="624" on="0"/>
        <pt x="623" y="624" on="1"/>
        <pt x="585" y="624" on="1"/>
        <pt x="585" y="686" on="1"/>
        <pt x="595" y="686" on="1"/>
        <pt x="613" y="683" on="0"/>
        <pt x="728" y="683" on="1"/>
        <pt x="828" y="683" on="0"/>
        <pt x="841" y="686" on="1"/>
        <pt x="849" y="686" on="1"/>
        <pt x="849" y="624" on="1"/>
        <pt x="742" y="624" on="1"/>
        <pt x="634" y="460" on="0"/>
        <pt x="509" y="274" on="1"/>
        <pt x="509" y="62" on="1"/>
        <pt x="618" y="62" on="1"/>
        <pt x="618" y="0" on="1"/>
      </contour>
    </TTGlyph>
    <TTGlyph name="Z" xMin="64" yMin="0" xMax="645" yMax="686">
      <contour>
        <pt x="80" y="430" on="1"/>
        <pt x="92" y="686" on="1"/>
        <pt x="358" y="686" on="1"/>
        <pt x="624" y="686" on="0"/>
        <pt x="628" y="684" on="1"/>
        <pt x="638" y="679" on="0"/>
        <pt x="638" y="656" on="1"/>
        <pt x="638" y="640" on="0"/>
        <pt x="637" y="639" on="1"/>
        <pt x="637" y="638" on="0"/>
        <pt x="445" y="353" on="1"/>
        <pt x="401" y="288" on="0"/>
        <pt x="301" y="139" on="0"/>
        <pt x="277" y="103" on="1"/>
        <pt x="253" y="67" on="1"/>
        <pt x="256" y="66" on="1"/>
        <pt x="258" y="66" on="0"/>
        <pt x="273" y="66" on="0"/>
        <pt x="285" y="66" on="0"/>
        <pt x="298" y="66" on="1"/>
        <pt x="314" y="66" on="1"/>
        <pt x="394" y="66" on="0"/>
        <pt x="470" y="77" on="0"/>
        <pt x="504" y="100" on="1"/>
        <pt x="528" y="115" on="0"/>
        <pt x="544" y="139" on="1"/>
        <pt x="583" y="198" on="0"/>
        <pt x="583" y="298" on="1"/>
        <pt x="583" y="299" on="0"/>
        <pt x="614" y="299" on="1"/>
        <pt x="645" y="299" on="1"/>
        <pt x="645" y="291" on="1"/>
        <pt x="645" y="289" on="0"/>
        <pt x="628" y="10" on="0"/>
        <pt x="627" y="8" on="1"/>
        <pt x="627" y="0" on="1"/>
        <pt x="353" y="0" on="1"/>
        <pt x="79" y="0" on="0"/>
        <pt x="75" y="2" on="1"/>
        <pt x="64" y="7" on="0"/>
        <pt x="64" y="31" on="1"/>
        <pt x="64" y="48" on="0"/>
        <pt x="66" y="52" on="1"/>
        <pt x="447" y="623" on="0"/>
        <pt x="451" y="623" on="1"/>
        <pt x="451" y="624" on="0"/>
        <pt x="384" y="624" on="1"/>
        <pt x="306" y="623" on="0"/>
        <pt x="280" y="617" on="1"/>
        <pt x="156" y="592" on="0"/>
        <pt x="143" y="446" on="1"/>
        <pt x="142" y="440" on="0"/>
        <pt x="142" y="432" on="1"/>
        <pt x="142" y="430" on="1"/>
      </contour>
    </TTGlyph>
    <TTGlyph name="a" xMin="32" yMin="-6" xMax="558" yMax="453">
      <contour>
        <pt x="497" y="0" on="1"/>
        <pt x="465" y="0" on="0"/>
        <pt x="430" y="3" on="0"/>
        <pt x="390" y="13" on="0"/>
        <pt x="370" y="37" on="0"/>
        <pt x="367" y="56" on="1"/>
        <pt x="356" y="46" on="1"/>
        <pt x="302" y="-6" on="0"/>
        <pt x="210" y="-6" on="1"/>
        <pt x="136" y="-6" on="0"/>
        <pt x="32" y="63" on="0"/>
        <pt x="32" y="121" on="1"/>
        <pt x="32" y="156" on="0"/>
        <pt x="81" y="215" on="0"/>
        <pt x="124" y="233" on="1"/>
        <pt x="203" y="266" on="0"/>
        <pt x="332" y="272" on="1"/>
        <pt x="350" y="272" on="1"/>
        <pt x="350" y="292" on="1"/>
        <pt x="350" y="349" on="0"/>
        <pt x="302" y="402" on="0"/>
        <pt x="248" y="402" on="1"/>
        <pt x="213" y="402" on="0"/>
        <pt x="194" y="399" on="1"/>
        <pt x="189" y="399" on="1"/>
        <pt x="204" y="376" on="0"/>
        <pt x="204" y="354" on="1"/>
        <pt x="204" y="323" on="0"/>
        <pt x="167" y="284" on="0"/>
        <pt x="134" y="284" on="1"/>
        <pt x="103" y="284" on="0"/>
        <pt x="66" y="320" on="0"/>
        <pt x="64" y="349" on="1"/>
        <pt x="64" y="406" on="0"/>
        <pt x="163" y="453" on="0"/>
        <pt x="255" y="453" on="1"/>
        <pt x="384" y="453" on="0"/>
        <pt x="444" y="391" on="1"/>
        <pt x="465" y="368" on="0"/>
        <pt x="473" y="341" on="1"/>
        <pt x="478" y="327" on="0"/>
        <pt x="479" y="292" on="0"/>
        <pt x="479" y="196" on="1"/>
        <pt x="479" y="77" on="1"/>
        <pt x="493" y="63" on="0"/>
        <pt x="529" y="62" on="1"/>
        <pt x="549" y="62" on="0"/>
        <pt x="558" y="53" on="0"/>
        <pt x="558" y="31" on="1"/>
        <pt x="558" y="7" on="0"/>
        <pt x="547" y="2" on="1"/>
        <pt x="544" y="0" on="0"/>
      </contour>
      <contour>
        <pt x="164" y="121" on="1"/>
        <pt x="164" y="90" on="0"/>
        <pt x="207" y="45" on="0"/>
        <pt x="269" y="45" on="0"/>
        <pt x="326" y="72" on="0"/>
        <pt x="340" y="93" on="1"/>
        <pt x="342" y="97" on="0"/>
        <pt x="350" y="116" on="0"/>
        <pt x="350" y="117" on="1"/>
        <pt x="350" y="226" on="1"/>
        <pt x="347" y="226" on="1"/>
        <pt x="253" y="219" on="0"/>
        <pt x="204" y="188" on="1"/>
        <pt x="164" y="158" on="0"/>
      </contour>
    </TTGlyph>
    <TTGlyph name="acute" xMin="237" yMin="503" xMax="460" yMax="706">
      <contour>
        <pt x="391" y="706" on="1"/>
        <pt x="419" y="706" on="0"/>
        <pt x="460" y="660" on="0"/>
        <pt x="460" y="634" on="1"/>
        <pt x="460" y="605" on="0"/>
        <pt x="434" y="587" on="1"/>
        <pt x="424" y="580" on="0"/>
        <pt x="351" y="543" on="1"/>
        <pt x="275" y="503" on="1"/>
        <pt x="256" y="527" on="1"/>
        <pt x="236" y="552" on="0"/>
        <pt x="237" y="553" on="1"/>
        <pt x="242" y="558" on="0"/>
        <pt x="292" y="620" on="1"/>
        <pt x="338" y="677" on="0"/>
        <pt x="360" y="699" on="0"/>
        <pt x="374" y="704" on="1"/>
        <pt x="384" y="706" on="0"/>
      </contour>
    </TTGlyph>
    <TTGlyph name="acutecomb" xMin="-338" yMin="503" xMax="-115" yMax="706">
      <contour>
        <pt x="-184" y="706" on="1"/>
        <pt x="-156" y="706" on="0"/>
        <pt x="-115" y="660" on="0"/>
        <pt x="-115" y="634" on="1"/>
        <pt x="-115" y="605" on="0"/>
        <pt x="-141" y="587" on="1"/>
        <pt x="-151" y="580" on="0"/>
        <pt x="-224" y="543" on="1"/>
        <pt x="-300" y="503" on="1"/>
        <pt x="-319" y="527" on="1"/>
        <pt x="-339" y="552" on="0"/>
        <pt x="-338" y="553" on="1"/>
        <pt x="-333" y="558" on="0"/>
        <pt x="-283" y="620" on="1"/>
        <pt x="-237" y="677" on="0"/>
        <pt x="-215" y="699" on="0"/>
        <pt x="-201" y="704" on="1"/>
        <pt x="-191" y="706" on="0"/>
      </contour>
    </TTGlyph>
    <TTGlyph name="afii61289" xMin="-1" yMin="-19" xMax="446" yMax="702">
      <contour>
        <pt x="101" y="116" on="1"/>
        <pt x="37" y="62" on="0"/>
        <pt x="36" y="62" on="1"/>
        <pt x="31" y="60" on="0"/>
        <pt x="24" y="62" on="1"/>
        <pt x="21" y="63" on="0"/>
        <pt x="-1" y="92" on="0"/>
        <pt x="-1" y="98" on="1"/>
        <pt x="-1" y="101" on="0"/>
        <pt x="1" y="105" on="1"/>
        <pt x="1" y="107" on="0"/>
        <pt x="27" y="130" on="1"/>
        <pt x="58" y="156" on="0"/>
        <pt x="73" y="170" on="1"/>
        <pt x="95" y="189" on="1"/>
        <pt x="95" y="197" on="1"/>
        <pt x="95" y="242" on="0"/>
        <pt x="110" y="309" on="1"/>
        <pt x="126" y="384" on="0"/>
        <pt x="143" y="433" on="1"/>
        <pt x="198" y="598" on="0"/>
        <pt x="284" y="667" on="1"/>
        <pt x="318" y="694" on="0"/>
        <pt x="353" y="701" on="1"/>
        <pt x="357" y="702" on="0"/>
        <pt x="367" y="702" on="1"/>
        <pt x="428" y="702" on="0"/>
        <pt x="444" y="641" on="1"/>
        <pt x="446" y="630" on="0"/>
        <pt x="446" y="606" on="1"/>
        <pt x="446" y="574" on="0"/>
        <pt x="439" y="549" on="1"/>
        <pt x="422" y="479" on="0"/>
        <pt x="370" y="399" on="1"/>
        <pt x="326" y="333" on="0"/>
        <pt x="241" y="246" on="1"/>
        <pt x="215" y="220" on="1"/>
        <pt x="212" y="203" on="1"/>
        <pt x="203" y="150" on="0"/>
        <pt x="203" y="114" on="1"/>
        <pt x="203" y="109" on="0"/>
        <pt x="204" y="96" on="0"/>
        <pt x="205" y="87" on="0"/>
        <pt x="205" y="85" on="1"/>
        <pt x="210" y="59" on="0"/>
        <pt x="231" y="32" on="0"/>
        <pt x="253" y="32" on="1"/>
        <pt x="311" y="32" on="0"/>
        <pt x="393" y="101" on="1"/>
        <pt x="394" y="102" on="0"/>
        <pt x="401" y="109" on="0"/>
        <pt x="404" y="111" on="0"/>
        <pt x="410" y="114" on="0"/>
        <pt x="416" y="113" on="0"/>
        <pt x="419" y="111" on="1"/>
        <pt x="423" y="107" on="0"/>
        <pt x="432" y="95" on="1"/>
        <pt x="445" y="77" on="0"/>
        <pt x="443" y="70" on="1"/>
        <pt x="435" y="54" on="0"/>
        <pt x="373" y="17" on="1"/>
        <pt x="309" y="-19" on="0"/>
        <pt x="245" y="-19" on="1"/>
        <pt x="198" y="-19" on="0"/>
        <pt x="163" y="8" on="1"/>
        <pt x="119" y="40" on="0"/>
        <pt x="104" y="106" on="1"/>
      </contour>
      <contour>
        <pt x="387" y="615" on="1"/>
        <pt x="387" y="651" on="0"/>
        <pt x="366" y="651" on="1"/>
        <pt x="344" y="651" on="0"/>
        <pt x="324" y="609" on="1"/>
        <pt x="303" y="566" on="0"/>
        <pt x="276" y="470" on="1"/>
        <pt x="241" y="331" on="1"/>
        <pt x="252" y="342" on="1"/>
        <pt x="352" y="455" on="0"/>
        <pt x="379" y="557" on="1"/>
        <pt x="387" y="588" on="0"/>
      </contour>
    </TTGlyph>
    <TTGlyph name="aleph" xMin="64" yMin="0" xMax="638" yMax="694">
      <contour>
        <pt x="105" y="692" on="1"/>
        <pt x="109" y="694" on="0"/>
        <pt x="111" y="694" on="1"/>
        <pt x="117" y="694" on="0"/>
        <pt x="123" y="688" on="0"/>
        <pt x="124" y="679" on="0"/>
        <pt x="125" y="669" on="1"/>
        <pt x="128" y="604" on="0"/>
        <pt x="164" y="573" on="1"/>
        <pt x="168" y="569" on="0"/>
        <pt x="470" y="335" on="0"/>
        <pt x="471" y="335" on="1"/>
        <pt x="472" y="338" on="1"/>
        <pt x="472" y="340" on="0"/>
        <pt x="474" y="349" on="0"/>
        <pt x="474" y="353" on="1"/>
        <pt x="502" y="476" on="0"/>
        <pt x="502" y="488" on="1"/>
        <pt x="502" y="490" on="0"/>
        <pt x="497" y="491" on="1"/>
        <pt x="458" y="508" on="0"/>
        <pt x="448" y="546" on="1"/>
        <pt x="448" y="573" on="1"/>
        <pt x="448" y="620" on="0"/>
        <pt x="457" y="648" on="1"/>
        <pt x="463" y="665" on="0"/>
        <pt x="484" y="694" on="0"/>
        <pt x="493" y="694" on="1"/>
        <pt x="499" y="694" on="0"/>
        <pt x="505" y="687" on="0"/>
        <pt x="511" y="675" on="0"/>
        <pt x="513" y="673" on="1"/>
        <pt x="517" y="667" on="0"/>
        <pt x="552" y="634" on="0"/>
        <pt x="557" y="630" on="1"/>
        <pt x="560" y="628" on="0"/>
        <pt x="584" y="618" on="1"/>
        <pt x="623" y="603" on="0"/>
        <pt x="631" y="587" on="1"/>
        <pt x="638" y="577" on="0"/>
        <pt x="638" y="543" on="1"/>
        <pt x="637" y="501" on="0"/>
        <pt x="628" y="472" on="1"/>
        <pt x="622" y="455" on="0"/>
        <pt x="600" y="427" on="0"/>
        <pt x="591" y="427" on="1"/>
        <pt x="584" y="427" on="0"/>
        <pt x="577" y="442" on="0"/>
        <pt x="573" y="463" on="0"/>
        <pt x="570" y="467" on="1"/>
        <pt x="568" y="470" on="1"/>
        <pt x="568" y="468" on="1"/>
        <pt x="564" y="450" on="1"/>
        <pt x="558" y="429" on="0"/>
        <pt x="534" y="297" on="0"/>
        <pt x="532" y="288" on="1"/>
        <pt x="541" y="281" on="1"/>
        <pt x="620" y="220" on="0"/>
        <pt x="634" y="165" on="1"/>
        <pt x="637" y="154" on="1"/>
        <pt x="637" y="124" on="1"/>
        <pt x="637" y="74" on="0"/>
        <pt x="628" y="46" on="1"/>
        <pt x="622" y="29" on="0"/>
        <pt x="601" y="0" on="0"/>
        <pt x="592" y="0" on="1"/>
        <pt x="586" y="0" on="0"/>
        <pt x="580" y="6" on="1"/>
        <pt x="578" y="9" on="0"/>
        <pt x="577" y="25" on="1"/>
        <pt x="574" y="90" on="0"/>
        <pt x="538" y="121" on="1"/>
        <pt x="532" y="126" on="0"/>
        <pt x="237" y="355" on="0"/>
        <pt x="236" y="355" on="1"/>
        <pt x="234" y="355" on="0"/>
        <pt x="229" y="324" on="1"/>
        <pt x="222" y="284" on="0"/>
        <pt x="222" y="237" on="1"/>
        <pt x="222" y="213" on="0"/>
        <pt x="225" y="201" on="1"/>
        <pt x="234" y="183" on="0"/>
        <pt x="266" y="155" on="1"/>
        <pt x="306" y="120" on="0"/>
        <pt x="314" y="92" on="1"/>
        <pt x="316" y="86" on="0"/>
        <pt x="316" y="60" on="0"/>
        <pt x="314" y="56" on="1"/>
        <pt x="300" y="9" on="0"/>
        <pt x="231" y="1" on="1"/>
        <pt x="226" y="0" on="0"/>
        <pt x="149" y="0" on="1"/>
        <pt x="75" y="0" on="0"/>
        <pt x="72" y="2" on="1"/>
        <pt x="65" y="5" on="0"/>
        <pt x="64" y="24" on="1"/>
        <pt x="64" y="44" on="0"/>
        <pt x="71" y="49" on="1"/>
        <pt x="74" y="51" on="0"/>
        <pt x="89" y="51" on="1"/>
        <pt x="142" y="51" on="0"/>
        <pt x="152" y="64" on="1"/>
        <pt x="154" y="67" on="0"/>
        <pt x="154" y="76" on="1"/>
        <pt x="154" y="97" on="0"/>
        <pt x="128" y="137" on="1"/>
        <pt x="109" y="168" on="0"/>
        <pt x="105" y="179" on="1"/>
        <pt x="96" y="198" on="0"/>
        <pt x="96" y="220" on="1"/>
        <pt x="96" y="234" on="0"/>
        <pt x="101" y="257" on="1"/>
        <pt x="113" y="311" on="0"/>
        <pt x="162" y="388" on="1"/>
        <pt x="172" y="404" on="1"/>
        <pt x="170" y="406" on="1"/>
        <pt x="168" y="408" on="0"/>
        <pt x="160" y="414" on="0"/>
        <pt x="157" y="417" on="1"/>
        <pt x="81" y="475" on="0"/>
        <pt x="68" y="529" on="1"/>
        <pt x="65" y="541" on="1"/>
        <pt x="65" y="570" on="1"/>
        <pt x="65" y="620" on="0"/>
        <pt x="74" y="648" on="1"/>
        <pt x="78" y="661" on="0"/>
        <pt x="97" y="688" on="0"/>
      </contour>
    </TTGlyph>
    <TTGlyph name="ampersand" xMin="48" yMin="-11" xMax="836" yMax="705">
      <contour>
        <pt x="610" y="444" on="1"/>
        <pt x="627" y="441" on="0"/>
        <pt x="732" y="441" on="1"/>
        <pt x="818" y="441" on="0"/>
        <pt x="830" y="444" on="1"/>
        <pt x="836" y="444" on="1"/>
        <pt x="836" y="382" on="1"/>
        <pt x="741" y="382" on="1"/>
        <pt x="709" y="335" on="1"/>
        <pt x="668" y="274" on="0"/>
        <pt x="635" y="229" on="0"/>
        <pt x="586" y="167" on="0"/>
        <pt x="553" y="132" on="1"/>
        <pt x="537" y="116" on="1"/>
        <pt x="537" y="112" on="0"/>
        <pt x="568" y="91" on="1"/>
        <pt x="622" y="51" on="0"/>
        <pt x="673" y="51" on="1"/>
        <pt x="703" y="51" on="0"/>
        <pt x="752" y="76" on="0"/>
        <pt x="761" y="94" on="1"/>
        <pt x="767" y="106" on="0"/>
        <pt x="767" y="115" on="1"/>
        <pt x="767" y="118" on="1"/>
        <pt x="829" y="118" on="1"/>
        <pt x="829" y="114" on="1"/>
        <pt x="829" y="110" on="0"/>
        <pt x="827" y="100" on="1"/>
        <pt x="820" y="53" on="0"/>
        <pt x="730" y="-11" on="0"/>
        <pt x="668" y="-11" on="1"/>
        <pt x="570" y="-11" on="0"/>
        <pt x="474" y="37" on="1"/>
        <pt x="451" y="49" on="1"/>
        <pt x="441" y="43" on="1"/>
        <pt x="354" y="-11" on="0"/>
        <pt x="255" y="-11" on="1"/>
        <pt x="175" y="-11" on="0"/>
        <pt x="66" y="59" on="0"/>
        <pt x="50" y="121" on="1"/>
        <pt x="48" y="133" on="0"/>
        <pt x="48" y="146" on="1"/>
        <pt x="48" y="186" on="0"/>
        <pt x="74" y="222" on="1"/>
        <pt x="86" y="239" on="0"/>
        <pt x="152" y="292" on="1"/>
        <pt x="204" y="333" on="0"/>
        <pt x="204" y="334" on="1"/>
        <pt x="201" y="341" on="0"/>
        <pt x="198" y="349" on="1"/>
        <pt x="166" y="428" on="0"/>
        <pt x="166" y="511" on="1"/>
        <pt x="166" y="538" on="0"/>
        <pt x="168" y="551" on="1"/>
        <pt x="182" y="613" on="0"/>
        <pt x="270" y="695" on="0"/>
        <pt x="332" y="704" on="1"/>
        <pt x="334" y="704" on="0"/>
        <pt x="352" y="705" on="0"/>
        <pt x="358" y="705" on="1"/>
        <pt x="384" y="704" on="0"/>
        <pt x="401" y="695" on="1"/>
        <pt x="434" y="679" on="0"/>
        <pt x="476" y="611" on="0"/>
        <pt x="476" y="565" on="1"/>
        <pt x="476" y="528" on="0"/>
        <pt x="455" y="496" on="1"/>
        <pt x="421" y="443" on="0"/>
        <pt x="334" y="371" on="1"/>
        <pt x="330" y="368" on="1"/>
        <pt x="335" y="357" on="1"/>
        <pt x="379" y="276" on="0"/>
        <pt x="485" y="165" on="1"/>
        <pt x="496" y="154" on="1"/>
        <pt x="506" y="163" on="1"/>
        <pt x="564" y="221" on="0"/>
        <pt x="639" y="335" on="1"/>
        <pt x="671" y="382" on="1"/>
        <pt x="601" y="382" on="1"/>
        <pt x="601" y="444" on="1"/>
      </contour>
      <contour>
        <pt x="415" y="564" on="1"/>
        <pt x="415" y="599" on="0"/>
        <pt x="383" y="654" on="0"/>
        <pt x="356" y="654" on="1"/>
        <pt x="343" y="654" on="0"/>
        <pt x="334" y="650" on="1"/>
        <pt x="296" y="635" on="0"/>
        <pt x="285" y="588" on="1"/>
        <pt x="283" y="580" on="0"/>
        <pt x="283" y="554" on="1"/>
        <pt x="283" y="477" on="0"/>
        <pt x="309" y="417" on="1"/>
        <pt x="325" y="431" on="1"/>
        <pt x="415" y="512" on="0"/>
      </contour>
      <contour>
        <pt x="192" y="182" on="1"/>
        <pt x="192" y="123" on="0"/>
        <pt x="235" y="51" on="0"/>
        <pt x="279" y="51" on="1"/>
        <pt x="347" y="51" on="0"/>
        <pt x="400" y="83" on="1"/>
        <pt x="389" y="91" on="1"/>
        <pt x="301" y="161" on="0"/>
        <pt x="240" y="266" on="1"/>
        <pt x="236" y="272" on="0"/>
        <pt x="228" y="283" on="0"/>
        <pt x="227" y="286" on="1"/>
        <pt x="222" y="279" on="1"/>
        <pt x="192" y="243" on="0"/>
      </contour>
    </TTGlyph>
    <TTGlyph name="angle" xMin="55" yMin="0" xMax="676" yMax="714">
      <contour>
        <pt x="71" y="0" on="1"/>
        <pt x="55" y="9" on="0"/>
        <pt x="55" y="20" on="1"/>
        <pt x="55" y="21" on="0"/>
        <pt x="56" y="23" on="1"/>
        <pt x="56" y="25" on="1"/>
        <pt x="55" y="27" on="0"/>
        <pt x="55" y="30" on="1"/>
        <pt x="55" y="31" on="0"/>
        <pt x="56" y="33" on="1"/>
        <pt x="56" y="35" on="1"/>
        <pt x="55" y="37" on="0"/>
        <pt x="55" y="40" on="1"/>
        <pt x="55" y="42" on="0"/>
        <pt x="57" y="48" on="1"/>
        <pt x="67" y="63" on="0"/>
        <pt x="346" y="381" on="1"/>
        <pt x="632" y="710" on="0"/>
        <pt x="644" y="714" on="0"/>
        <pt x="647" y="714" on="1"/>
        <pt x="655" y="714" on="0"/>
        <pt x="666" y="703" on="0"/>
        <pt x="666" y="694" on="1"/>
        <pt x="666" y="692" on="1"/>
        <pt x="676" y="687" on="0"/>
        <pt x="676" y="674" on="1"/>
        <pt x="676" y="668" on="0"/>
        <pt x="673" y="663" on="1"/>
        <pt x="672" y="662" on="0"/>
        <pt x="602" y="582" on="0"/>
        <pt x="465" y="424" on="0"/>
        <pt x="400" y="350" on="1"/>
        <pt x="147" y="61" on="1"/>
        <pt x="386" y="60" on="1"/>
        <pt x="653" y="60" on="1"/>
        <pt x="666" y="51" on="0"/>
        <pt x="666" y="40" on="1"/>
        <pt x="666" y="38" on="1"/>
        <pt x="676" y="30" on="0"/>
        <pt x="676" y="20" on="1"/>
        <pt x="676" y="7" on="0"/>
        <pt x="661" y="0" on="1"/>
      </contour>
    </TTGlyph>
    <TTGlyph name="approxequal" xMin="64" yMin="32" xMax="829" yMax="524">
      <contour>
        <pt x="807" y="524" on="1"/>
        <pt x="829" y="524" on="0"/>
        <pt x="829" y="479" on="1"/>
        <pt x="829" y="400" on="0"/>
        <pt x="722" y="300" on="0"/>
        <pt x="638" y="300" on="1"/>
        <pt x="612" y="300" on="0"/>
        <pt x="587" y="306" on="1"/>
        <pt x="532" y="318" on="0"/>
        <pt x="441" y="371" on="1"/>
        <pt x="364" y="414" on="0"/>
        <pt x="327" y="427" on="1"/>
        <pt x="290" y="439" on="0"/>
        <pt x="256" y="439" on="1"/>
        <pt x="205" y="439" on="0"/>
        <pt x="124" y="393" on="0"/>
        <pt x="110" y="359" on="1"/>
        <pt x="108" y="355" on="0"/>
        <pt x="106" y="328" on="0"/>
        <pt x="105" y="324" on="1"/>
        <pt x="98" y="300" on="0"/>
        <pt x="85" y="300" on="1"/>
        <pt x="81" y="300" on="0"/>
        <pt x="77" y="304" on="1"/>
        <pt x="64" y="315" on="0"/>
        <pt x="64" y="345" on="1"/>
        <pt x="64" y="424" on="0"/>
        <pt x="171" y="524" on="0"/>
        <pt x="250" y="524" on="1"/>
        <pt x="280" y="524" on="0"/>
        <pt x="306" y="518" on="1"/>
        <pt x="360" y="506" on="0"/>
        <pt x="453" y="453" on="1"/>
        <pt x="514" y="418" on="0"/>
        <pt x="581" y="391" on="0"/>
        <pt x="616" y="386" on="1"/>
        <pt x="623" y="385" on="0"/>
        <pt x="636" y="385" on="1"/>
        <pt x="706" y="385" on="0"/>
        <pt x="753" y="424" on="1"/>
        <pt x="786" y="454" on="0"/>
        <pt x="786" y="481" on="1"/>
        <pt x="786" y="496" on="0"/>
        <pt x="797" y="524" on="0"/>
      </contour>
      <contour>
        <pt x="808" y="256" on="1"/>
        <pt x="829" y="256" on="0"/>
        <pt x="829" y="208" on="1"/>
        <pt x="829" y="179" on="0"/>
        <pt x="819" y="152" on="1"/>
        <pt x="802" y="99" on="0"/>
        <pt x="707" y="32" on="0"/>
        <pt x="640" y="32" on="1"/>
        <pt x="612" y="32" on="0"/>
        <pt x="587" y="38" on="1"/>
        <pt x="535" y="49" on="0"/>
        <pt x="443" y="102" on="1"/>
        <pt x="368" y="144" on="0"/>
        <pt x="328" y="158" on="1"/>
        <pt x="290" y="171" on="0"/>
        <pt x="256" y="171" on="1"/>
        <pt x="205" y="171" on="0"/>
        <pt x="124" y="125" on="0"/>
        <pt x="110" y="91" on="1"/>
        <pt x="108" y="87" on="0"/>
        <pt x="106" y="60" on="0"/>
        <pt x="105" y="56" on="1"/>
        <pt x="98" y="32" on="0"/>
        <pt x="85" y="32" on="1"/>
        <pt x="81" y="32" on="0"/>
        <pt x="77" y="36" on="1"/>
        <pt x="64" y="47" on="0"/>
        <pt x="64" y="77" on="1"/>
        <pt x="64" y="156" on="0"/>
        <pt x="171" y="256" on="0"/>
        <pt x="250" y="256" on="1"/>
        <pt x="280" y="256" on="0"/>
        <pt x="306" y="250" on="1"/>
        <pt x="357" y="240" on="0"/>
        <pt x="453" y="185" on="1"/>
        <pt x="514" y="150" on="0"/>
        <pt x="581" y="123" on="0"/>
        <pt x="616" y="118" on="1"/>
        <pt x="623" y="117" on="0"/>
        <pt x="636" y="117" on="1"/>
        <pt x="681" y="117" on="0"/>
        <pt x="761" y="155" on="0"/>
        <pt x="778" y="186" on="1"/>
        <pt x="786" y="202" on="0"/>
        <pt x="786" y="213" on="1"/>
        <pt x="786" y="231" on="0"/>
        <pt x="799" y="256" on="0"/>
      </contour>
    </TTGlyph>
    <TTGlyph name="arrowboth" xMin="64" yMin="-17" xMax="1085" yMax="518">
      <contour>
        <pt x="316" y="516" on="1"/>
        <pt x="319" y="518" on="0"/>
        <pt x="338" y="518" on="1"/>
        <pt x="360" y="517" on="0"/>
        <pt x="370" y="503" on="0"/>
        <pt x="364" y="484" on="1"/>
        <pt x="345" y="401" on="0"/>
        <pt x="287" y="331" on="1"/>
        <pt x="251" y="292" on="0"/>
        <pt x="235" y="282" on="1"/>
        <pt x="404" y="281" on="1"/>
        <pt x="744" y="281" on="1"/>
        <pt x="914" y="282" on="1"/>
        <pt x="895" y="295" on="0"/>
        <pt x="862" y="331" on="1"/>
        <pt x="801" y="404" on="0"/>
        <pt x="785" y="484" on="1"/>
        <pt x="779" y="503" on="0"/>
        <pt x="789" y="517" on="0"/>
        <pt x="811" y="518" on="1"/>
        <pt x="829" y="518" on="0"/>
        <pt x="833" y="516" on="1"/>
        <pt x="839" y="513" on="0"/>
        <pt x="844" y="495" on="1"/>
        <pt x="863" y="413" on="0"/>
        <pt x="980" y="291" on="0"/>
        <pt x="1065" y="270" on="1"/>
        <pt x="1083" y="264" on="0"/>
        <pt x="1084" y="256" on="1"/>
        <pt x="1085" y="254" on="0"/>
        <pt x="1085" y="248" on="0"/>
        <pt x="1084" y="243" on="0"/>
        <pt x="1082" y="240" on="0"/>
        <pt x="1080" y="238" on="0"/>
        <pt x="1075" y="235" on="0"/>
        <pt x="1072" y="234" on="0"/>
        <pt x="1067" y="232" on="0"/>
        <pt x="1065" y="231" on="1"/>
        <pt x="980" y="210" on="0"/>
        <pt x="863" y="88" on="0"/>
        <pt x="844" y="6" on="1"/>
        <pt x="839" y="-12" on="0"/>
        <pt x="832" y="-17" on="0"/>
        <pt x="811" y="-17" on="1"/>
        <pt x="789" y="-16" on="0"/>
        <pt x="779" y="-2" on="0"/>
        <pt x="785" y="17" on="1"/>
        <pt x="804" y="100" on="0"/>
        <pt x="862" y="170" on="1"/>
        <pt x="889" y="199" on="0"/>
        <pt x="914" y="220" on="1"/>
        <pt x="235" y="220" on="1"/>
        <pt x="342" y="130" on="0"/>
        <pt x="364" y="17" on="1"/>
        <pt x="370" y="-2" on="0"/>
        <pt x="360" y="-16" on="0"/>
        <pt x="338" y="-17" on="1"/>
        <pt x="320" y="-17" on="0"/>
        <pt x="316" y="-15" on="1"/>
        <pt x="310" y="-12" on="0"/>
        <pt x="305" y="6" on="1"/>
        <pt x="285" y="90" on="0"/>
        <pt x="166" y="210" on="0"/>
        <pt x="78" y="233" on="1"/>
        <pt x="64" y="237" on="0"/>
        <pt x="64" y="251" on="1"/>
        <pt x="64" y="264" on="0"/>
        <pt x="78" y="268" on="1"/>
        <pt x="166" y="291" on="0"/>
        <pt x="285" y="411" on="0"/>
        <pt x="305" y="495" on="1"/>
        <pt x="310" y="512" on="0"/>
      </contour>
    </TTGlyph>
    <TTGlyph name="arrowdblboth" xMin="47" yMin="-46" xMax="1102" yMax="547">
      <contour>
        <pt x="364" y="545" on="1"/>
        <pt x="367" y="547" on="0"/>
        <pt x="401" y="547" on="0"/>
        <pt x="405" y="545" on="1"/>
        <pt x="418" y="538" on="0"/>
        <pt x="414" y="525" on="1"/>
        <pt x="398" y="475" on="0"/>
        <pt x="346" y="408" on="1"/>
        <pt x="335" y="393" on="1"/>
        <pt x="814" y="393" on="1"/>
        <pt x="803" y="408" on="1"/>
        <pt x="781" y="436" on="0"/>
        <pt x="764" y="467" on="1"/>
        <pt x="743" y="500" on="0"/>
        <pt x="735" y="525" on="1"/>
        <pt x="731" y="538" on="0"/>
        <pt x="744" y="545" on="1"/>
        <pt x="748" y="547" on="0"/>
        <pt x="782" y="547" on="0"/>
        <pt x="791" y="541" on="0"/>
        <pt x="799" y="525" on="1"/>
        <pt x="800" y="522" on="0"/>
        <pt x="805" y="512" on="0"/>
        <pt x="812" y="500" on="0"/>
        <pt x="813" y="497" on="1"/>
        <pt x="903" y="335" on="0"/>
        <pt x="1078" y="272" on="1"/>
        <pt x="1098" y="265" on="0"/>
        <pt x="1100" y="260" on="1"/>
        <pt x="1102" y="256" on="0"/>
        <pt x="1102" y="251" on="1"/>
        <pt x="1102" y="241" on="0"/>
        <pt x="1089" y="234" on="1"/>
        <pt x="1086" y="233" on="0"/>
        <pt x="1085" y="232" on="1"/>
        <pt x="981" y="195" on="0"/>
        <pt x="902" y="121" on="1"/>
        <pt x="835" y="56" on="0"/>
        <pt x="798" y="-25" on="1"/>
        <pt x="791" y="-40" on="0"/>
        <pt x="782" y="-46" on="0"/>
        <pt x="748" y="-46" on="0"/>
        <pt x="744" y="-44" on="1"/>
        <pt x="731" y="-37" on="0"/>
        <pt x="735" y="-24" on="1"/>
        <pt x="740" y="-8" on="0"/>
        <pt x="766" y="39" on="1"/>
        <pt x="785" y="71" on="0"/>
        <pt x="806" y="98" on="1"/>
        <pt x="814" y="108" on="1"/>
        <pt x="335" y="108" on="1"/>
        <pt x="343" y="98" on="1"/>
        <pt x="364" y="71" on="0"/>
        <pt x="383" y="39" on="1"/>
        <pt x="409" y="-8" on="0"/>
        <pt x="414" y="-24" on="1"/>
        <pt x="418" y="-37" on="0"/>
        <pt x="405" y="-44" on="1"/>
        <pt x="401" y="-46" on="0"/>
        <pt x="367" y="-46" on="0"/>
        <pt x="358" y="-40" on="0"/>
        <pt x="351" y="-25" on="1"/>
        <pt x="314" y="56" on="0"/>
        <pt x="247" y="121" on="1"/>
        <pt x="168" y="195" on="0"/>
        <pt x="64" y="232" on="1"/>
        <pt x="63" y="233" on="0"/>
        <pt x="57" y="236" on="0"/>
        <pt x="54" y="237" on="0"/>
        <pt x="50" y="240" on="0"/>
        <pt x="48" y="243" on="0"/>
        <pt x="47" y="248" on="0"/>
        <pt x="47" y="251" on="1"/>
        <pt x="47" y="255" on="0"/>
        <pt x="49" y="260" on="0"/>
        <pt x="51" y="264" on="0"/>
        <pt x="57" y="267" on="0"/>
        <pt x="60" y="268" on="0"/>
        <pt x="69" y="271" on="0"/>
        <pt x="71" y="272" on="1"/>
        <pt x="246" y="335" on="0"/>
        <pt x="336" y="497" on="1"/>
        <pt x="358" y="542" on="0"/>
      </contour>
      <contour>
        <pt x="985" y="251" on="1"/>
        <pt x="926" y="285" on="0"/>
        <pt x="882" y="323" on="1"/>
        <pt x="871" y="332" on="1"/>
        <pt x="278" y="332" on="1"/>
        <pt x="273" y="328" on="1"/>
        <pt x="231" y="290" on="0"/>
        <pt x="164" y="251" on="1"/>
        <pt x="176" y="244" on="1"/>
        <pt x="213" y="223" on="0"/>
        <pt x="278" y="169" on="1"/>
        <pt x="871" y="169" on="1"/>
        <pt x="929" y="219" on="0"/>
        <pt x="973" y="244" on="1"/>
      </contour>
    </TTGlyph>
    <TTGlyph name="arrowdbldown" xMin="30" yMin="-194" xMax="672" yMax="694">
      <contour>
        <pt x="433" y="671" on="1"/>
        <pt x="434" y="672" on="0"/>
        <pt x="437" y="678" on="0"/>
        <pt x="439" y="680" on="0"/>
        <pt x="442" y="685" on="0"/>
        <pt x="445" y="687" on="0"/>
        <pt x="449" y="690" on="0"/>
        <pt x="454" y="692" on="0"/>
        <pt x="460" y="693" on="0"/>
        <pt x="463" y="693" on="1"/>
        <pt x="484" y="693" on="0"/>
        <pt x="492" y="674" on="1"/>
        <pt x="494" y="666" on="0"/>
        <pt x="494" y="382" on="1"/>
        <pt x="494" y="94" on="0"/>
        <pt x="495" y="94" on="1"/>
        <pt x="499" y="97" on="0"/>
        <pt x="504" y="101" on="1"/>
        <pt x="548" y="136" on="0"/>
        <pt x="598" y="163" on="1"/>
        <pt x="640" y="185" on="0"/>
        <pt x="652" y="187" on="1"/>
        <pt x="665" y="191" on="0"/>
        <pt x="671" y="177" on="1"/>
        <pt x="672" y="175" on="0"/>
        <pt x="672" y="139" on="0"/>
        <pt x="670" y="136" on="1"/>
        <pt x="667" y="131" on="0"/>
        <pt x="636" y="116" on="1"/>
        <pt x="489" y="45" on="0"/>
        <pt x="407" y="-97" on="1"/>
        <pt x="386" y="-135" on="0"/>
        <pt x="376" y="-162" on="1"/>
        <pt x="375" y="-165" on="0"/>
        <pt x="370" y="-178" on="0"/>
        <pt x="367" y="-184" on="0"/>
        <pt x="362" y="-191" on="0"/>
        <pt x="356" y="-194" on="0"/>
        <pt x="346" y="-194" on="0"/>
        <pt x="340" y="-191" on="0"/>
        <pt x="335" y="-184" on="0"/>
        <pt x="332" y="-178" on="0"/>
        <pt x="327" y="-165" on="0"/>
        <pt x="326" y="-162" on="1"/>
        <pt x="316" y="-135" on="0"/>
        <pt x="295" y="-97" on="1"/>
        <pt x="213" y="45" on="0"/>
        <pt x="66" y="116" on="1"/>
        <pt x="35" y="131" on="0"/>
        <pt x="32" y="136" on="1"/>
        <pt x="30" y="139" on="0"/>
        <pt x="30" y="175" on="0"/>
        <pt x="31" y="177" on="1"/>
        <pt x="37" y="191" on="0"/>
        <pt x="50" y="187" on="1"/>
        <pt x="62" y="185" on="0"/>
        <pt x="104" y="163" on="1"/>
        <pt x="154" y="136" on="0"/>
        <pt x="198" y="101" on="1"/>
        <pt x="207" y="94" on="1"/>
        <pt x="208" y="94" on="0"/>
        <pt x="208" y="382" on="1"/>
        <pt x="208" y="666" on="0"/>
        <pt x="210" y="674" on="1"/>
        <pt x="218" y="694" on="0"/>
        <pt x="241" y="694" on="1"/>
        <pt x="254" y="692" on="0"/>
        <pt x="262" y="683" on="1"/>
        <pt x="266" y="679" on="0"/>
        <pt x="267" y="674" on="1"/>
        <pt x="269" y="658" on="0"/>
        <pt x="269" y="522" on="1"/>
        <pt x="269" y="35" on="1"/>
        <pt x="279" y="23" on="1"/>
        <pt x="315" y="-18" on="0"/>
        <pt x="345" y="-70" on="1"/>
        <pt x="351" y="-79" on="1"/>
        <pt x="354" y="-75" on="0"/>
        <pt x="357" y="-70" on="1"/>
        <pt x="387" y="-18" on="0"/>
        <pt x="423" y="23" on="1"/>
        <pt x="433" y="35" on="1"/>
      </contour>
    </TTGlyph>
    <TTGlyph name="arrowdblleft" xMin="64" yMin="-46" xMax="1085" yMax="547">
      <contour>
        <pt x="440" y="543" on="0"/>
        <pt x="448" y="547" on="0"/>
        <pt x="465" y="547" on="1"/>
        <pt x="487" y="547" on="0"/>
        <pt x="492" y="539" on="1"/>
        <pt x="496" y="531" on="0"/>
        <pt x="496" y="530" on="1"/>
        <pt x="496" y="524" on="0"/>
        <pt x="486" y="507" on="1"/>
        <pt x="455" y="452" on="0"/>
        <pt x="414" y="405" on="1"/>
        <pt x="404" y="394" on="1"/>
        <pt x="733" y="393" on="1"/>
        <pt x="1063" y="393" on="1"/>
        <pt x="1067" y="390" on="1"/>
        <pt x="1085" y="383" on="0"/>
        <pt x="1085" y="362" on="1"/>
        <pt x="1085" y="344" on="0"/>
        <pt x="1063" y="333" on="1"/>
        <pt x="700" y="332" on="1"/>
        <pt x="338" y="332" on="1"/>
        <pt x="324" y="321" on="1"/>
        <pt x="283" y="290" on="0"/>
        <pt x="230" y="264" on="1"/>
        <pt x="205" y="250" on="1"/>
        <pt x="207" y="249" on="1"/>
        <pt x="209" y="248" on="0"/>
        <pt x="213" y="246" on="0"/>
        <pt x="219" y="243" on="0"/>
        <pt x="222" y="242" on="1"/>
        <pt x="279" y="214" on="0"/>
        <pt x="323" y="180" on="1"/>
        <pt x="338" y="170" on="1"/>
        <pt x="700" y="169" on="1"/>
        <pt x="1063" y="169" on="1"/>
        <pt x="1067" y="166" on="1"/>
        <pt x="1085" y="158" on="0"/>
        <pt x="1085" y="120" on="0"/>
        <pt x="1063" y="109" on="1"/>
        <pt x="733" y="108" on="1"/>
        <pt x="404" y="108" on="1"/>
        <pt x="412" y="99" on="1"/>
        <pt x="455" y="50" on="0"/>
        <pt x="488" y="-10" on="1"/>
        <pt x="498" y="-27" on="0"/>
        <pt x="493" y="-37" on="1"/>
        <pt x="487" y="-46" on="0"/>
        <pt x="465" y="-46" on="1"/>
        <pt x="460" y="-46" on="1"/>
        <pt x="447" y="-46" on="0"/>
        <pt x="439" y="-40" on="0"/>
        <pt x="430" y="-24" on="1"/>
        <pt x="354" y="112" on="0"/>
        <pt x="215" y="185" on="1"/>
        <pt x="158" y="214" on="0"/>
        <pt x="99" y="229" on="1"/>
        <pt x="69" y="235" on="0"/>
        <pt x="66" y="243" on="1"/>
        <pt x="64" y="247" on="0"/>
        <pt x="64" y="250" on="1"/>
        <pt x="64" y="261" on="0"/>
        <pt x="73" y="268" on="0"/>
        <pt x="90" y="271" on="1"/>
        <pt x="197" y="295" on="0"/>
        <pt x="377" y="432" on="0"/>
        <pt x="430" y="525" on="1"/>
      </contour>
    </TTGlyph>
    <TTGlyph name="arrowdblright" xMin="64" yMin="-46" xMax="1084" yMax="547">
      <contour>
        <pt x="64" y="362" on="1"/>
        <pt x="64" y="378" on="0"/>
        <pt x="87" y="393" on="1"/>
        <pt x="416" y="393" on="1"/>
        <pt x="745" y="394" on="1"/>
        <pt x="735" y="405" on="1"/>
        <pt x="694" y="452" on="0"/>
        <pt x="663" y="507" on="1"/>
        <pt x="652" y="525" on="0"/>
        <pt x="654" y="532" on="1"/>
        <pt x="656" y="541" on="0"/>
        <pt x="663" y="545" on="1"/>
        <pt x="667" y="547" on="0"/>
        <pt x="684" y="547" on="1"/>
        <pt x="689" y="547" on="1"/>
        <pt x="702" y="547" on="0"/>
        <pt x="710" y="541" on="0"/>
        <pt x="719" y="525" on="1"/>
        <pt x="772" y="432" on="0"/>
        <pt x="952" y="295" on="0"/>
        <pt x="1059" y="271" on="1"/>
        <pt x="1075" y="268" on="0"/>
        <pt x="1084" y="261" on="0"/>
        <pt x="1084" y="250" on="1"/>
        <pt x="1084" y="245" on="0"/>
        <pt x="1083" y="243" on="1"/>
        <pt x="1080" y="235" on="0"/>
        <pt x="1050" y="229" on="1"/>
        <pt x="910" y="194" on="0"/>
        <pt x="805" y="89" on="1"/>
        <pt x="755" y="39" on="0"/>
        <pt x="719" y="-24" on="1"/>
        <pt x="710" y="-40" on="0"/>
        <pt x="702" y="-46" on="0"/>
        <pt x="689" y="-46" on="1"/>
        <pt x="684" y="-46" on="1"/>
        <pt x="662" y="-46" on="0"/>
        <pt x="656" y="-37" on="1"/>
        <pt x="651" y="-27" on="0"/>
        <pt x="661" y="-10" on="1"/>
        <pt x="694" y="50" on="0"/>
        <pt x="737" y="99" on="1"/>
        <pt x="745" y="108" on="1"/>
        <pt x="416" y="108" on="1"/>
        <pt x="87" y="109" on="1"/>
        <pt x="64" y="119" on="0"/>
        <pt x="64" y="139" on="1"/>
        <pt x="64" y="156" on="0"/>
        <pt x="87" y="169" on="1"/>
        <pt x="449" y="169" on="1"/>
        <pt x="812" y="170" on="1"/>
        <pt x="826" y="180" on="1"/>
        <pt x="871" y="215" on="0"/>
        <pt x="928" y="242" on="1"/>
        <pt x="930" y="243" on="0"/>
        <pt x="936" y="246" on="0"/>
        <pt x="940" y="248" on="0"/>
        <pt x="942" y="249" on="1"/>
        <pt x="944" y="250" on="1"/>
        <pt x="919" y="264" on="1"/>
        <pt x="866" y="290" on="0"/>
        <pt x="825" y="321" on="1"/>
        <pt x="811" y="332" on="1"/>
        <pt x="449" y="332" on="1"/>
        <pt x="87" y="333" on="1"/>
        <pt x="64" y="344" on="0"/>
      </contour>
    </TTGlyph>
    <TTGlyph name="arrowdblup" xMin="30" yMin="-193" xMax="672" yMax="694">
      <contour>
        <pt x="463" y="-193" on="1"/>
        <pt x="444" y="-193" on="0"/>
        <pt x="433" y="-170" on="1"/>
        <pt x="433" y="465" on="1"/>
        <pt x="423" y="477" on="1"/>
        <pt x="387" y="518" on="0"/>
        <pt x="357" y="570" on="1"/>
        <pt x="351" y="579" on="1"/>
        <pt x="348" y="575" on="0"/>
        <pt x="345" y="570" on="1"/>
        <pt x="315" y="518" on="0"/>
        <pt x="279" y="477" on="1"/>
        <pt x="269" y="465" on="1"/>
        <pt x="269" y="-22" on="1"/>
        <pt x="269" y="-178" on="0"/>
        <pt x="264" y="-182" on="1"/>
        <pt x="263" y="-182" on="0"/>
        <pt x="262" y="-183" on="1"/>
        <pt x="261" y="-185" on="0"/>
        <pt x="257" y="-188" on="1"/>
        <pt x="253" y="-191" on="1"/>
        <pt x="248" y="-193" on="0"/>
        <pt x="239" y="-193" on="1"/>
        <pt x="218" y="-193" on="0"/>
        <pt x="210" y="-174" on="1"/>
        <pt x="208" y="-166" on="0"/>
        <pt x="208" y="118" on="1"/>
        <pt x="208" y="406" on="0"/>
        <pt x="207" y="406" on="1"/>
        <pt x="204" y="403" on="0"/>
        <pt x="200" y="400" on="1"/>
        <pt x="162" y="368" on="0"/>
        <pt x="100" y="335" on="1"/>
        <pt x="60" y="315" on="0"/>
        <pt x="50" y="313" on="1"/>
        <pt x="37" y="309" on="0"/>
        <pt x="31" y="323" on="1"/>
        <pt x="30" y="325" on="0"/>
        <pt x="30" y="361" on="0"/>
        <pt x="32" y="365" on="1"/>
        <pt x="35" y="369" on="0"/>
        <pt x="66" y="384" on="1"/>
        <pt x="87" y="393" on="0"/>
        <pt x="100" y="401" on="1"/>
        <pt x="267" y="499" on="0"/>
        <pt x="333" y="680" on="1"/>
        <pt x="339" y="694" on="0"/>
        <pt x="351" y="694" on="1"/>
        <pt x="364" y="694" on="0"/>
        <pt x="369" y="680" on="1"/>
        <pt x="444" y="476" on="0"/>
        <pt x="636" y="384" on="1"/>
        <pt x="667" y="369" on="0"/>
        <pt x="670" y="365" on="1"/>
        <pt x="672" y="361" on="0"/>
        <pt x="672" y="325" on="0"/>
        <pt x="671" y="323" on="1"/>
        <pt x="665" y="309" on="0"/>
        <pt x="652" y="313" on="1"/>
        <pt x="642" y="315" on="0"/>
        <pt x="602" y="335" on="1"/>
        <pt x="540" y="368" on="0"/>
        <pt x="502" y="400" on="1"/>
        <pt x="495" y="406" on="1"/>
        <pt x="494" y="406" on="0"/>
        <pt x="494" y="118" on="1"/>
        <pt x="494" y="-166" on="0"/>
        <pt x="492" y="-174" on="1"/>
        <pt x="484" y="-193" on="0"/>
      </contour>
    </TTGlyph>
    <TTGlyph name="arrowdown" xMin="14" yMin="-194" xMax="561" yMax="694">
      <contour>
        <pt x="14" y="77" on="1"/>
        <pt x="14" y="92" on="0"/>
        <pt x="22" y="104" on="0"/>
        <pt x="33" y="104" on="1"/>
        <pt x="47" y="104" on="0"/>
        <pt x="86" y="91" on="1"/>
        <pt x="183" y="56" on="0"/>
        <pt x="247" y="-17" on="1"/>
        <pt x="257" y="-29" on="1"/>
        <pt x="257" y="321" on="1"/>
        <pt x="257" y="669" on="0"/>
        <pt x="259" y="675" on="1"/>
        <pt x="267" y="694" on="0"/>
        <pt x="289" y="694" on="1"/>
        <pt x="308" y="692" on="0"/>
        <pt x="315" y="676" on="1"/>
        <pt x="318" y="672" on="1"/>
        <pt x="318" y="321" on="1"/>
        <pt x="319" y="-29" on="1"/>
        <pt x="329" y="-17" on="1"/>
        <pt x="391" y="56" on="0"/>
        <pt x="489" y="91" on="1"/>
        <pt x="528" y="104" on="0"/>
        <pt x="542" y="104" on="1"/>
        <pt x="553" y="104" on="0"/>
        <pt x="561" y="92" on="0"/>
        <pt x="561" y="77" on="1"/>
        <pt x="561" y="56" on="0"/>
        <pt x="556" y="50" on="1"/>
        <pt x="552" y="45" on="0"/>
        <pt x="535" y="41" on="1"/>
        <pt x="454" y="22" on="0"/>
        <pt x="332" y="-92" on="0"/>
        <pt x="307" y="-172" on="1"/>
        <pt x="304" y="-194" on="0"/>
        <pt x="288" y="-194" on="1"/>
        <pt x="278" y="-194" on="0"/>
        <pt x="271" y="-184" on="0"/>
        <pt x="267" y="-172" on="1"/>
        <pt x="246" y="-93" on="0"/>
        <pt x="121" y="23" on="0"/>
        <pt x="41" y="41" on="1"/>
        <pt x="23" y="45" on="0"/>
        <pt x="19" y="50" on="1"/>
        <pt x="14" y="56" on="0"/>
      </contour>
    </TTGlyph>
    <TTGlyph name="arrowleft" xMin="64" yMin="-17" xMax="1084" yMax="518">
      <contour>
        <pt x="1063" y="281" on="1"/>
        <pt x="1084" y="269" on="0"/>
        <pt x="1084" y="251" on="1"/>
        <pt x="1084" y="228" on="0"/>
        <pt x="1063" y="221" on="1"/>
        <pt x="649" y="220" on="1"/>
        <pt x="235" y="220" on="1"/>
        <pt x="342" y="130" on="0"/>
        <pt x="364" y="17" on="1"/>
        <pt x="370" y="-2" on="0"/>
        <pt x="360" y="-16" on="0"/>
        <pt x="338" y="-17" on="1"/>
        <pt x="320" y="-17" on="0"/>
        <pt x="316" y="-15" on="1"/>
        <pt x="310" y="-12" on="0"/>
        <pt x="305" y="6" on="1"/>
        <pt x="285" y="90" on="0"/>
        <pt x="166" y="210" on="0"/>
        <pt x="78" y="233" on="1"/>
        <pt x="64" y="237" on="0"/>
        <pt x="64" y="251" on="1"/>
        <pt x="64" y="264" on="0"/>
        <pt x="78" y="268" on="1"/>
        <pt x="166" y="291" on="0"/>
        <pt x="285" y="411" on="0"/>
        <pt x="305" y="495" on="1"/>
        <pt x="310" y="512" on="0"/>
        <pt x="316" y="516" on="1"/>
        <pt x="319" y="518" on="0"/>
        <pt x="338" y="518" on="1"/>
        <pt x="360" y="517" on="0"/>
        <pt x="370" y="503" on="0"/>
        <pt x="364" y="484" on="1"/>
        <pt x="345" y="401" on="0"/>
        <pt x="287" y="331" on="1"/>
        <pt x="251" y="292" on="0"/>
        <pt x="235" y="282" on="1"/>
        <pt x="649" y="281" on="1"/>
      </contour>
    </TTGlyph>
    <TTGlyph name="arrowright" xMin="65" yMin="-17" xMax="1085" yMax="518">
      <contour>
        <pt x="65" y="251" on="1"/>
        <pt x="65" y="269" on="0"/>
        <pt x="87" y="281" on="1"/>
        <pt x="500" y="281" on="1"/>
        <pt x="914" y="282" on="1"/>
        <pt x="895" y="295" on="0"/>
        <pt x="862" y="331" on="1"/>
        <pt x="807" y="397" on="0"/>
        <pt x="785" y="482" on="1"/>
        <pt x="781" y="500" on="0"/>
        <pt x="781" y="501" on="1"/>
        <pt x="781" y="512" on="0"/>
        <pt x="792" y="517" on="1"/>
        <pt x="794" y="518" on="0"/>
        <pt x="830" y="518" on="0"/>
        <pt x="833" y="516" on="1"/>
        <pt x="839" y="513" on="0"/>
        <pt x="844" y="495" on="1"/>
        <pt x="863" y="413" on="0"/>
        <pt x="980" y="291" on="0"/>
        <pt x="1065" y="270" on="1"/>
        <pt x="1083" y="264" on="0"/>
        <pt x="1084" y="256" on="1"/>
        <pt x="1085" y="254" on="0"/>
        <pt x="1085" y="248" on="0"/>
        <pt x="1084" y="243" on="0"/>
        <pt x="1082" y="240" on="0"/>
        <pt x="1080" y="238" on="0"/>
        <pt x="1075" y="235" on="0"/>
        <pt x="1072" y="234" on="0"/>
        <pt x="1067" y="232" on="0"/>
        <pt x="1065" y="231" on="1"/>
        <pt x="980" y="210" on="0"/>
        <pt x="863" y="88" on="0"/>
        <pt x="844" y="6" on="1"/>
        <pt x="839" y="-12" on="0"/>
        <pt x="832" y="-17" on="0"/>
        <pt x="811" y="-17" on="1"/>
        <pt x="789" y="-16" on="0"/>
        <pt x="779" y="-2" on="0"/>
        <pt x="785" y="17" on="1"/>
        <pt x="804" y="100" on="0"/>
        <pt x="862" y="170" on="1"/>
        <pt x="889" y="199" on="0"/>
        <pt x="914" y="220" on="1"/>
        <pt x="500" y="220" on="1"/>
        <pt x="87" y="221" on="1"/>
        <pt x="65" y="229" on="0"/>
      </contour>
    </TTGlyph>
    <TTGlyph name="arrowup" xMin="14" yMin="-193" xMax="561" yMax="694">
      <contour>
        <pt x="33" y="396" on="1"/>
        <pt x="22" y="396" on="0"/>
        <pt x="14" y="408" on="0"/>
        <pt x="14" y="423" on="1"/>
        <pt x="14" y="444" on="0"/>
        <pt x="19" y="450" on="1"/>
        <pt x="23" y="455" on="0"/>
        <pt x="41" y="459" on="1"/>
        <pt x="121" y="477" on="0"/>
        <pt x="246" y="593" on="0"/>
        <pt x="267" y="672" on="1"/>
        <pt x="268" y="674" on="0"/>
        <pt x="270" y="682" on="0"/>
        <pt x="271" y="685" on="0"/>
        <pt x="274" y="689" on="0"/>
        <pt x="278" y="691" on="0"/>
        <pt x="281" y="692" on="1"/>
        <pt x="285" y="694" on="0"/>
        <pt x="288" y="694" on="1"/>
        <pt x="298" y="692" on="0"/>
        <pt x="303" y="685" on="0"/>
        <pt x="307" y="672" on="1"/>
        <pt x="332" y="592" on="0"/>
        <pt x="454" y="478" on="0"/>
        <pt x="535" y="459" on="1"/>
        <pt x="552" y="455" on="0"/>
        <pt x="556" y="450" on="1"/>
        <pt x="561" y="444" on="0"/>
        <pt x="561" y="423" on="1"/>
        <pt x="561" y="408" on="0"/>
        <pt x="553" y="396" on="0"/>
        <pt x="542" y="396" on="1"/>
        <pt x="528" y="396" on="0"/>
        <pt x="489" y="409" on="1"/>
        <pt x="391" y="444" on="0"/>
        <pt x="329" y="517" on="1"/>
        <pt x="319" y="529" on="1"/>
        <pt x="318" y="179" on="1"/>
        <pt x="318" y="-171" on="1"/>
        <pt x="306" y="-193" on="0"/>
        <pt x="288" y="-193" on="1"/>
        <pt x="266" y="-193" on="0"/>
        <pt x="258" y="-171" on="1"/>
        <pt x="257" y="179" on="1"/>
        <pt x="257" y="529" on="1"/>
        <pt x="247" y="517" on="1"/>
        <pt x="183" y="444" on="0"/>
        <pt x="86" y="409" on="1"/>
        <pt x="47" y="396" on="0"/>
      </contour>
    </TTGlyph>
    <TTGlyph name="arrowupdn" xMin="14" yMin="-267" xMax="561" yMax="767">
      <contour>
        <pt x="33" y="469" on="1"/>
        <pt x="22" y="469" on="0"/>
        <pt x="14" y="481" on="0"/>
        <pt x="14" y="496" on="1"/>
        <pt x="14" y="517" on="0"/>
        <pt x="19" y="523" on="1"/>
        <pt x="23" y="528" on="0"/>
        <pt x="41" y="532" on="1"/>
        <pt x="121" y="551" on="0"/>
        <pt x="244" y="665" on="0"/>
        <pt x="268" y="745" on="1"/>
        <pt x="272" y="758" on="0"/>
        <pt x="279" y="767" on="0"/>
        <pt x="297" y="767" on="0"/>
        <pt x="303" y="759" on="0"/>
        <pt x="307" y="745" on="1"/>
        <pt x="332" y="665" on="0"/>
        <pt x="454" y="551" on="0"/>
        <pt x="535" y="532" on="1"/>
        <pt x="552" y="528" on="0"/>
        <pt x="556" y="523" on="1"/>
        <pt x="561" y="517" on="0"/>
        <pt x="561" y="496" on="1"/>
        <pt x="561" y="481" on="0"/>
        <pt x="553" y="469" on="0"/>
        <pt x="542" y="469" on="1"/>
        <pt x="528" y="469" on="0"/>
        <pt x="489" y="482" on="1"/>
        <pt x="391" y="517" on="0"/>
        <pt x="329" y="590" on="1"/>
        <pt x="319" y="602" on="1"/>
        <pt x="318" y="426" on="1"/>
        <pt x="318" y="74" on="1"/>
        <pt x="319" y="-102" on="1"/>
        <pt x="329" y="-90" on="1"/>
        <pt x="391" y="-17" on="0"/>
        <pt x="489" y="18" on="1"/>
        <pt x="528" y="31" on="0"/>
        <pt x="542" y="31" on="1"/>
        <pt x="553" y="31" on="0"/>
        <pt x="561" y="19" on="0"/>
        <pt x="561" y="4" on="1"/>
        <pt x="561" y="-17" on="0"/>
        <pt x="556" y="-23" on="1"/>
        <pt x="552" y="-28" on="0"/>
        <pt x="535" y="-32" on="1"/>
        <pt x="454" y="-51" on="0"/>
        <pt x="332" y="-165" on="0"/>
        <pt x="307" y="-245" on="1"/>
        <pt x="303" y="-259" on="0"/>
        <pt x="297" y="-267" on="0"/>
        <pt x="279" y="-267" on="0"/>
        <pt x="272" y="-258" on="0"/>
        <pt x="268" y="-245" on="1"/>
        <pt x="243" y="-165" on="0"/>
        <pt x="120" y="-51" on="0"/>
        <pt x="41" y="-32" on="1"/>
        <pt x="23" y="-28" on="0"/>
        <pt x="19" y="-23" on="1"/>
        <pt x="14" y="-17" on="0"/>
        <pt x="14" y="4" on="1"/>
        <pt x="14" y="19" on="0"/>
        <pt x="22" y="31" on="0"/>
        <pt x="33" y="31" on="1"/>
        <pt x="47" y="31" on="0"/>
        <pt x="86" y="18" on="1"/>
        <pt x="183" y="-17" on="0"/>
        <pt x="247" y="-90" on="1"/>
        <pt x="257" y="-102" on="1"/>
        <pt x="257" y="602" on="1"/>
        <pt x="247" y="590" on="1"/>
        <pt x="183" y="517" on="0"/>
        <pt x="86" y="482" on="1"/>
        <pt x="47" y="469" on="0"/>
      </contour>
    </TTGlyph>
    <TTGlyph name="asciicircum" xMin="126" yMin="520" xMax="448" yMax="694">
      <contour>
        <pt x="126" y="570" on="1"/>
        <pt x="287" y="694" on="1"/>
        <pt x="289" y="693" on="0"/>
        <pt x="448" y="571" on="0"/>
        <pt x="448" y="569" on="0"/>
        <pt x="414" y="520" on="0"/>
        <pt x="413" y="520" on="1"/>
        <pt x="410" y="520" on="0"/>
        <pt x="350" y="559" on="1"/>
        <pt x="287" y="597" on="1"/>
        <pt x="224" y="559" on="1"/>
        <pt x="164" y="520" on="0"/>
        <pt x="161" y="520" on="1"/>
        <pt x="160" y="520" on="0"/>
        <pt x="126" y="569" on="0"/>
      </contour>
    </TTGlyph>
    <TTGlyph name="asciitilde" xMin="96" yMin="202" xMax="478" yMax="344">
      <contour>
        <pt x="218" y="343" on="1"/>
        <pt x="230" y="345" on="0"/>
        <pt x="244" y="343" on="1"/>
        <pt x="263" y="339" on="0"/>
        <pt x="295" y="321" on="1"/>
        <pt x="336" y="297" on="0"/>
        <pt x="359" y="297" on="1"/>
        <pt x="393" y="297" on="0"/>
        <pt x="428" y="332" on="1"/>
        <pt x="440" y="344" on="1"/>
        <pt x="459" y="327" on="1"/>
        <pt x="463" y="324" on="0"/>
        <pt x="473" y="315" on="0"/>
        <pt x="476" y="312" on="1"/>
        <pt x="478" y="310" on="1"/>
        <pt x="416" y="240" on="0"/>
        <pt x="409" y="233" on="1"/>
        <pt x="375" y="202" on="0"/>
        <pt x="343" y="202" on="1"/>
        <pt x="317" y="202" on="0"/>
        <pt x="279" y="225" on="1"/>
        <pt x="238" y="249" on="0"/>
        <pt x="215" y="249" on="1"/>
        <pt x="181" y="249" on="0"/>
        <pt x="146" y="214" on="1"/>
        <pt x="134" y="202" on="1"/>
        <pt x="115" y="219" on="1"/>
        <pt x="111" y="222" on="0"/>
        <pt x="101" y="231" on="0"/>
        <pt x="98" y="234" on="1"/>
        <pt x="96" y="236" on="1"/>
        <pt x="158" y="306" on="0"/>
        <pt x="165" y="313" on="1"/>
        <pt x="194" y="339" on="0"/>
      </contour>
    </TTGlyph>
    <TTGlyph name="asterisk" xMin="73" yMin="306" xMax="501" yMax="750">
      <contour>
        <pt x="235" y="706" on="1"/>
        <pt x="235" y="724" on="0"/>
        <pt x="267" y="750" on="0"/>
        <pt x="287" y="750" on="1"/>
        <pt x="308" y="750" on="0"/>
        <pt x="339" y="725" on="0"/>
        <pt x="339" y="706" on="1"/>
        <pt x="339" y="685" on="0"/>
        <pt x="318" y="580" on="1"/>
        <pt x="318" y="579" on="1"/>
        <pt x="429" y="663" on="0"/>
        <pt x="433" y="665" on="1"/>
        <pt x="441" y="668" on="0"/>
        <pt x="449" y="668" on="1"/>
        <pt x="471" y="668" on="0"/>
        <pt x="501" y="633" on="0"/>
        <pt x="501" y="612" on="1"/>
        <pt x="501" y="582" on="0"/>
        <pt x="478" y="572" on="1"/>
        <pt x="355" y="528" on="0"/>
        <pt x="354" y="528" on="1"/>
        <pt x="352" y="528" on="0"/>
        <pt x="412" y="508" on="0"/>
        <pt x="476" y="486" on="0"/>
        <pt x="478" y="484" on="1"/>
        <pt x="501" y="472" on="0"/>
        <pt x="501" y="443" on="1"/>
        <pt x="501" y="422" on="0"/>
        <pt x="470" y="388" on="0"/>
        <pt x="449" y="388" on="1"/>
        <pt x="440" y="388" on="0"/>
        <pt x="433" y="391" on="1"/>
        <pt x="429" y="393" on="0"/>
        <pt x="318" y="477" on="1"/>
        <pt x="318" y="476" on="1"/>
        <pt x="339" y="371" on="0"/>
        <pt x="339" y="350" on="1"/>
        <pt x="339" y="332" on="0"/>
        <pt x="307" y="306" on="0"/>
        <pt x="267" y="306" on="0"/>
        <pt x="235" y="332" on="0"/>
        <pt x="235" y="350" on="1"/>
        <pt x="235" y="371" on="0"/>
        <pt x="256" y="476" on="1"/>
        <pt x="256" y="477" on="1"/>
        <pt x="145" y="393" on="0"/>
        <pt x="141" y="391" on="1"/>
        <pt x="133" y="388" on="0"/>
        <pt x="125" y="388" on="1"/>
        <pt x="103" y="388" on="0"/>
        <pt x="73" y="423" on="0"/>
        <pt x="73" y="444" on="1"/>
        <pt x="73" y="474" on="0"/>
        <pt x="96" y="484" on="1"/>
        <pt x="219" y="528" on="0"/>
        <pt x="220" y="528" on="1"/>
        <pt x="222" y="528" on="0"/>
        <pt x="162" y="548" on="0"/>
        <pt x="98" y="570" on="0"/>
        <pt x="96" y="572" on="1"/>
        <pt x="73" y="584" on="0"/>
        <pt x="73" y="613" on="1"/>
        <pt x="73" y="634" on="0"/>
        <pt x="104" y="668" on="0"/>
        <pt x="125" y="668" on="1"/>
        <pt x="134" y="668" on="0"/>
        <pt x="141" y="665" on="1"/>
        <pt x="145" y="663" on="0"/>
        <pt x="256" y="579" on="1"/>
        <pt x="256" y="580" on="1"/>
        <pt x="235" y="685" on="0"/>
      </contour>
    </TTGlyph>
    <TTGlyph name="asteriskmath" xMin="73" yMin="28" xMax="501" yMax="472">
      <contour>
        <pt x="338" y="431" on="1"/>
        <pt x="317" y="300" on="1"/>
        <pt x="318" y="300" on="0"/>
        <pt x="363" y="334" on="0"/>
        <pt x="422" y="378" on="0"/>
        <pt x="435" y="387" on="1"/>
        <pt x="444" y="390" on="0"/>
        <pt x="451" y="390" on="1"/>
        <pt x="472" y="390" on="0"/>
        <pt x="501" y="355" on="0"/>
        <pt x="501" y="335" on="1"/>
        <pt x="501" y="306" on="0"/>
        <pt x="479" y="295" on="1"/>
        <pt x="476" y="294" on="0"/>
        <pt x="461" y="288" on="1"/>
        <pt x="416" y="273" on="0"/>
        <pt x="353" y="250" on="1"/>
        <pt x="479" y="205" on="1"/>
        <pt x="501" y="194" on="0"/>
        <pt x="501" y="166" on="1"/>
        <pt x="501" y="146" on="0"/>
        <pt x="473" y="111" on="0"/>
        <pt x="452" y="111" on="1"/>
        <pt x="446" y="111" on="1"/>
        <pt x="437" y="112" on="0"/>
        <pt x="419" y="124" on="0"/>
        <pt x="374" y="158" on="1"/>
        <pt x="317" y="200" on="1"/>
        <pt x="322" y="172" on="1"/>
        <pt x="327" y="144" on="0"/>
        <pt x="338" y="79" on="0"/>
        <pt x="338" y="69" on="1"/>
        <pt x="336" y="52" on="0"/>
        <pt x="306" y="28" on="0"/>
        <pt x="268" y="28" on="0"/>
        <pt x="238" y="52" on="0"/>
        <pt x="236" y="69" on="1"/>
        <pt x="236" y="78" on="0"/>
        <pt x="247" y="144" on="0"/>
        <pt x="252" y="172" on="1"/>
        <pt x="257" y="200" on="1"/>
        <pt x="256" y="200" on="0"/>
        <pt x="211" y="166" on="0"/>
        <pt x="152" y="122" on="0"/>
        <pt x="139" y="113" on="1"/>
        <pt x="130" y="110" on="0"/>
        <pt x="123" y="110" on="1"/>
        <pt x="102" y="110" on="0"/>
        <pt x="73" y="145" on="0"/>
        <pt x="73" y="165" on="1"/>
        <pt x="73" y="194" on="0"/>
        <pt x="95" y="205" on="1"/>
        <pt x="98" y="206" on="0"/>
        <pt x="113" y="212" on="1"/>
        <pt x="158" y="227" on="0"/>
        <pt x="221" y="250" on="1"/>
        <pt x="158" y="273" on="0"/>
        <pt x="113" y="288" on="1"/>
        <pt x="98" y="294" on="0"/>
        <pt x="95" y="295" on="1"/>
        <pt x="73" y="306" on="0"/>
        <pt x="73" y="334" on="1"/>
        <pt x="73" y="354" on="0"/>
        <pt x="101" y="389" on="0"/>
        <pt x="122" y="389" on="1"/>
        <pt x="128" y="389" on="1"/>
        <pt x="137" y="388" on="0"/>
        <pt x="155" y="376" on="0"/>
        <pt x="200" y="342" on="1"/>
        <pt x="257" y="300" on="1"/>
        <pt x="252" y="328" on="1"/>
        <pt x="247" y="356" on="0"/>
        <pt x="236" y="421" on="0"/>
        <pt x="236" y="431" on="1"/>
        <pt x="237" y="447" on="0"/>
        <pt x="266" y="472" on="0"/>
        <pt x="287" y="472" on="1"/>
        <pt x="306" y="472" on="0"/>
        <pt x="338" y="449" on="0"/>
      </contour>
    </TTGlyph>
    <TTGlyph name="at" xMin="64" yMin="-6" xMax="829" yMax="699">
      <contour>
        <pt x="705" y="176" on="1"/>
        <pt x="767" y="176" on="0"/>
        <pt x="767" y="340" on="1"/>
        <pt x="767" y="483" on="0"/>
        <pt x="595" y="649" on="0"/>
        <pt x="446" y="649" on="1"/>
        <pt x="289" y="649" on="0"/>
        <pt x="205" y="558" on="1"/>
        <pt x="126" y="479" on="0"/>
        <pt x="126" y="346" on="1"/>
        <pt x="126" y="205" on="0"/>
        <pt x="305" y="45" on="0"/>
        <pt x="455" y="45" on="1"/>
        <pt x="463" y="45" on="1"/>
        <pt x="608" y="51" on="0"/>
        <pt x="721" y="91" on="1"/>
        <pt x="746" y="99" on="1"/>
        <pt x="782" y="99" on="1"/>
        <pt x="818" y="99" on="0"/>
        <pt x="822" y="97" on="1"/>
        <pt x="829" y="92" on="0"/>
        <pt x="829" y="85" on="1"/>
        <pt x="829" y="83" on="0"/>
        <pt x="827" y="79" on="1"/>
        <pt x="825" y="74" on="0"/>
        <pt x="797" y="62" on="1"/>
        <pt x="625" y="-6" on="0"/>
        <pt x="451" y="-6" on="1"/>
        <pt x="372" y="-6" on="0"/>
        <pt x="310" y="13" on="1"/>
        <pt x="207" y="41" on="0"/>
        <pt x="79" y="194" on="0"/>
        <pt x="66" y="307" on="1"/>
        <pt x="64" y="321" on="0"/>
        <pt x="64" y="347" on="1"/>
        <pt x="64" y="372" on="0"/>
        <pt x="66" y="388" on="1"/>
        <pt x="78" y="492" on="0"/>
        <pt x="132" y="562" on="1"/>
        <pt x="177" y="625" on="0"/>
        <pt x="335" y="699" on="0"/>
        <pt x="434" y="699" on="1"/>
        <pt x="487" y="699" on="0"/>
        <pt x="500" y="698" on="1"/>
        <pt x="616" y="685" on="0"/>
        <pt x="782" y="564" on="0"/>
        <pt x="811" y="464" on="1"/>
        <pt x="828" y="414" on="0"/>
        <pt x="828" y="344" on="1"/>
        <pt x="828" y="256" on="0"/>
        <pt x="769" y="137" on="0"/>
        <pt x="710" y="126" on="1"/>
        <pt x="706" y="125" on="0"/>
        <pt x="691" y="125" on="1"/>
        <pt x="617" y="125" on="0"/>
        <pt x="573" y="159" on="1"/>
        <pt x="572" y="160" on="0"/>
        <pt x="568" y="163" on="0"/>
        <pt x="567" y="164" on="1"/>
        <pt x="566" y="164" on="1"/>
        <pt x="560" y="158" on="0"/>
        <pt x="538" y="146" on="1"/>
        <pt x="494" y="125" on="0"/>
        <pt x="444" y="125" on="1"/>
        <pt x="350" y="125" on="0"/>
        <pt x="233" y="226" on="0"/>
        <pt x="219" y="311" on="1"/>
        <pt x="218" y="319" on="0"/>
        <pt x="218" y="347" on="1"/>
        <pt x="218" y="430" on="0"/>
        <pt x="262" y="488" on="1"/>
        <pt x="323" y="569" on="0"/>
        <pt x="448" y="569" on="1"/>
        <pt x="470" y="569" on="0"/>
        <pt x="479" y="567" on="1"/>
        <pt x="565" y="551" on="0"/>
        <pt x="610" y="479" on="1"/>
        <pt x="638" y="479" on="1"/>
        <pt x="652" y="479" on="1"/>
        <pt x="669" y="479" on="0"/>
        <pt x="674" y="471" on="1"/>
        <pt x="676" y="468" on="0"/>
        <pt x="676" y="340" on="1"/>
        <pt x="676" y="209" on="0"/>
        <pt x="677" y="206" on="1"/>
        <pt x="683" y="176" on="0"/>
      </contour>
      <contour>
        <pt x="547" y="468" on="1"/>
        <pt x="506" y="517" on="0"/>
        <pt x="444" y="517" on="1"/>
        <pt x="416" y="517" on="0"/>
        <pt x="391" y="494" on="1"/>
        <pt x="346" y="445" on="0"/>
        <pt x="346" y="249" on="0"/>
        <pt x="391" y="200" on="1"/>
        <pt x="417" y="177" on="0"/>
        <pt x="448" y="177" on="1"/>
        <pt x="505" y="177" on="0"/>
        <pt x="547" y="226" on="1"/>
      </contour>
    </TTGlyph>
    <TTGlyph name="b" xMin="29" yMin="-6" xMax="600" yMax="694">
      <contour>
        <pt x="32" y="686" on="1"/>
        <pt x="33" y="686" on="0"/>
        <pt x="214" y="694" on="0"/>
        <pt x="215" y="694" on="1"/>
        <pt x="221" y="694" on="1"/>
        <pt x="221" y="409" on="1"/>
        <pt x="291" y="450" on="0"/>
        <pt x="378" y="450" on="1"/>
        <pt x="479" y="450" on="0"/>
        <pt x="600" y="325" on="0"/>
        <pt x="600" y="221" on="1"/>
        <pt x="600" y="214" on="1"/>
        <pt x="595" y="111" on="0"/>
        <pt x="466" y="-6" on="0"/>
        <pt x="358" y="-6" on="1"/>
        <pt x="271" y="-6" on="0"/>
        <pt x="203" y="53" on="1"/>
        <pt x="182" y="25" on="0"/>
        <pt x="160" y="1" on="1"/>
        <pt x="129" y="0" on="1"/>
        <pt x="98" y="0" on="1"/>
        <pt x="98" y="301" on="1"/>
        <pt x="98" y="602" on="0"/>
        <pt x="96" y="607" on="1"/>
        <pt x="91" y="624" on="0"/>
        <pt x="42" y="624" on="1"/>
        <pt x="29" y="624" on="1"/>
        <pt x="29" y="686" on="1"/>
      </contour>
      <contour>
        <pt x="444" y="343" on="1"/>
        <pt x="421" y="398" on="0"/>
        <pt x="343" y="398" on="1"/>
        <pt x="284" y="398" on="0"/>
        <pt x="235" y="355" on="1"/>
        <pt x="227" y="348" on="1"/>
        <pt x="227" y="105" on="1"/>
        <pt x="233" y="98" on="1"/>
        <pt x="260" y="64" on="0"/>
        <pt x="298" y="52" on="1"/>
        <pt x="316" y="45" on="0"/>
        <pt x="339" y="45" on="1"/>
        <pt x="383" y="45" on="0"/>
        <pt x="444" y="91" on="0"/>
        <pt x="451" y="131" on="1"/>
        <pt x="457" y="158" on="0"/>
        <pt x="457" y="230" on="1"/>
        <pt x="457" y="310" on="0"/>
      </contour>
    </TTGlyph>
    <TTGlyph name="backslash" xMin="64" yMin="-250" xMax="510" yMax="750">
      <contour>
        <pt x="64" y="718" on="1"/>
        <pt x="63" y="731" on="0"/>
        <pt x="80" y="750" on="0"/>
        <pt x="94" y="750" on="1"/>
        <pt x="106" y="750" on="0"/>
        <pt x="113" y="743" on="1"/>
        <pt x="118" y="741" on="0"/>
        <pt x="122" y="732" on="1"/>
        <pt x="140" y="686" on="0"/>
        <pt x="340" y="202" on="0"/>
        <pt x="509" y="-209" on="0"/>
        <pt x="510" y="-218" on="1"/>
        <pt x="511" y="-231" on="0"/>
        <pt x="493" y="-250" on="0"/>
        <pt x="480" y="-250" on="1"/>
        <pt x="460" y="-250" on="0"/>
        <pt x="451" y="-230" on="1"/>
        <pt x="451" y="-229" on="0"/>
        <pt x="66" y="706" on="0"/>
      </contour>
    </TTGlyph>
    <TTGlyph name="bar" xMin="129" yMin="-249" xMax="190" yMax="750">
      <contour>
        <pt x="160" y="-249" on="1"/>
        <pt x="138" y="-249" on="0"/>
        <pt x="129" y="-225" on="1"/>
        <pt x="129" y="250" on="1"/>
        <pt x="129" y="725" on="0"/>
        <pt x="131" y="729" on="1"/>
        <pt x="139" y="750" on="0"/>
        <pt x="159" y="750" on="1"/>
        <pt x="180" y="750" on="0"/>
        <pt x="190" y="725" on="1"/>
        <pt x="190" y="-225" on="1"/>
        <pt x="181" y="-249" on="0"/>
      </contour>
    </TTGlyph>
    <TTGlyph name="braceleft" xMin="70" yMin="-250" xMax="504" yMax="750">
      <contour>
        <pt x="426" y="749" on="1"/>
        <pt x="428" y="749" on="0"/>
        <pt x="458" y="750" on="0"/>
        <pt x="466" y="750" on="1"/>
        <pt x="493" y="750" on="0"/>
        <pt x="497" y="748" on="1"/>
        <pt x="504" y="744" on="0"/>
        <pt x="504" y="725" on="1"/>
        <pt x="504" y="707" on="0"/>
        <pt x="497" y="700" on="0"/>
        <pt x="480" y="699" on="1"/>
        <pt x="381" y="694" on="0"/>
        <pt x="357" y="645" on="1"/>
        <pt x="352" y="634" on="0"/>
        <pt x="350" y="600" on="0"/>
        <pt x="350" y="497" on="1"/>
        <pt x="350" y="369" on="0"/>
        <pt x="349" y="363" on="1"/>
        <pt x="338" y="302" on="0"/>
        <pt x="273" y="268" on="1"/>
        <pt x="239" y="251" on="0"/>
        <pt x="227" y="251" on="1"/>
        <pt x="226" y="251" on="0"/>
        <pt x="226" y="250" on="1"/>
        <pt x="227" y="249" on="1"/>
        <pt x="239" y="249" on="0"/>
        <pt x="273" y="232" on="1"/>
        <pt x="307" y="214" on="0"/>
        <pt x="343" y="172" on="0"/>
        <pt x="349" y="137" on="1"/>
        <pt x="350" y="131" on="0"/>
        <pt x="350" y="-125" on="0"/>
        <pt x="352" y="-130" on="1"/>
        <pt x="358" y="-160" on="0"/>
        <pt x="426" y="-197" on="0"/>
        <pt x="480" y="-199" on="1"/>
        <pt x="497" y="-200" on="0"/>
        <pt x="504" y="-207" on="0"/>
        <pt x="504" y="-225" on="1"/>
        <pt x="504" y="-244" on="0"/>
        <pt x="497" y="-248" on="1"/>
        <pt x="493" y="-250" on="0"/>
        <pt x="469" y="-250" on="1"/>
        <pt x="339" y="-250" on="0"/>
        <pt x="277" y="-210" on="1"/>
        <pt x="239" y="-186" on="0"/>
        <pt x="227" y="-145" on="1"/>
        <pt x="225" y="-135" on="1"/>
        <pt x="224" y="0" on="1"/>
        <pt x="224" y="15" on="0"/>
        <pt x="224" y="46" on="0"/>
        <pt x="224" y="72" on="0"/>
        <pt x="224" y="97" on="0"/>
        <pt x="223" y="115" on="0"/>
        <pt x="223" y="129" on="0"/>
        <pt x="223" y="133" on="1"/>
        <pt x="223" y="137" on="1"/>
        <pt x="222" y="138" on="0"/>
        <pt x="220" y="146" on="1"/>
        <pt x="212" y="168" on="0"/>
        <pt x="195" y="185" on="1"/>
        <pt x="171" y="206" on="0"/>
        <pt x="141" y="215" on="1"/>
        <pt x="121" y="223" on="0"/>
        <pt x="93" y="224" on="1"/>
        <pt x="76" y="225" on="0"/>
        <pt x="70" y="233" on="0"/>
        <pt x="70" y="267" on="0"/>
        <pt x="76" y="275" on="0"/>
        <pt x="93" y="276" on="1"/>
        <pt x="121" y="277" on="0"/>
        <pt x="141" y="285" on="1"/>
        <pt x="171" y="294" on="0"/>
        <pt x="195" y="315" on="1"/>
        <pt x="212" y="332" on="0"/>
        <pt x="220" y="354" on="1"/>
        <pt x="222" y="362" on="0"/>
        <pt x="223" y="363" on="1"/>
        <pt x="223" y="367" on="1"/>
        <pt x="223" y="371" on="0"/>
        <pt x="223" y="385" on="0"/>
        <pt x="224" y="403" on="0"/>
        <pt x="224" y="428" on="0"/>
        <pt x="224" y="454" on="0"/>
        <pt x="224" y="486" on="0"/>
        <pt x="224" y="501" on="1"/>
        <pt x="225" y="636" on="1"/>
        <pt x="248" y="739" on="0"/>
      </contour>
    </TTGlyph>
    <TTGlyph name="braceright" xMin="70" yMin="-250" xMax="504" yMax="750">
      <contour>
        <pt x="78" y="748" on="1"/>
        <pt x="81" y="750" on="0"/>
        <pt x="106" y="750" on="1"/>
        <pt x="235" y="750" on="0"/>
        <pt x="298" y="710" on="1"/>
        <pt x="339" y="683" on="0"/>
        <pt x="349" y="636" on="1"/>
        <pt x="350" y="501" on="1"/>
        <pt x="350" y="486" on="0"/>
        <pt x="350" y="454" on="0"/>
        <pt x="350" y="428" on="0"/>
        <pt x="350" y="403" on="0"/>
        <pt x="351" y="385" on="0"/>
        <pt x="351" y="371" on="0"/>
        <pt x="351" y="367" on="1"/>
        <pt x="351" y="363" on="1"/>
        <pt x="352" y="362" on="0"/>
        <pt x="354" y="354" on="1"/>
        <pt x="362" y="332" on="0"/>
        <pt x="379" y="315" on="1"/>
        <pt x="403" y="294" on="0"/>
        <pt x="433" y="285" on="1"/>
        <pt x="453" y="277" on="0"/>
        <pt x="481" y="276" on="1"/>
        <pt x="498" y="275" on="0"/>
        <pt x="504" y="267" on="0"/>
        <pt x="504" y="233" on="0"/>
        <pt x="498" y="225" on="0"/>
        <pt x="481" y="224" on="1"/>
        <pt x="453" y="223" on="0"/>
        <pt x="433" y="215" on="1"/>
        <pt x="403" y="206" on="0"/>
        <pt x="379" y="185" on="1"/>
        <pt x="362" y="168" on="0"/>
        <pt x="354" y="146" on="1"/>
        <pt x="352" y="138" on="0"/>
        <pt x="351" y="137" on="1"/>
        <pt x="351" y="133" on="1"/>
        <pt x="351" y="129" on="0"/>
        <pt x="351" y="115" on="0"/>
        <pt x="350" y="97" on="0"/>
        <pt x="350" y="72" on="0"/>
        <pt x="350" y="46" on="0"/>
        <pt x="350" y="15" on="0"/>
        <pt x="350" y="0" on="1"/>
        <pt x="349" y="-135" on="1"/>
        <pt x="347" y="-145" on="1"/>
        <pt x="335" y="-186" on="0"/>
        <pt x="298" y="-210" on="1"/>
        <pt x="235" y="-250" on="0"/>
        <pt x="106" y="-250" on="1"/>
        <pt x="77" y="-250" on="0"/>
        <pt x="73" y="-244" on="1"/>
        <pt x="70" y="-240" on="0"/>
        <pt x="70" y="-226" on="1"/>
        <pt x="70" y="-208" on="0"/>
        <pt x="77" y="-200" on="0"/>
        <pt x="95" y="-199" on="1"/>
        <pt x="193" y="-193" on="0"/>
        <pt x="217" y="-145" on="1"/>
        <pt x="222" y="-134" on="0"/>
        <pt x="224" y="-100" on="0"/>
        <pt x="224" y="3" on="1"/>
        <pt x="224" y="131" on="0"/>
        <pt x="225" y="137" on="1"/>
        <pt x="231" y="172" on="0"/>
        <pt x="267" y="214" on="0"/>
        <pt x="301" y="232" on="1"/>
        <pt x="335" y="249" on="0"/>
        <pt x="347" y="249" on="1"/>
        <pt x="348" y="249" on="0"/>
        <pt x="348" y="250" on="1"/>
        <pt x="347" y="251" on="1"/>
        <pt x="335" y="251" on="0"/>
        <pt x="301" y="268" on="1"/>
        <pt x="236" y="302" on="0"/>
        <pt x="225" y="363" on="1"/>
        <pt x="224" y="369" on="0"/>
        <pt x="224" y="625" on="0"/>
        <pt x="222" y="631" on="1"/>
        <pt x="216" y="660" on="0"/>
        <pt x="148" y="697" on="0"/>
        <pt x="95" y="699" on="1"/>
        <pt x="77" y="700" on="0"/>
        <pt x="70" y="708" on="0"/>
        <pt x="70" y="726" on="1"/>
        <pt x="71" y="745" on="0"/>
      </contour>
    </TTGlyph>
    <TTGlyph name="bracketleft" xMin="128" yMin="-250" xMax="293" yMax="750">
      <contour>
        <pt x="128" y="-250" on="1"/>
        <pt x="128" y="750" on="1"/>
        <pt x="293" y="750" on="1"/>
        <pt x="293" y="689" on="1"/>
        <pt x="189" y="689" on="1"/>
        <pt x="189" y="-189" on="1"/>
        <pt x="293" y="-189" on="1"/>
        <pt x="293" y="-250" on="1"/>
      </contour>
    </TTGlyph>
    <TTGlyph name="bracketright" xMin="25" yMin="-250" xMax="190" yMax="750">
      <contour>
        <pt x="25" y="689" on="1"/>
        <pt x="25" y="750" on="1"/>
        <pt x="190" y="750" on="1"/>
        <pt x="190" y="-250" on="1"/>
        <pt x="25" y="-250" on="1"/>
        <pt x="25" y="-189" on="1"/>
        <pt x="129" y="-189" on="1"/>
        <pt x="129" y="689" on="1"/>
      </contour>
    </TTGlyph>
    <TTGlyph name="breve" xMin="102" yMin="500" xMax="472" yMax="694">
      <contour>
        <pt x="287" y="578" on="1"/>
        <pt x="343" y="578" on="0"/>
        <pt x="416" y="639" on="0"/>
        <pt x="421" y="685" on="1"/>
        <pt x="421" y="694" on="1"/>
        <pt x="472" y="694" on="1"/>
        <pt x="472" y="689" on="1"/>
        <pt x="472" y="660" on="0"/>
        <pt x="461" y="630" on="1"/>
        <pt x="442" y="571" on="0"/>
        <pt x="346" y="500" on="0"/>
        <pt x="287" y="500" on="1"/>
        <pt x="266" y="500" on="0"/>
        <pt x="249" y="504" on="1"/>
        <pt x="189" y="518" on="0"/>
        <pt x="102" y="620" on="0"/>
        <pt x="102" y="689" on="1"/>
        <pt x="102" y="694" on="1"/>
        <pt x="153" y="694" on="1"/>
        <pt x="153" y="685" on="1"/>
        <pt x="156" y="667" on="1"/>
        <pt x="167" y="629" on="0"/>
        <pt x="237" y="578" on="0"/>
      </contour>
    </TTGlyph>
    <TTGlyph name="c" xMin="39" yMin="-6" xMax="478" yMax="453">
      <contour>
        <pt x="295" y="398" on="1"/>
        <pt x="229" y="398" on="0"/>
        <pt x="182" y="315" on="0"/>
        <pt x="182" y="231" on="1"/>
        <pt x="182" y="155" on="0"/>
        <pt x="220" y="72" on="0"/>
        <pt x="270" y="57" on="1"/>
        <pt x="289" y="50" on="0"/>
        <pt x="317" y="50" on="1"/>
        <pt x="326" y="50" on="1"/>
        <pt x="385" y="50" on="0"/>
        <pt x="414" y="115" on="1"/>
        <pt x="419" y="127" on="0"/>
        <pt x="427" y="131" on="0"/>
        <pt x="447" y="131" on="1"/>
        <pt x="468" y="131" on="0"/>
        <pt x="471" y="129" on="1"/>
        <pt x="478" y="126" on="0"/>
        <pt x="478" y="117" on="1"/>
        <pt x="478" y="115" on="0"/>
        <pt x="474" y="105" on="1"/>
        <pt x="449" y="37" on="0"/>
        <pt x="377" y="9" on="1"/>
        <pt x="330" y="-6" on="0"/>
        <pt x="286" y="-6" on="1"/>
        <pt x="196" y="-6" on="0"/>
        <pt x="135" y="35" on="1"/>
        <pt x="39" y="95" on="0"/>
        <pt x="39" y="222" on="1"/>
        <pt x="39" y="325" on="0"/>
        <pt x="101" y="384" on="1"/>
        <pt x="168" y="453" on="0"/>
        <pt x="286" y="453" on="1"/>
        <pt x="464" y="453" on="0"/>
        <pt x="464" y="353" on="1"/>
        <pt x="464" y="320" on="0"/>
        <pt x="427" y="284" on="0"/>
        <pt x="363" y="284" on="0"/>
        <pt x="325" y="321" on="0"/>
        <pt x="325" y="353" on="1"/>
        <pt x="325" y="378" on="0"/>
        <pt x="338" y="396" on="1"/>
        <pt x="333" y="396" on="1"/>
        <pt x="317" y="398" on="0"/>
      </contour>
    </TTGlyph>
    <TTGlyph name="caron" xMin="131" yMin="515" xMax="443" yMax="659">
      <contour>
        <pt x="143" y="632" on="1"/>
        <pt x="148" y="642" on="0"/>
        <pt x="154" y="655" on="0"/>
        <pt x="157" y="660" on="0"/>
        <pt x="158" y="659" on="1"/>
        <pt x="223" y="635" on="1"/>
        <pt x="287" y="611" on="1"/>
        <pt x="351" y="635" on="1"/>
        <pt x="416" y="659" on="1"/>
        <pt x="417" y="660" on="0"/>
        <pt x="420" y="655" on="0"/>
        <pt x="426" y="642" on="0"/>
        <pt x="431" y="632" on="1"/>
        <pt x="444" y="606" on="0"/>
        <pt x="443" y="603" on="1"/>
        <pt x="440" y="601" on="0"/>
        <pt x="288" y="515" on="0"/>
        <pt x="286" y="515" on="0"/>
        <pt x="134" y="601" on="0"/>
        <pt x="131" y="603" on="1"/>
        <pt x="130" y="606" on="0"/>
      </contour>
    </TTGlyph>
    <TTGlyph name="circlemultiply" xMin="64" yMin="-132" xMax="828" yMax="632">
      <contour>
        <pt x="64" y="250" on="1"/>
        <pt x="64" y="418" on="0"/>
        <pt x="253" y="619" on="0"/>
        <pt x="413" y="632" on="1"/>
        <pt x="434" y="632" on="1"/>
        <pt x="485" y="632" on="0"/>
        <pt x="496" y="631" on="1"/>
        <pt x="572" y="621" on="0"/>
        <pt x="635" y="592" on="1"/>
        <pt x="802" y="509" on="0"/>
        <pt x="827" y="299" on="1"/>
        <pt x="828" y="288" on="0"/>
        <pt x="828" y="250" on="1"/>
        <pt x="828" y="213" on="0"/>
        <pt x="827" y="202" on="1"/>
        <pt x="810" y="59" on="0"/>
        <pt x="637" y="-114" on="0"/>
        <pt x="491" y="-130" on="1"/>
        <pt x="475" y="-132" on="0"/>
        <pt x="446" y="-132" on="1"/>
        <pt x="344" y="-132" on="0"/>
        <pt x="259" y="-91" on="1"/>
        <pt x="91" y="-8" on="0"/>
        <pt x="66" y="202" on="1"/>
        <pt x="64" y="224" on="0"/>
      </contour>
      <contour>
        <pt x="647" y="512" on="1"/>
        <pt x="568" y="571" on="0"/>
        <pt x="447" y="571" on="1"/>
        <pt x="340" y="571" on="0"/>
        <pt x="262" y="523" on="1"/>
        <pt x="237" y="507" on="0"/>
        <pt x="237" y="505" on="1"/>
        <pt x="284" y="457" on="0"/>
        <pt x="342" y="399" on="1"/>
        <pt x="447" y="295" on="1"/>
        <pt x="657" y="505" on="1"/>
      </contour>
      <contour>
        <pt x="298" y="356" on="1"/>
        <pt x="192" y="461" on="1"/>
        <pt x="175" y="438" on="0"/>
        <pt x="161" y="411" on="1"/>
        <pt x="126" y="341" on="0"/>
        <pt x="126" y="251" on="1"/>
        <pt x="126" y="129" on="0"/>
        <pt x="192" y="40" on="1"/>
        <pt x="263" y="110" on="0"/>
        <pt x="403" y="250" on="1"/>
      </contour>
      <contour>
        <pt x="707" y="453" on="1"/>
        <pt x="702" y="460" on="0"/>
        <pt x="701" y="460" on="1"/>
        <pt x="653" y="413" on="0"/>
        <pt x="596" y="355" on="1"/>
        <pt x="491" y="250" on="1"/>
        <pt x="596" y="146" on="1"/>
        <pt x="701" y="41" on="1"/>
        <pt x="708" y="41" on="0"/>
        <pt x="732" y="90" on="1"/>
        <pt x="767" y="157" on="0"/>
        <pt x="767" y="250" on="1"/>
        <pt x="767" y="344" on="0"/>
        <pt x="732" y="411" on="1"/>
        <pt x="721" y="433" on="0"/>
      </contour>
      <contour>
        <pt x="447" y="206" on="1"/>
        <pt x="238" y="-2" on="0"/>
        <pt x="238" y="-5" on="1"/>
        <pt x="238" y="-7" on="0"/>
        <pt x="264" y="-23" on="1"/>
        <pt x="343" y="-70" on="0"/>
        <pt x="447" y="-70" on="1"/>
        <pt x="567" y="-70" on="0"/>
        <pt x="647" y="-11" on="1"/>
        <pt x="657" y="-4" on="1"/>
        <pt x="552" y="101" on="1"/>
      </contour>
    </TTGlyph>
    <TTGlyph name="circleplus" xMin="64" yMin="-132" xMax="828" yMax="632">
      <contour>
        <pt x="64" y="250" on="1"/>
        <pt x="64" y="418" on="0"/>
        <pt x="253" y="619" on="0"/>
        <pt x="413" y="632" on="1"/>
        <pt x="434" y="632" on="1"/>
        <pt x="485" y="632" on="0"/>
        <pt x="496" y="631" on="1"/>
        <pt x="572" y="621" on="0"/>
        <pt x="635" y="592" on="1"/>
        <pt x="802" y="509" on="0"/>
        <pt x="827" y="299" on="1"/>
        <pt x="828" y="288" on="0"/>
        <pt x="828" y="250" on="1"/>
        <pt x="828" y="213" on="0"/>
        <pt x="827" y="202" on="1"/>
        <pt x="810" y="59" on="0"/>
        <pt x="637" y="-114" on="0"/>
        <pt x="491" y="-130" on="1"/>
        <pt x="475" y="-132" on="0"/>
        <pt x="446" y="-132" on="1"/>
        <pt x="344" y="-132" on="0"/>
        <pt x="259" y="-91" on="1"/>
        <pt x="91" y="-8" on="0"/>
        <pt x="66" y="202" on="1"/>
        <pt x="64" y="224" on="0"/>
      </contour>
      <contour>
        <pt x="416" y="282" on="1"/>
        <pt x="416" y="570" on="1"/>
        <pt x="414" y="570" on="1"/>
        <pt x="289" y="559" on="0"/>
        <pt x="139" y="412" on="0"/>
        <pt x="128" y="288" on="1"/>
        <pt x="127" y="282" on="1"/>
      </contour>
      <contour>
        <pt x="500" y="567" on="1"/>
        <pt x="485" y="569" on="0"/>
        <pt x="483" y="570" on="1"/>
        <pt x="478" y="570" on="1"/>
        <pt x="478" y="282" on="1"/>
        <pt x="766" y="282" on="1"/>
        <pt x="765" y="288" on="1"/>
        <pt x="752" y="434" on="0"/>
        <pt x="648" y="511" on="1"/>
        <pt x="587" y="558" on="0"/>
      </contour>
      <contour>
        <pt x="416" y="-69" on="1"/>
        <pt x="416" y="220" on="1"/>
        <pt x="127" y="220" on="1"/>
        <pt x="128" y="213" on="1"/>
        <pt x="139" y="80" on="0"/>
        <pt x="225" y="6" on="1"/>
        <pt x="295" y="-56" on="0"/>
        <pt x="410" y="-69" on="1"/>
      </contour>
      <contour>
        <pt x="765" y="213" on="1"/>
        <pt x="766" y="220" on="1"/>
        <pt x="478" y="220" on="1"/>
        <pt x="478" y="-69" on="1"/>
        <pt x="483" y="-69" on="1"/>
        <pt x="741" y="-36" on="0"/>
      </contour>
    </TTGlyph>
    <TTGlyph name="circumflex" xMin="126" yMin="520" xMax="448" yMax="694">
      <contour>
        <pt x="126" y="570" on="1"/>
        <pt x="287" y="694" on="1"/>
        <pt x="289" y="693" on="0"/>
        <pt x="448" y="571" on="0"/>
        <pt x="448" y="569" on="0"/>
        <pt x="414" y="520" on="0"/>
        <pt x="413" y="520" on="1"/>
        <pt x="410" y="520" on="0"/>
        <pt x="350" y="559" on="1"/>
        <pt x="287" y="597" on="1"/>
        <pt x="224" y="559" on="1"/>
        <pt x="164" y="520" on="0"/>
        <pt x="161" y="520" on="1"/>
        <pt x="160" y="520" on="0"/>
        <pt x="126" y="569" on="0"/>
      </contour>
    </TTGlyph>
    <TTGlyph name="club" xMin="32" yMin="-129" xMax="861" yMax="719">
      <contour>
        <pt x="198" y="368" on="1"/>
        <pt x="252" y="368" on="0"/>
        <pt x="296" y="329" on="1"/>
        <pt x="322" y="373" on="1"/>
        <pt x="240" y="431" on="0"/>
        <pt x="240" y="527" on="1"/>
        <pt x="240" y="542" on="0"/>
        <pt x="242" y="554" on="1"/>
        <pt x="253" y="623" on="0"/>
        <pt x="365" y="719" on="0"/>
        <pt x="446" y="719" on="1"/>
        <pt x="514" y="719" on="0"/>
        <pt x="568" y="683" on="1"/>
        <pt x="639" y="633" on="0"/>
        <pt x="651" y="554" on="1"/>
        <pt x="652" y="549" on="0"/>
        <pt x="652" y="527" on="1"/>
        <pt x="652" y="431" on="0"/>
        <pt x="571" y="373" on="1"/>
        <pt x="571" y="372" on="0"/>
        <pt x="596" y="329" on="0"/>
        <pt x="597" y="329" on="1"/>
        <pt x="600" y="331" on="0"/>
        <pt x="603" y="334" on="1"/>
        <pt x="628" y="358" on="0"/>
        <pt x="667" y="366" on="1"/>
        <pt x="670" y="366" on="0"/>
        <pt x="689" y="368" on="0"/>
        <pt x="694" y="368" on="1"/>
        <pt x="762" y="368" on="0"/>
        <pt x="861" y="259" on="0"/>
        <pt x="861" y="177" on="1"/>
        <pt x="861" y="113" on="0"/>
        <pt x="822" y="60" on="1"/>
        <pt x="780" y="5" on="0"/>
        <pt x="713" y="-12" on="1"/>
        <pt x="690" y="-17" on="0"/>
        <pt x="656" y="-17" on="1"/>
        <pt x="535" y="-13" on="0"/>
        <pt x="527" y="62" on="1"/>
        <pt x="527" y="70" on="1"/>
        <pt x="477" y="70" on="1"/>
        <pt x="477" y="55" on="1"/>
        <pt x="480" y="-11" on="0"/>
        <pt x="502" y="-74" on="1"/>
        <pt x="509" y="-94" on="0"/>
        <pt x="509" y="-101" on="1"/>
        <pt x="509" y="-119" on="0"/>
        <pt x="491" y="-127" on="1"/>
        <pt x="487" y="-129" on="0"/>
        <pt x="447" y="-129" on="1"/>
        <pt x="406" y="-129" on="0"/>
        <pt x="402" y="-127" on="1"/>
        <pt x="384" y="-119" on="0"/>
        <pt x="384" y="-101" on="1"/>
        <pt x="384" y="-94" on="0"/>
        <pt x="391" y="-74" on="1"/>
        <pt x="413" y="-11" on="0"/>
        <pt x="416" y="55" on="1"/>
        <pt x="416" y="70" on="1"/>
        <pt x="366" y="70" on="1"/>
        <pt x="366" y="62" on="1"/>
        <pt x="361" y="21" on="0"/>
        <pt x="296" y="-15" on="0"/>
        <pt x="237" y="-17" on="1"/>
        <pt x="202" y="-17" on="0"/>
        <pt x="180" y="-12" on="1"/>
        <pt x="118" y="4" on="0"/>
        <pt x="32" y="108" on="0"/>
        <pt x="32" y="178" on="1"/>
        <pt x="32" y="247" on="0"/>
        <pt x="107" y="350" on="0"/>
        <pt x="162" y="364" on="1"/>
        <pt x="178" y="368" on="0"/>
      </contour>
    </TTGlyph>
    <TTGlyph name="colon" xMin="74" yMin="1" xMax="245" yMax="444">
      <contour>
        <pt x="74" y="325" on="0"/>
        <pt x="74" y="393" on="0"/>
        <pt x="123" y="444" on="0"/>
        <pt x="158" y="444" on="1"/>
        <pt x="208" y="444" on="0"/>
        <pt x="232" y="403" on="1"/>
        <pt x="245" y="383" on="0"/>
        <pt x="245" y="358" on="1"/>
        <pt x="245" y="330" on="0"/>
        <pt x="212" y="285" on="0"/>
        <pt x="184" y="276" on="1"/>
        <pt x="175" y="274" on="0"/>
        <pt x="160" y="274" on="1"/>
        <pt x="120" y="274" on="0"/>
      </contour>
      <contour>
        <pt x="74" y="85" on="1"/>
        <pt x="74" y="116" on="0"/>
        <pt x="113" y="162" on="0"/>
        <pt x="143" y="170" on="1"/>
        <pt x="147" y="171" on="0"/>
        <pt x="156" y="171" on="1"/>
        <pt x="209" y="171" on="0"/>
        <pt x="232" y="130" on="1"/>
        <pt x="245" y="110" on="0"/>
        <pt x="245" y="85" on="1"/>
        <pt x="245" y="57" on="0"/>
        <pt x="212" y="12" on="0"/>
        <pt x="184" y="3" on="1"/>
        <pt x="175" y="1" on="0"/>
        <pt x="160" y="1" on="1"/>
        <pt x="128" y="1" on="0"/>
        <pt x="105" y="20" on="1"/>
        <pt x="74" y="44" on="0"/>
      </contour>
    </TTGlyph>
    <TTGlyph name="comma" xMin="74" yMin="-194" xMax="258" yMax="171">
      <contour>
        <pt x="74" y="85" on="1"/>
        <pt x="74" y="123" on="0"/>
        <pt x="121" y="171" on="0"/>
        <pt x="159" y="171" on="1"/>
        <pt x="201" y="171" on="0"/>
        <pt x="226" y="138" on="1"/>
        <pt x="258" y="103" on="0"/>
        <pt x="258" y="37" on="1"/>
        <pt x="258" y="-22" on="0"/>
        <pt x="236" y="-72" on="1"/>
        <pt x="209" y="-138" on="0"/>
        <pt x="152" y="-185" on="1"/>
        <pt x="140" y="-194" on="0"/>
        <pt x="135" y="-194" on="1"/>
        <pt x="129" y="-194" on="0"/>
        <pt x="120" y="-185" on="1"/>
        <pt x="106" y="-171" on="0"/>
        <pt x="106" y="-157" on="0"/>
        <pt x="115" y="-149" on="1"/>
        <pt x="119" y="-147" on="0"/>
        <pt x="133" y="-133" on="1"/>
        <pt x="175" y="-94" on="0"/>
        <pt x="195" y="-35" on="1"/>
        <pt x="197" y="-28" on="0"/>
        <pt x="203" y="-5" on="0"/>
        <pt x="206" y="11" on="0"/>
        <pt x="205" y="11" on="1"/>
        <pt x="202" y="11" on="0"/>
        <pt x="198" y="8" on="1"/>
        <pt x="180" y="0" on="0"/>
        <pt x="159" y="0" on="1"/>
        <pt x="121" y="0" on="0"/>
        <pt x="74" y="50" on="0"/>
      </contour>
    </TTGlyph>
    <TTGlyph name="congruent" xMin="64" yMin="-27" xMax="829" yMax="638">
      <contour>
        <pt x="86" y="356" on="1"/>
        <pt x="77" y="356" on="0"/>
        <pt x="64" y="383" on="0"/>
        <pt x="64" y="402" on="1"/>
        <pt x="64" y="494" on="0"/>
        <pt x="162" y="627" on="0"/>
        <pt x="232" y="636" on="1"/>
        <pt x="248" y="638" on="0"/>
        <pt x="257" y="638" on="1"/>
        <pt x="304" y="638" on="0"/>
        <pt x="357" y="610" on="1"/>
        <pt x="391" y="590" on="0"/>
        <pt x="454" y="537" on="1"/>
        <pt x="515" y="486" on="0"/>
        <pt x="545" y="468" on="1"/>
        <pt x="592" y="441" on="0"/>
        <pt x="637" y="441" on="1"/>
        <pt x="703" y="441" on="0"/>
        <pt x="788" y="541" on="0"/>
        <pt x="788" y="614" on="1"/>
        <pt x="796" y="638" on="0"/>
        <pt x="808" y="638" on="1"/>
        <pt x="817" y="638" on="0"/>
        <pt x="828" y="613" on="0"/>
        <pt x="828" y="600" on="1"/>
        <pt x="828" y="589" on="1"/>
        <pt x="828" y="496" on="0"/>
        <pt x="723" y="356" on="0"/>
        <pt x="637" y="356" on="1"/>
        <pt x="586" y="356" on="0"/>
        <pt x="536" y="384" on="1"/>
        <pt x="502" y="404" on="0"/>
        <pt x="439" y="457" on="1"/>
        <pt x="378" y="508" on="0"/>
        <pt x="348" y="526" on="1"/>
        <pt x="302" y="553" on="0"/>
        <pt x="256" y="553" on="1"/>
        <pt x="190" y="553" on="0"/>
        <pt x="105" y="452" on="0"/>
        <pt x="105" y="379" on="1"/>
        <pt x="98" y="356" on="0"/>
      </contour>
      <contour>
        <pt x="87" y="197" on="1"/>
        <pt x="64" y="207" on="0"/>
        <pt x="64" y="226" on="1"/>
        <pt x="64" y="247" on="0"/>
        <pt x="84" y="255" on="1"/>
        <pt x="89" y="257" on="0"/>
        <pt x="448" y="257" on="1"/>
        <pt x="807" y="257" on="1"/>
        <pt x="811" y="254" on="1"/>
        <pt x="829" y="247" on="0"/>
        <pt x="829" y="227" on="1"/>
        <pt x="829" y="208" on="0"/>
        <pt x="807" y="197" on="1"/>
      </contour>
      <contour>
        <pt x="87" y="-27" on="1"/>
        <pt x="64" y="-18" on="0"/>
        <pt x="64" y="3" on="1"/>
        <pt x="64" y="23" on="0"/>
        <pt x="86" y="32" on="1"/>
        <pt x="89" y="33" on="0"/>
        <pt x="448" y="33" on="1"/>
        <pt x="807" y="33" on="1"/>
        <pt x="811" y="30" on="1"/>
        <pt x="829" y="22" on="0"/>
        <pt x="829" y="-16" on="0"/>
        <pt x="807" y="-27" on="1"/>
      </contour>
    </TTGlyph>
    <TTGlyph name="d" xMin="38" yMin="-6" xMax="609" yMax="694">
      <contour>
        <pt x="351" y="686" on="1"/>
        <pt x="352" y="686" on="0"/>
        <pt x="443" y="690" on="1"/>
        <pt x="534" y="694" on="1"/>
        <pt x="540" y="694" on="1"/>
        <pt x="540" y="389" on="1"/>
        <pt x="540" y="84" on="0"/>
        <pt x="542" y="79" on="1"/>
        <pt x="547" y="62" on="0"/>
        <pt x="596" y="62" on="1"/>
        <pt x="609" y="62" on="1"/>
        <pt x="609" y="31" on="1"/>
        <pt x="609" y="0" on="0"/>
        <pt x="608" y="0" on="1"/>
        <pt x="588" y="0" on="0"/>
        <pt x="432" y="-6" on="0"/>
        <pt x="412" y="-6" on="1"/>
        <pt x="411" y="-6" on="0"/>
        <pt x="411" y="16" on="1"/>
        <pt x="411" y="38" on="1"/>
        <pt x="401" y="31" on="1"/>
        <pt x="337" y="-6" on="0"/>
        <pt x="265" y="-6" on="1"/>
        <pt x="117" y="-6" on="0"/>
        <pt x="61" y="113" on="1"/>
        <pt x="38" y="162" on="0"/>
        <pt x="38" y="224" on="1"/>
        <pt x="38" y="246" on="0"/>
        <pt x="45" y="281" on="1"/>
        <pt x="61" y="351" on="0"/>
        <pt x="160" y="437" on="0"/>
        <pt x="236" y="448" on="1"/>
        <pt x="245" y="449" on="0"/>
        <pt x="272" y="449" on="1"/>
        <pt x="357" y="449" on="0"/>
        <pt x="417" y="412" on="1"/>
        <pt x="417" y="507" on="1"/>
        <pt x="417" y="602" on="0"/>
        <pt x="415" y="607" on="1"/>
        <pt x="410" y="624" on="0"/>
        <pt x="361" y="624" on="1"/>
        <pt x="348" y="624" on="1"/>
        <pt x="348" y="686" on="1"/>
      </contour>
      <contour>
        <pt x="411" y="350" on="1"/>
        <pt x="362" y="399" on="0"/>
        <pt x="291" y="399" on="1"/>
        <pt x="284" y="399" on="0"/>
        <pt x="277" y="397" on="1"/>
        <pt x="241" y="392" on="0"/>
        <pt x="218" y="371" on="1"/>
        <pt x="195" y="351" on="0"/>
        <pt x="182" y="285" on="0"/>
        <pt x="182" y="221" on="1"/>
        <pt x="182" y="176" on="0"/>
        <pt x="184" y="136" on="0"/>
        <pt x="198" y="90" on="0"/>
        <pt x="212" y="74" on="1"/>
        <pt x="241" y="46" on="0"/>
        <pt x="288" y="46" on="1"/>
        <pt x="358" y="46" on="0"/>
        <pt x="404" y="100" on="1"/>
        <pt x="411" y="109" on="1"/>
      </contour>
    </TTGlyph>
    <TTGlyph name="dagger" xMin="64" yMin="-211" xMax="446" yMax="702">
      <contour>
        <pt x="128" y="382" on="1"/>
        <pt x="98" y="382" on="0"/>
        <pt x="64" y="416" on="0"/>
        <pt x="64" y="444" on="1"/>
        <pt x="64" y="465" on="0"/>
        <pt x="88" y="498" on="0"/>
        <pt x="106" y="504" on="1"/>
        <pt x="113" y="506" on="0"/>
        <pt x="128" y="506" on="1"/>
        <pt x="154" y="506" on="0"/>
        <pt x="196" y="486" on="1"/>
        <pt x="226" y="470" on="0"/>
        <pt x="231" y="470" on="1"/>
        <pt x="232" y="471" on="0"/>
        <pt x="225" y="500" on="1"/>
        <pt x="224" y="503" on="0"/>
        <pt x="215" y="531" on="0"/>
        <pt x="213" y="539" on="1"/>
        <pt x="193" y="603" on="0"/>
        <pt x="193" y="636" on="1"/>
        <pt x="193" y="667" on="0"/>
        <pt x="226" y="702" on="0"/>
        <pt x="255" y="702" on="1"/>
        <pt x="300" y="702" on="0"/>
        <pt x="315" y="660" on="1"/>
        <pt x="317" y="653" on="0"/>
        <pt x="317" y="636" on="1"/>
        <pt x="317" y="603" on="0"/>
        <pt x="297" y="539" on="1"/>
        <pt x="295" y="531" on="0"/>
        <pt x="286" y="503" on="0"/>
        <pt x="285" y="500" on="1"/>
        <pt x="278" y="471" on="0"/>
        <pt x="279" y="470" on="1"/>
        <pt x="284" y="470" on="0"/>
        <pt x="314" y="486" on="1"/>
        <pt x="356" y="506" on="0"/>
        <pt x="383" y="506" on="1"/>
        <pt x="412" y="506" on="0"/>
        <pt x="446" y="471" on="0"/>
        <pt x="446" y="417" on="0"/>
        <pt x="412" y="382" on="0"/>
        <pt x="383" y="382" on="1"/>
        <pt x="356" y="382" on="0"/>
        <pt x="314" y="402" on="1"/>
        <pt x="285" y="418" on="0"/>
        <pt x="279" y="418" on="1"/>
        <pt x="278" y="416" on="0"/>
        <pt x="295" y="357" on="0"/>
        <pt x="315" y="291" on="0"/>
        <pt x="316" y="284" on="1"/>
        <pt x="318" y="268" on="0"/>
        <pt x="318" y="234" on="1"/>
        <pt x="318" y="126" on="0"/>
        <pt x="309" y="12" on="1"/>
        <pt x="294" y="-182" on="0"/>
        <pt x="284" y="-203" on="1"/>
        <pt x="279" y="-211" on="0"/>
        <pt x="270" y="-211" on="1"/>
        <pt x="255" y="-211" on="1"/>
        <pt x="240" y="-211" on="1"/>
        <pt x="231" y="-211" on="0"/>
        <pt x="226" y="-203" on="1"/>
        <pt x="216" y="-182" on="0"/>
        <pt x="201" y="12" on="1"/>
        <pt x="192" y="126" on="0"/>
        <pt x="192" y="234" on="1"/>
        <pt x="192" y="246" on="0"/>
        <pt x="193" y="264" on="0"/>
        <pt x="193" y="277" on="0"/>
        <pt x="195" y="291" on="0"/>
        <pt x="196" y="299" on="0"/>
        <pt x="201" y="314" on="0"/>
        <pt x="203" y="321" on="0"/>
        <pt x="210" y="343" on="0"/>
        <pt x="212" y="349" on="1"/>
        <pt x="233" y="413" on="0"/>
        <pt x="231" y="418" on="1"/>
        <pt x="225" y="418" on="0"/>
        <pt x="196" y="402" on="1"/>
        <pt x="153" y="382" on="0"/>
      </contour>
    </TTGlyph>
    <TTGlyph name="daggerdbl" xMin="64" yMin="-202" xMax="446" yMax="702">
      <contour>
        <pt x="64" y="477" on="1"/>
        <pt x="64" y="504" on="0"/>
        <pt x="100" y="539" on="0"/>
        <pt x="127" y="539" on="1"/>
        <pt x="135" y="539" on="0"/>
        <pt x="149" y="537" on="0"/>
        <pt x="164" y="532" on="0"/>
        <pt x="172" y="529" on="0"/>
        <pt x="191" y="520" on="0"/>
        <pt x="196" y="518" on="1"/>
        <pt x="220" y="506" on="0"/>
        <pt x="226" y="504" on="1"/>
        <pt x="230" y="502" on="0"/>
        <pt x="230" y="504" on="1"/>
        <pt x="230" y="510" on="0"/>
        <pt x="213" y="554" on="1"/>
        <pt x="193" y="605" on="0"/>
        <pt x="193" y="637" on="1"/>
        <pt x="193" y="668" on="0"/>
        <pt x="226" y="702" on="0"/>
        <pt x="255" y="702" on="1"/>
        <pt x="300" y="702" on="0"/>
        <pt x="315" y="660" on="1"/>
        <pt x="317" y="653" on="0"/>
        <pt x="317" y="637" on="1"/>
        <pt x="317" y="605" on="0"/>
        <pt x="297" y="554" on="1"/>
        <pt x="280" y="510" on="0"/>
        <pt x="280" y="504" on="1"/>
        <pt x="280" y="502" on="0"/>
        <pt x="284" y="504" on="1"/>
        <pt x="290" y="506" on="0"/>
        <pt x="314" y="518" on="1"/>
        <pt x="359" y="539" on="0"/>
        <pt x="382" y="539" on="1"/>
        <pt x="410" y="539" on="0"/>
        <pt x="446" y="505" on="0"/>
        <pt x="446" y="476" on="1"/>
        <pt x="446" y="449" on="0"/>
        <pt x="412" y="414" on="0"/>
        <pt x="383" y="414" on="1"/>
        <pt x="377" y="414" on="1"/>
        <pt x="359" y="414" on="0"/>
        <pt x="314" y="434" on="1"/>
        <pt x="290" y="446" on="0"/>
        <pt x="284" y="448" on="1"/>
        <pt x="280" y="450" on="0"/>
        <pt x="280" y="448" on="1"/>
        <pt x="280" y="442" on="0"/>
        <pt x="297" y="398" on="1"/>
        <pt x="317" y="347" on="0"/>
        <pt x="317" y="285" on="0"/>
        <pt x="284" y="250" on="0"/>
        <pt x="255" y="250" on="1"/>
        <pt x="210" y="250" on="0"/>
        <pt x="195" y="292" on="1"/>
        <pt x="193" y="299" on="0"/>
        <pt x="193" y="316" on="1"/>
        <pt x="193" y="347" on="0"/>
        <pt x="213" y="398" on="1"/>
        <pt x="230" y="442" on="0"/>
        <pt x="230" y="448" on="1"/>
        <pt x="230" y="450" on="0"/>
        <pt x="226" y="448" on="1"/>
        <pt x="220" y="446" on="0"/>
        <pt x="196" y="434" on="1"/>
        <pt x="151" y="414" on="0"/>
        <pt x="133" y="414" on="1"/>
        <pt x="127" y="414" on="1"/>
        <pt x="98" y="414" on="0"/>
        <pt x="64" y="449" on="0"/>
      </contour>
      <contour>
        <pt x="65" y="-5" on="0"/>
        <pt x="65" y="53" on="0"/>
        <pt x="100" y="86" on="0"/>
        <pt x="154" y="86" on="0"/>
        <pt x="196" y="65" on="1"/>
        <pt x="224" y="52" on="0"/>
        <pt x="228" y="51" on="1"/>
        <pt x="230" y="50" on="0"/>
        <pt x="230" y="51" on="0"/>
        <pt x="230" y="53" on="1"/>
        <pt x="228" y="65" on="0"/>
        <pt x="215" y="96" on="1"/>
        <pt x="193" y="153" on="0"/>
        <pt x="193" y="215" on="0"/>
        <pt x="226" y="249" on="0"/>
        <pt x="255" y="249" on="1"/>
        <pt x="300" y="249" on="0"/>
        <pt x="315" y="207" on="1"/>
        <pt x="317" y="200" on="0"/>
        <pt x="317" y="184" on="1"/>
        <pt x="317" y="153" on="0"/>
        <pt x="295" y="96" on="1"/>
        <pt x="282" y="65" on="0"/>
        <pt x="280" y="53" on="1"/>
        <pt x="280" y="51" on="0"/>
        <pt x="280" y="50" on="0"/>
        <pt x="282" y="51" on="1"/>
        <pt x="286" y="52" on="0"/>
        <pt x="314" y="65" on="1"/>
        <pt x="357" y="86" on="0"/>
        <pt x="383" y="86" on="1"/>
        <pt x="410" y="86" on="0"/>
        <pt x="445" y="53" on="0"/>
        <pt x="445" y="-5" on="0"/>
        <pt x="410" y="-39" on="0"/>
        <pt x="382" y="-39" on="1"/>
        <pt x="356" y="-39" on="0"/>
        <pt x="314" y="-18" on="1"/>
        <pt x="286" y="-5" on="0"/>
        <pt x="282" y="-4" on="1"/>
        <pt x="280" y="-3" on="0"/>
        <pt x="280" y="-4" on="0"/>
        <pt x="280" y="-6" on="1"/>
        <pt x="282" y="-18" on="0"/>
        <pt x="295" y="-49" on="1"/>
        <pt x="317" y="-106" on="0"/>
        <pt x="317" y="-136" on="1"/>
        <pt x="317" y="-167" on="0"/>
        <pt x="284" y="-202" on="0"/>
        <pt x="255" y="-202" on="1"/>
        <pt x="210" y="-202" on="0"/>
        <pt x="195" y="-160" on="1"/>
        <pt x="193" y="-153" on="0"/>
        <pt x="193" y="-136" on="1"/>
        <pt x="193" y="-106" on="0"/>
        <pt x="215" y="-49" on="1"/>
        <pt x="228" y="-18" on="0"/>
        <pt x="230" y="-6" on="1"/>
        <pt x="230" y="-4" on="0"/>
        <pt x="230" y="-3" on="0"/>
        <pt x="228" y="-4" on="1"/>
        <pt x="224" y="-5" on="0"/>
        <pt x="196" y="-18" on="1"/>
        <pt x="154" y="-39" on="0"/>
        <pt x="128" y="-39" on="1"/>
        <pt x="100" y="-39" on="0"/>
      </contour>
    </TTGlyph>
    <TTGlyph name="degree" xMin="160" yMin="536" xMax="414" yMax="702">
      <contour>
        <pt x="167" y="647" on="1"/>
        <pt x="192" y="702" on="0"/>
        <pt x="279" y="702" on="1"/>
        <pt x="380" y="702" on="0"/>
        <pt x="407" y="647" on="1"/>
        <pt x="414" y="634" on="0"/>
        <pt x="414" y="618" on="1"/>
        <pt x="414" y="587" on="0"/>
        <pt x="363" y="544" on="0"/>
        <pt x="326" y="538" on="1"/>
        <pt x="315" y="536" on="0"/>
        <pt x="287" y="536" on="1"/>
        <pt x="230" y="536" on="0"/>
        <pt x="196" y="557" on="1"/>
        <pt x="160" y="580" on="0"/>
        <pt x="160" y="618" on="1"/>
        <pt x="160" y="634" on="0"/>
      </contour>
      <contour>
        <pt x="352" y="618" on="1"/>
        <pt x="352" y="646" on="0"/>
        <pt x="328" y="659" on="0"/>
        <pt x="292" y="659" on="1"/>
        <pt x="286" y="659" on="0"/>
        <pt x="270" y="660" on="0"/>
        <pt x="268" y="660" on="1"/>
        <pt x="244" y="660" on="0"/>
        <pt x="222" y="642" on="0"/>
        <pt x="222" y="619" on="1"/>
        <pt x="222" y="593" on="0"/>
        <pt x="235" y="584" on="1"/>
        <pt x="246" y="578" on="0"/>
        <pt x="328" y="578" on="0"/>
        <pt x="339" y="584" on="1"/>
        <pt x="352" y="593" on="0"/>
      </contour>
    </TTGlyph>
    <TTGlyph name="dieresis" xMin="96" yMin="535" xMax="478" yMax="695">
      <contour>
        <pt x="255" y="649" on="0"/>
        <pt x="255" y="581" on="0"/>
        <pt x="208" y="535" on="0"/>
        <pt x="176" y="535" on="1"/>
        <pt x="142" y="535" on="0"/>
        <pt x="96" y="580" on="0"/>
        <pt x="96" y="615" on="1"/>
        <pt x="96" y="673" on="0"/>
        <pt x="156" y="693" on="1"/>
        <pt x="164" y="695" on="0"/>
        <pt x="178" y="695" on="1"/>
        <pt x="210" y="693" on="0"/>
      </contour>
      <contour>
        <pt x="319" y="615" on="1"/>
        <pt x="319" y="649" on="0"/>
        <pt x="366" y="695" on="0"/>
        <pt x="432" y="695" on="0"/>
        <pt x="478" y="649" on="0"/>
        <pt x="478" y="615" on="1"/>
        <pt x="478" y="579" on="0"/>
        <pt x="431" y="535" on="0"/>
        <pt x="395" y="535" on="1"/>
        <pt x="364" y="537" on="0"/>
        <pt x="319" y="582" on="0"/>
      </contour>
    </TTGlyph>
    <TTGlyph name="divide" xMin="64" yMin="-96" xMax="828" yMax="597">
      <contour>
        <pt x="344" y="495" on="1"/>
        <pt x="344" y="537" on="0"/>
        <pt x="404" y="597" on="0"/>
        <pt x="447" y="597" on="1"/>
        <pt x="491" y="597" on="0"/>
        <pt x="548" y="534" on="0"/>
        <pt x="548" y="495" on="1"/>
        <pt x="548" y="451" on="0"/>
        <pt x="485" y="393" on="0"/>
        <pt x="446" y="393" on="1"/>
        <pt x="402" y="393" on="0"/>
        <pt x="344" y="455" on="0"/>
      </contour>
      <contour>
        <pt x="87" y="221" on="1"/>
        <pt x="64" y="231" on="0"/>
        <pt x="64" y="251" on="1"/>
        <pt x="64" y="272" on="0"/>
        <pt x="84" y="279" on="1"/>
        <pt x="89" y="281" on="0"/>
        <pt x="448" y="281" on="1"/>
        <pt x="806" y="281" on="1"/>
        <pt x="810" y="278" on="1"/>
        <pt x="828" y="271" on="0"/>
        <pt x="828" y="251" on="1"/>
        <pt x="828" y="232" on="0"/>
        <pt x="806" y="221" on="1"/>
      </contour>
      <contour>
        <pt x="344" y="6" on="1"/>
        <pt x="344" y="46" on="0"/>
        <pt x="401" y="108" on="0"/>
        <pt x="446" y="108" on="1"/>
        <pt x="487" y="108" on="0"/>
        <pt x="548" y="51" on="0"/>
        <pt x="548" y="6" on="1"/>
        <pt x="548" y="-34" on="0"/>
        <pt x="489" y="-96" on="0"/>
        <pt x="446" y="-96" on="1"/>
        <pt x="407" y="-96" on="0"/>
        <pt x="344" y="-38" on="0"/>
      </contour>
    </TTGlyph>
    <TTGlyph name="dollar" xMin="64" yMin="-56" xMax="510" yMax="750">
      <contour>
        <pt x="510" y="217" on="1"/>
        <pt x="510" y="120" on="0"/>
        <pt x="408" y="7" on="0"/>
        <pt x="318" y="-4" on="1"/>
        <pt x="318" y="-56" on="1"/>
        <pt x="256" y="-56" on="1"/>
        <pt x="256" y="-5" on="1"/>
        <pt x="254" y="-5" on="1"/>
        <pt x="252" y="-3" on="0"/>
        <pt x="240" y="-3" on="1"/>
        <pt x="161" y="9" on="0"/>
        <pt x="64" y="110" on="0"/>
        <pt x="64" y="190" on="1"/>
        <pt x="64" y="223" on="0"/>
        <pt x="101" y="262" on="0"/>
        <pt x="134" y="262" on="1"/>
        <pt x="165" y="262" on="0"/>
        <pt x="204" y="223" on="0"/>
        <pt x="204" y="193" on="1"/>
        <pt x="204" y="168" on="0"/>
        <pt x="176" y="131" on="0"/>
        <pt x="153" y="125" on="1"/>
        <pt x="146" y="125" on="0"/>
        <pt x="144" y="123" on="1"/>
        <pt x="143" y="123" on="0"/>
        <pt x="148" y="115" on="0"/>
        <pt x="157" y="104" on="0"/>
        <pt x="162" y="99" on="1"/>
        <pt x="183" y="78" on="0"/>
        <pt x="218" y="66" on="1"/>
        <pt x="247" y="58" on="0"/>
        <pt x="255" y="58" on="1"/>
        <pt x="256" y="58" on="0"/>
        <pt x="256" y="173" on="1"/>
        <pt x="256" y="287" on="1"/>
        <pt x="239" y="291" on="1"/>
        <pt x="147" y="311" on="0"/>
        <pt x="98" y="384" on="1"/>
        <pt x="64" y="434" on="0"/>
        <pt x="64" y="494" on="1"/>
        <pt x="64" y="562" on="0"/>
        <pt x="136" y="663" on="0"/>
        <pt x="193" y="684" on="1"/>
        <pt x="229" y="698" on="0"/>
        <pt x="253" y="698" on="1"/>
        <pt x="256" y="698" on="1"/>
        <pt x="256" y="750" on="1"/>
        <pt x="318" y="750" on="1"/>
        <pt x="318" y="699" on="1"/>
        <pt x="323" y="699" on="1"/>
        <pt x="364" y="693" on="0"/>
        <pt x="382" y="686" on="1"/>
        <pt x="486" y="653" on="0"/>
        <pt x="506" y="556" on="1"/>
        <pt x="510" y="539" on="0"/>
        <pt x="510" y="520" on="1"/>
        <pt x="510" y="487" on="0"/>
        <pt x="472" y="445" on="0"/>
        <pt x="440" y="445" on="1"/>
        <pt x="422" y="447" on="1"/>
        <pt x="407" y="451" on="0"/>
        <pt x="398" y="459" on="1"/>
        <pt x="370" y="478" on="0"/>
        <pt x="370" y="515" on="1"/>
        <pt x="370" y="539" on="0"/>
        <pt x="396" y="575" on="0"/>
        <pt x="418" y="582" on="1"/>
        <pt x="427" y="584" on="1"/>
        <pt x="429" y="586" on="0"/>
        <pt x="403" y="608" on="1"/>
        <pt x="371" y="629" on="0"/>
        <pt x="324" y="636" on="1"/>
        <pt x="318" y="636" on="1"/>
        <pt x="318" y="434" on="1"/>
        <pt x="398" y="421" on="0"/>
        <pt x="501" y="312" on="0"/>
        <pt x="509" y="236" on="1"/>
        <pt x="510" y="231" on="0"/>
      </contour>
      <contour>
        <pt x="255" y="636" on="1"/>
        <pt x="160" y="616" on="0"/>
        <pt x="160" y="543" on="1"/>
        <pt x="160" y="523" on="0"/>
        <pt x="167" y="509" on="1"/>
        <pt x="190" y="462" on="0"/>
        <pt x="253" y="449" on="1"/>
        <pt x="256" y="448" on="1"/>
        <pt x="256" y="542" on="1"/>
        <pt x="256" y="636" on="0"/>
      </contour>
      <contour>
        <pt x="415" y="127" on="0"/>
        <pt x="415" y="207" on="0"/>
        <pt x="359" y="265" on="0"/>
        <pt x="318" y="274" on="1"/>
        <pt x="318" y="59" on="1"/>
        <pt x="320" y="59" on="1"/>
        <pt x="327" y="59" on="0"/>
        <pt x="349" y="67" on="1"/>
        <pt x="375" y="78" on="0"/>
        <pt x="393" y="99" on="1"/>
      </contour>
    </TTGlyph>
    <TTGlyph name="dotaccent" xMin="202" yMin="525" xMax="372" yMax="695">
      <contour>
        <pt x="324" y="525" on="0"/>
        <pt x="250" y="525" on="0"/>
        <pt x="202" y="573" on="0"/>
        <pt x="202" y="610" on="1"/>
        <pt x="202" y="643" on="0"/>
        <pt x="241" y="687" on="0"/>
        <pt x="271" y="694" on="1"/>
        <pt x="274" y="695" on="0"/>
        <pt x="283" y="695" on="1"/>
        <pt x="331" y="695" on="0"/>
        <pt x="353" y="663" on="1"/>
        <pt x="372" y="644" on="0"/>
        <pt x="372" y="610" on="1"/>
        <pt x="372" y="573" on="0"/>
      </contour>
    </TTGlyph>
</ttFont>
